<svg width="1440" height="1024" viewBox="0 0 1440 1024" fill="none" xmlns="http://www.w3.org/2000/svg">
<g clip-path="url(#clip0_1_36)">
<rect width="1440" height="1024" fill="white"/>
<g filter="url(#filter0_d_1_36)">
<rect width="1440" height="1096" fill="#F9F8F8"/>
</g>
<g filter="url(#filter1_d_1_36)">
<rect x="52" y="250" width="296" height="876" rx="112" fill="#004B23"/>
</g>
<g filter="url(#filter2_d_1_36)">
<rect x="468" y="651" width="377" height="585" rx="115" fill="#EBEBEB"/>
</g>
<g filter="url(#filter3_d_1_36)">
<rect x="947" y="783" width="377" height="496" rx="115" fill="#AEE683"/>
</g>
<g filter="url(#filter4_d_1_36)">
<rect x="1046" y="428.583" width="377" height="675" rx="115" transform="rotate(-90.3046 1046 428.583)" fill="#CCFF33"/>
</g>
<g filter="url(#filter5_d_1_36)">
<rect x="346.668" y="192.998" width="292.009" height="675" rx="115" transform="rotate(179.859 346.668 192.998)" fill="#9EF01A"/>
</g>
<g filter="url(#filter6_d_1_36)">
<rect x="689.668" y="319.998" width="292.009" height="675" rx="115" transform="rotate(179.859 689.668 319.998)" fill="#38B000"/>
</g>
<g filter="url(#filter7_d_1_36)">
<rect x="1022.67" y="207.998" width="292.009" height="675" rx="115" transform="rotate(179.859 1022.67 207.998)" fill="#006400"/>
</g>
<path d="M572.809 466.84C568.143 466.84 564.013 465.767 560.419 463.62C556.826 461.427 554.003 458.44 551.949 454.66C549.896 450.833 548.869 446.447 548.869 441.5C548.869 436.553 549.873 432.19 551.879 428.41C553.933 424.583 556.733 421.597 560.279 419.45C563.873 417.257 567.979 416.16 572.599 416.16C575.539 416.16 578.363 416.697 581.069 417.77C583.776 418.797 586.203 420.267 588.349 422.18C590.496 424.047 592.153 426.217 593.319 428.69L588.209 431.28C587.276 429.32 585.993 427.617 584.359 426.17C582.726 424.723 580.906 423.603 578.899 422.81C576.893 421.97 574.793 421.55 572.599 421.55C569.193 421.55 566.136 422.413 563.429 424.14C560.723 425.82 558.599 428.153 557.059 431.14C555.566 434.127 554.819 437.58 554.819 441.5C554.819 445.42 555.589 448.897 557.129 451.93C558.669 454.963 560.793 457.343 563.499 459.07C566.253 460.75 569.356 461.59 572.809 461.59C575.049 461.59 577.173 461.147 579.179 460.26C581.186 459.327 582.983 458.067 584.569 456.48C586.203 454.893 587.486 453.073 588.419 451.02L593.599 453.61C592.386 456.177 590.706 458.463 588.559 460.47C586.459 462.477 584.033 464.04 581.279 465.16C578.573 466.28 575.749 466.84 572.809 466.84ZM604.079 447.03C604.079 443.25 604.802 440.193 606.249 437.86C607.695 435.48 609.539 433.73 611.779 432.61C614.065 431.443 616.469 430.86 618.989 430.86V436.11C616.935 436.11 614.952 436.46 613.039 437.16C611.172 437.813 609.632 438.91 608.419 440.45C607.205 441.99 606.599 444.09 606.599 446.75L604.079 447.03ZM600.999 466V431H606.599V466H600.999ZM640.121 466.84C636.714 466.84 633.681 466.07 631.021 464.53C628.408 462.943 626.354 460.773 624.861 458.02C623.368 455.267 622.621 452.093 622.621 448.5C622.621 444.907 623.344 441.733 624.791 438.98C626.284 436.227 628.338 434.08 630.951 432.54C633.611 430.953 636.621 430.16 639.981 430.16C643.434 430.16 646.468 430.953 649.081 432.54C651.741 434.08 653.794 436.227 655.241 438.98C656.734 441.733 657.481 444.907 657.481 448.5C657.481 452.093 656.734 455.267 655.241 458.02C653.794 460.773 651.764 462.943 649.151 464.53C646.538 466.07 643.528 466.84 640.121 466.84ZM640.121 461.66C642.454 461.66 644.484 461.1 646.211 459.98C647.938 458.86 649.291 457.32 650.271 455.36C651.298 453.4 651.811 451.113 651.811 448.5C651.811 445.887 651.298 443.6 650.271 441.64C649.291 439.68 647.914 438.14 646.141 437.02C644.368 435.9 642.314 435.34 639.981 435.34C637.694 435.34 635.664 435.9 633.891 437.02C632.164 438.14 630.788 439.68 629.761 441.64C628.781 443.6 628.291 445.887 628.291 448.5C628.291 451.067 628.781 453.353 629.761 455.36C630.788 457.32 632.188 458.86 633.961 459.98C635.781 461.1 637.834 461.66 640.121 461.66ZM680.866 466.84C677.413 466.84 674.356 466.07 671.696 464.53C669.036 462.943 666.96 460.773 665.466 458.02C663.973 455.267 663.226 452.093 663.226 448.5C663.226 444.907 663.95 441.733 665.396 438.98C666.89 436.227 668.966 434.08 671.626 432.54C674.286 430.953 677.32 430.16 680.726 430.16C684.086 430.16 687.096 430.93 689.756 432.47C692.416 434.01 694.446 436.18 695.846 438.98L690.736 441.29C689.803 439.423 688.45 437.977 686.676 436.95C684.903 435.877 682.873 435.34 680.586 435.34C678.3 435.34 676.27 435.9 674.496 437.02C672.77 438.14 671.393 439.703 670.366 441.71C669.386 443.67 668.896 445.933 668.896 448.5C668.896 451.067 669.386 453.353 670.366 455.36C671.393 457.32 672.793 458.86 674.566 459.98C676.386 461.1 678.44 461.66 680.726 461.66C683.013 461.66 685.043 461.077 686.816 459.91C688.636 458.743 690.013 457.11 690.946 455.01L696.056 457.32C694.656 460.307 692.626 462.64 689.966 464.32C687.306 466 684.273 466.84 680.866 466.84ZM718.598 466.84C715.191 466.84 712.158 466.07 709.498 464.53C706.884 462.943 704.831 460.773 703.338 458.02C701.844 455.267 701.098 452.093 701.098 448.5C701.098 444.907 701.821 441.733 703.268 438.98C704.761 436.227 706.814 434.08 709.428 432.54C712.088 430.953 715.098 430.16 718.458 430.16C721.911 430.16 724.944 430.953 727.558 432.54C730.218 434.08 732.271 436.227 733.718 438.98C735.211 441.733 735.958 444.907 735.958 448.5C735.958 452.093 735.211 455.267 733.718 458.02C732.271 460.773 730.241 462.943 727.628 464.53C725.014 466.07 722.004 466.84 718.598 466.84ZM718.598 461.66C720.931 461.66 722.961 461.1 724.688 459.98C726.414 458.86 727.768 457.32 728.748 455.36C729.774 453.4 730.288 451.113 730.288 448.5C730.288 445.887 729.774 443.6 728.748 441.64C727.768 439.68 726.391 438.14 724.618 437.02C722.844 435.9 720.791 435.34 718.458 435.34C716.171 435.34 714.141 435.9 712.368 437.02C710.641 438.14 709.264 439.68 708.238 441.64C707.258 443.6 706.768 445.887 706.768 448.5C706.768 451.067 707.258 453.353 708.238 455.36C709.264 457.32 710.664 458.86 712.438 459.98C714.258 461.1 716.311 461.66 718.598 461.66ZM762.638 466V417H777.548C782.168 417 786.228 418.05 789.728 420.15C793.275 422.203 796.051 425.073 798.058 428.76C800.065 432.447 801.068 436.693 801.068 441.5C801.068 446.26 800.065 450.483 798.058 454.17C796.051 457.857 793.275 460.75 789.728 462.85C786.228 464.95 782.168 466 777.548 466H762.638ZM768.588 460.54H777.548C780.021 460.54 782.308 460.073 784.408 459.14C786.508 458.16 788.351 456.783 789.938 455.01C791.571 453.237 792.831 451.207 793.718 448.92C794.651 446.587 795.118 444.113 795.118 441.5C795.118 438.887 794.651 436.437 793.718 434.15C792.831 431.817 791.571 429.763 789.938 427.99C788.351 426.217 786.508 424.863 784.408 423.93C782.308 422.95 780.021 422.46 777.548 422.46H768.588V460.54ZM809.571 466V431H815.171V466H809.571ZM812.441 422.88C811.508 422.88 810.691 422.53 809.991 421.83C809.291 421.13 808.941 420.313 808.941 419.38C808.941 418.4 809.291 417.583 809.991 416.93C810.691 416.23 811.508 415.88 812.441 415.88C813.421 415.88 814.238 416.23 814.891 416.93C815.591 417.583 815.941 418.4 815.941 419.38C815.941 420.313 815.591 421.13 814.891 421.83C814.238 422.53 813.421 422.88 812.441 422.88ZM836.201 466L850.481 431H856.361L841.731 466H836.201ZM835.851 466L821.221 431H827.031L841.311 466H835.851ZM876.368 466.84C872.961 466.84 869.951 466.07 867.338 464.53C864.724 462.943 862.671 460.773 861.178 458.02C859.731 455.267 859.008 452.093 859.008 448.5C859.008 444.907 859.731 441.733 861.178 438.98C862.671 436.227 864.701 434.08 867.268 432.54C869.881 430.953 872.868 430.16 876.228 430.16C879.494 430.16 882.318 430.977 884.698 432.61C887.078 434.197 888.921 436.437 890.228 439.33C891.534 442.223 892.188 445.63 892.188 449.55H863.278L864.678 448.36C864.678 451.16 865.168 453.563 866.148 455.57C867.174 457.577 868.598 459.117 870.418 460.19C872.238 461.217 874.314 461.73 876.648 461.73C879.121 461.73 881.198 461.147 882.878 459.98C884.604 458.813 885.934 457.273 886.868 455.36L891.698 457.81C890.811 459.63 889.621 461.217 888.128 462.57C886.681 463.923 884.954 464.973 882.948 465.72C880.988 466.467 878.794 466.84 876.368 466.84ZM865.028 445.98L863.558 444.86H887.708L886.238 446.05C886.238 443.81 885.794 441.873 884.908 440.24C884.021 438.607 882.831 437.347 881.338 436.46C879.844 435.573 878.118 435.13 876.158 435.13C874.244 435.13 872.424 435.573 870.698 436.46C869.018 437.347 867.641 438.607 866.568 440.24C865.541 441.827 865.028 443.74 865.028 445.98Z" fill="black"/>
<path d="M424.128 547.432L423.936 541.816H425.856L425.664 547.432H424.128ZM427.008 547.432L426.816 541.816H428.736L428.544 547.432H427.008ZM439.496 559.288C437.896 559.288 436.48 558.92 435.248 558.184C434.016 557.432 433.048 556.408 432.344 555.112C431.64 553.8 431.288 552.296 431.288 550.6C431.288 548.904 431.632 547.408 432.32 546.112C433.024 544.8 433.984 543.776 435.2 543.04C436.432 542.288 437.84 541.912 439.424 541.912C440.432 541.912 441.4 542.096 442.328 542.464C443.256 542.816 444.088 543.32 444.824 543.976C445.56 544.616 446.128 545.36 446.528 546.208L444.776 547.096C444.456 546.424 444.016 545.84 443.456 545.344C442.896 544.848 442.272 544.464 441.584 544.192C440.896 543.904 440.176 543.76 439.424 543.76C438.256 543.76 437.208 544.056 436.28 544.648C435.352 545.224 434.624 546.024 434.096 547.048C433.584 548.072 433.328 549.256 433.328 550.6C433.328 551.944 433.592 553.136 434.12 554.176C434.648 555.216 435.376 556.032 436.304 556.624C437.248 557.2 438.312 557.488 439.496 557.488C440.264 557.488 440.992 557.336 441.68 557.032C442.368 556.712 442.984 556.28 443.528 555.736C444.088 555.192 444.528 554.568 444.848 553.864L446.624 554.752C446.208 555.632 445.632 556.416 444.896 557.104C444.176 557.792 443.344 558.328 442.4 558.712C441.472 559.096 440.504 559.288 439.496 559.288ZM450.216 552.496C450.216 551.2 450.464 550.152 450.96 549.352C451.456 548.536 452.088 547.936 452.856 547.552C453.64 547.152 454.464 546.952 455.328 546.952V548.752C454.624 548.752 453.944 548.872 453.288 549.112C452.648 549.336 452.12 549.712 451.704 550.24C451.288 550.768 451.08 551.488 451.08 552.4L450.216 552.496ZM449.16 559V547H451.08V559H449.16ZM462.574 559.288C461.406 559.288 460.366 559.024 459.454 558.496C458.558 557.952 457.854 557.208 457.342 556.264C456.83 555.32 456.574 554.232 456.574 553C456.574 551.768 456.822 550.68 457.318 549.736C457.83 548.792 458.534 548.056 459.43 547.528C460.342 546.984 461.374 546.712 462.526 546.712C463.71 546.712 464.75 546.984 465.646 547.528C466.558 548.056 467.262 548.792 467.758 549.736C468.27 550.68 468.526 551.768 468.526 553C468.526 554.232 468.27 555.32 467.758 556.264C467.262 557.208 466.566 557.952 465.67 558.496C464.774 559.024 463.742 559.288 462.574 559.288ZM462.574 557.512C463.374 557.512 464.07 557.32 464.662 556.936C465.254 556.552 465.718 556.024 466.054 555.352C466.406 554.68 466.582 553.896 466.582 553C466.582 552.104 466.406 551.32 466.054 550.648C465.718 549.976 465.246 549.448 464.638 549.064C464.03 548.68 463.326 548.488 462.526 548.488C461.742 548.488 461.046 548.68 460.438 549.064C459.846 549.448 459.374 549.976 459.022 550.648C458.686 551.32 458.518 552.104 458.518 553C458.518 553.88 458.686 554.664 459.022 555.352C459.374 556.024 459.854 556.552 460.462 556.936C461.086 557.32 461.79 557.512 462.574 557.512ZM476.544 559.288C475.36 559.288 474.312 559.024 473.4 558.496C472.488 557.952 471.776 557.208 471.264 556.264C470.752 555.32 470.496 554.232 470.496 553C470.496 551.768 470.744 550.68 471.24 549.736C471.752 548.792 472.464 548.056 473.376 547.528C474.288 546.984 475.328 546.712 476.496 546.712C477.648 546.712 478.68 546.976 479.592 547.504C480.504 548.032 481.2 548.776 481.68 549.736L479.928 550.528C479.608 549.888 479.144 549.392 478.536 549.04C477.928 548.672 477.232 548.488 476.448 548.488C475.664 548.488 474.968 548.68 474.36 549.064C473.768 549.448 473.296 549.984 472.944 550.672C472.608 551.344 472.44 552.12 472.44 553C472.44 553.88 472.608 554.664 472.944 555.352C473.296 556.024 473.776 556.552 474.384 556.936C475.008 557.32 475.712 557.512 476.496 557.512C477.28 557.512 477.976 557.312 478.584 556.912C479.208 556.512 479.68 555.952 480 555.232L481.752 556.024C481.272 557.048 480.576 557.848 479.664 558.424C478.752 559 477.712 559.288 476.544 559.288ZM489.48 559.288C488.312 559.288 487.272 559.024 486.36 558.496C485.464 557.952 484.76 557.208 484.248 556.264C483.736 555.32 483.48 554.232 483.48 553C483.48 551.768 483.728 550.68 484.224 549.736C484.736 548.792 485.44 548.056 486.336 547.528C487.248 546.984 488.28 546.712 489.432 546.712C490.616 546.712 491.656 546.984 492.552 547.528C493.464 548.056 494.168 548.792 494.664 549.736C495.176 550.68 495.432 551.768 495.432 553C495.432 554.232 495.176 555.32 494.664 556.264C494.168 557.208 493.472 557.952 492.576 558.496C491.68 559.024 490.648 559.288 489.48 559.288ZM489.48 557.512C490.28 557.512 490.976 557.32 491.568 556.936C492.16 556.552 492.624 556.024 492.96 555.352C493.312 554.68 493.488 553.896 493.488 553C493.488 552.104 493.312 551.32 492.96 550.648C492.624 549.976 492.152 549.448 491.544 549.064C490.936 548.68 490.232 548.488 489.432 548.488C488.648 548.488 487.952 548.68 487.344 549.064C486.752 549.448 486.28 549.976 485.928 550.648C485.592 551.32 485.424 552.104 485.424 553C485.424 553.88 485.592 554.664 485.928 555.352C486.28 556.024 486.76 556.552 487.368 556.936C487.992 557.32 488.696 557.512 489.48 557.512ZM504.58 559V542.2H509.692C511.276 542.2 512.668 542.56 513.868 543.28C515.084 543.984 516.036 544.968 516.724 546.232C517.412 547.496 517.756 548.952 517.756 550.6C517.756 552.232 517.412 553.68 516.724 554.944C516.036 556.208 515.084 557.2 513.868 557.92C512.668 558.64 511.276 559 509.692 559H504.58ZM506.62 557.128H509.692C510.54 557.128 511.324 556.968 512.044 556.648C512.764 556.312 513.396 555.84 513.94 555.232C514.5 554.624 514.932 553.928 515.236 553.144C515.556 552.344 515.716 551.496 515.716 550.6C515.716 549.704 515.556 548.864 515.236 548.08C514.932 547.28 514.5 546.576 513.94 545.968C513.396 545.36 512.764 544.896 512.044 544.576C511.324 544.24 510.54 544.072 509.692 544.072H506.62V557.128ZM520.671 559V547H522.591V559H520.671ZM521.655 544.216C521.335 544.216 521.055 544.096 520.815 543.856C520.575 543.616 520.455 543.336 520.455 543.016C520.455 542.68 520.575 542.4 520.815 542.176C521.055 541.936 521.335 541.816 521.655 541.816C521.991 541.816 522.271 541.936 522.495 542.176C522.735 542.4 522.855 542.68 522.855 543.016C522.855 543.336 522.735 543.616 522.495 543.856C522.271 544.096 521.991 544.216 521.655 544.216ZM529.801 559L534.697 547H536.713L531.697 559H529.801ZM529.681 559L524.665 547H526.657L531.553 559H529.681ZM543.573 559.288C542.405 559.288 541.373 559.024 540.477 558.496C539.581 557.952 538.877 557.208 538.365 556.264C537.869 555.32 537.621 554.232 537.621 553C537.621 551.768 537.869 550.68 538.365 549.736C538.877 548.792 539.573 548.056 540.453 547.528C541.349 546.984 542.373 546.712 543.525 546.712C544.645 546.712 545.613 546.992 546.429 547.552C547.245 548.096 547.877 548.864 548.325 549.856C548.773 550.848 548.997 552.016 548.997 553.36H539.085L539.565 552.952C539.565 553.912 539.733 554.736 540.069 555.424C540.421 556.112 540.909 556.64 541.533 557.008C542.157 557.36 542.869 557.536 543.669 557.536C544.517 557.536 545.229 557.336 545.805 556.936C546.397 556.536 546.853 556.008 547.173 555.352L548.829 556.192C548.525 556.816 548.117 557.36 547.605 557.824C547.109 558.288 546.517 558.648 545.829 558.904C545.157 559.16 544.405 559.288 543.573 559.288ZM539.685 552.136L539.181 551.752H547.461L546.957 552.16C546.957 551.392 546.805 550.728 546.501 550.168C546.197 549.608 545.789 549.176 545.277 548.872C544.765 548.568 544.173 548.416 543.501 548.416C542.845 548.416 542.221 548.568 541.629 548.872C541.053 549.176 540.581 549.608 540.213 550.168C539.861 550.712 539.685 551.368 539.685 552.136ZM558.692 549.616C558.324 549.616 558.004 549.488 557.732 549.232C557.476 548.976 557.348 548.664 557.348 548.296C557.348 547.928 557.476 547.616 557.732 547.36C558.004 547.088 558.324 546.952 558.692 546.952C559.044 546.952 559.348 547.088 559.604 547.36C559.876 547.616 560.012 547.928 560.012 548.296C560.012 548.664 559.876 548.976 559.604 549.232C559.348 549.488 559.044 549.616 558.692 549.616ZM558.716 559.048C558.348 559.048 558.036 558.92 557.78 558.664C557.524 558.392 557.396 558.072 557.396 557.704C557.396 557.336 557.524 557.024 557.78 556.768C558.036 556.512 558.348 556.384 558.716 556.384C559.084 556.384 559.396 556.512 559.652 556.768C559.924 557.024 560.06 557.336 560.06 557.704C560.06 558.072 559.924 558.392 559.652 558.664C559.396 558.92 559.084 559.048 558.716 559.048ZM583.244 559L588.428 542.2H590.468L585.26 559H583.244ZM573.02 559L567.884 542.2H569.924L575.012 559H573.02ZM573.236 559L578.18 542.2H580.124L575.18 559H573.236ZM583.076 559L578.252 542.2H580.196L585.092 559H583.076ZM592.387 559V542.2H594.307V559H592.387ZM600.835 559V552.856H602.755V559H600.835ZM600.835 552.856C600.835 551.672 600.691 550.768 600.403 550.144C600.131 549.52 599.755 549.096 599.275 548.872C598.795 548.632 598.251 548.512 597.643 548.512C596.587 548.512 595.763 548.888 595.171 549.64C594.595 550.376 594.307 551.424 594.307 552.784H593.371C593.371 551.52 593.555 550.432 593.923 549.52C594.307 548.608 594.851 547.912 595.555 547.432C596.259 546.952 597.107 546.712 598.099 546.712C599.027 546.712 599.843 546.904 600.547 547.288C601.251 547.656 601.795 548.248 602.179 549.064C602.579 549.88 602.771 550.952 602.755 552.28V552.856H600.835ZM611.026 559.288C609.858 559.288 608.826 559.024 607.93 558.496C607.034 557.952 606.33 557.208 605.818 556.264C605.322 555.32 605.074 554.232 605.074 553C605.074 551.768 605.322 550.68 605.818 549.736C606.33 548.792 607.026 548.056 607.906 547.528C608.802 546.984 609.826 546.712 610.978 546.712C612.098 546.712 613.066 546.992 613.882 547.552C614.698 548.096 615.33 548.864 615.778 549.856C616.226 550.848 616.45 552.016 616.45 553.36H606.538L607.018 552.952C607.018 553.912 607.186 554.736 607.522 555.424C607.874 556.112 608.362 556.64 608.986 557.008C609.61 557.36 610.322 557.536 611.122 557.536C611.97 557.536 612.682 557.336 613.258 556.936C613.85 556.536 614.306 556.008 614.626 555.352L616.282 556.192C615.978 556.816 615.57 557.36 615.058 557.824C614.562 558.288 613.97 558.648 613.282 558.904C612.61 559.16 611.858 559.288 611.026 559.288ZM607.138 552.136L606.634 551.752H614.914L614.41 552.16C614.41 551.392 614.258 550.728 613.954 550.168C613.65 549.608 613.242 549.176 612.73 548.872C612.218 548.568 611.626 548.416 610.954 548.416C610.298 548.416 609.674 548.568 609.082 548.872C608.506 549.176 608.034 549.608 607.666 550.168C607.314 550.712 607.138 551.368 607.138 552.136ZM619.927 552.496C619.927 551.2 620.175 550.152 620.671 549.352C621.167 548.536 621.799 547.936 622.567 547.552C623.351 547.152 624.175 546.952 625.039 546.952V548.752C624.335 548.752 623.655 548.872 622.999 549.112C622.359 549.336 621.831 549.712 621.415 550.24C620.999 550.768 620.791 551.488 620.791 552.4L619.927 552.496ZM618.871 559V547H620.791V559H618.871ZM632.237 559.288C631.069 559.288 630.037 559.024 629.141 558.496C628.245 557.952 627.541 557.208 627.029 556.264C626.533 555.32 626.285 554.232 626.285 553C626.285 551.768 626.533 550.68 627.029 549.736C627.541 548.792 628.237 548.056 629.117 547.528C630.013 546.984 631.037 546.712 632.189 546.712C633.309 546.712 634.277 546.992 635.093 547.552C635.909 548.096 636.541 548.864 636.989 549.856C637.437 550.848 637.661 552.016 637.661 553.36H627.749L628.229 552.952C628.229 553.912 628.397 554.736 628.733 555.424C629.085 556.112 629.573 556.64 630.197 557.008C630.821 557.36 631.533 557.536 632.333 557.536C633.181 557.536 633.893 557.336 634.469 556.936C635.061 556.536 635.517 556.008 635.837 555.352L637.493 556.192C637.189 556.816 636.781 557.36 636.269 557.824C635.773 558.288 635.181 558.648 634.493 558.904C633.821 559.16 633.069 559.288 632.237 559.288ZM628.349 552.136L627.845 551.752H636.125L635.621 552.16C635.621 551.392 635.469 550.728 635.165 550.168C634.861 549.608 634.453 549.176 633.941 548.872C633.429 548.568 632.837 548.416 632.165 548.416C631.509 548.416 630.885 548.568 630.293 548.872C629.717 549.176 629.245 549.608 628.877 550.168C628.525 550.712 628.349 551.368 628.349 552.136ZM651.268 559.288C650.1 559.288 649.068 559.024 648.172 558.496C647.276 557.952 646.572 557.208 646.06 556.264C645.564 555.32 645.316 554.232 645.316 553C645.316 551.768 645.564 550.68 646.06 549.736C646.572 548.792 647.268 548.056 648.148 547.528C649.044 546.984 650.068 546.712 651.22 546.712C652.34 546.712 653.308 546.992 654.124 547.552C654.94 548.096 655.572 548.864 656.02 549.856C656.468 550.848 656.692 552.016 656.692 553.36H646.78L647.26 552.952C647.26 553.912 647.428 554.736 647.764 555.424C648.116 556.112 648.604 556.64 649.228 557.008C649.852 557.36 650.564 557.536 651.364 557.536C652.212 557.536 652.924 557.336 653.5 556.936C654.092 556.536 654.548 556.008 654.868 555.352L656.524 556.192C656.22 556.816 655.812 557.36 655.3 557.824C654.804 558.288 654.212 558.648 653.524 558.904C652.852 559.16 652.1 559.288 651.268 559.288ZM647.38 552.136L646.876 551.752H655.156L654.652 552.16C654.652 551.392 654.5 550.728 654.196 550.168C653.892 549.608 653.484 549.176 652.972 548.872C652.46 548.568 651.868 548.416 651.196 548.416C650.54 548.416 649.916 548.568 649.324 548.872C648.748 549.176 648.276 549.608 647.908 550.168C647.556 550.712 647.38 551.368 647.38 552.136ZM662.481 559L667.377 547H669.393L664.377 559H662.481ZM662.361 559L657.345 547H659.337L664.233 559H662.361ZM676.252 559.288C675.084 559.288 674.052 559.024 673.156 558.496C672.26 557.952 671.556 557.208 671.044 556.264C670.548 555.32 670.3 554.232 670.3 553C670.3 551.768 670.548 550.68 671.044 549.736C671.556 548.792 672.252 548.056 673.132 547.528C674.028 546.984 675.052 546.712 676.204 546.712C677.324 546.712 678.292 546.992 679.108 547.552C679.924 548.096 680.556 548.864 681.004 549.856C681.452 550.848 681.676 552.016 681.676 553.36H671.764L672.244 552.952C672.244 553.912 672.412 554.736 672.748 555.424C673.1 556.112 673.588 556.64 674.212 557.008C674.836 557.36 675.548 557.536 676.348 557.536C677.196 557.536 677.908 557.336 678.484 556.936C679.076 556.536 679.532 556.008 679.852 555.352L681.508 556.192C681.204 556.816 680.796 557.36 680.284 557.824C679.788 558.288 679.196 558.648 678.508 558.904C677.836 559.16 677.084 559.288 676.252 559.288ZM672.364 552.136L671.86 551.752H680.14L679.636 552.16C679.636 551.392 679.484 550.728 679.18 550.168C678.876 549.608 678.468 549.176 677.956 548.872C677.444 548.568 676.852 548.416 676.18 548.416C675.524 548.416 674.9 548.568 674.308 548.872C673.732 549.176 673.26 549.608 672.892 550.168C672.54 550.712 672.364 551.368 672.364 552.136ZM685.154 552.496C685.154 551.2 685.402 550.152 685.898 549.352C686.394 548.536 687.026 547.936 687.794 547.552C688.578 547.152 689.402 546.952 690.266 546.952V548.752C689.562 548.752 688.882 548.872 688.226 549.112C687.586 549.336 687.058 549.712 686.642 550.24C686.226 550.768 686.018 551.488 686.018 552.4L685.154 552.496ZM684.098 559V547H686.018V559H684.098ZM693.287 564.088C692.983 564.088 692.631 564.024 692.231 563.896C691.831 563.784 691.407 563.632 690.959 563.44L691.679 561.832C692.047 561.992 692.367 562.112 692.639 562.192C692.927 562.272 693.151 562.312 693.311 562.312C693.743 562.312 694.095 562.192 694.367 561.952C694.655 561.728 694.895 561.4 695.087 560.968L696.455 557.704L700.895 547H702.959L697.199 560.68C696.895 561.384 696.575 561.992 696.239 562.504C695.919 563.016 695.527 563.408 695.063 563.68C694.599 563.952 694.007 564.088 693.287 564.088ZM695.927 559L690.743 547H692.783L697.247 557.68L697.823 559H695.927ZM719.65 559L719.554 556.768V542.2H721.474V559H719.65ZM715.498 559.288C714.426 559.288 713.482 559.024 712.666 558.496C711.85 557.968 711.21 557.232 710.746 556.288C710.298 555.328 710.074 554.232 710.074 553C710.074 551.752 710.298 550.656 710.746 549.712C711.21 548.768 711.85 548.032 712.666 547.504C713.482 546.976 714.426 546.712 715.498 546.712C716.506 546.712 717.386 546.976 718.138 547.504C718.906 548.032 719.498 548.768 719.914 549.712C720.33 550.656 720.538 551.752 720.538 553C720.538 554.232 720.33 555.328 719.914 556.288C719.498 557.232 718.906 557.968 718.138 558.496C717.386 559.024 716.506 559.288 715.498 559.288ZM715.93 557.536C716.634 557.536 717.258 557.344 717.802 556.96C718.346 556.576 718.77 556.04 719.074 555.352C719.394 554.664 719.554 553.88 719.554 553C719.554 552.12 719.394 551.336 719.074 550.648C718.77 549.96 718.346 549.424 717.802 549.04C717.258 548.656 716.626 548.464 715.906 548.464C715.154 548.464 714.482 548.656 713.89 549.04C713.314 549.424 712.858 549.96 712.522 550.648C712.186 551.336 712.018 552.12 712.018 553C712.018 553.88 712.186 554.664 712.522 555.352C712.858 556.04 713.322 556.576 713.914 556.96C714.506 557.344 715.178 557.536 715.93 557.536ZM724.952 559V547H726.872V559H724.952ZM725.936 544.216C725.616 544.216 725.336 544.096 725.096 543.856C724.856 543.616 724.736 543.336 724.736 543.016C724.736 542.68 724.856 542.4 725.096 542.176C725.336 541.936 725.616 541.816 725.936 541.816C726.272 541.816 726.552 541.936 726.776 542.176C727.016 542.4 727.136 542.68 727.136 543.016C727.136 543.336 727.016 543.616 726.776 543.856C726.552 544.096 726.272 544.216 725.936 544.216ZM734.082 559L738.978 547H740.994L735.978 559H734.082ZM733.962 559L728.946 547H730.938L735.834 559H733.962ZM747.854 559.288C746.686 559.288 745.654 559.024 744.758 558.496C743.862 557.952 743.158 557.208 742.646 556.264C742.15 555.32 741.902 554.232 741.902 553C741.902 551.768 742.15 550.68 742.646 549.736C743.158 548.792 743.854 548.056 744.734 547.528C745.63 546.984 746.654 546.712 747.806 546.712C748.926 546.712 749.894 546.992 750.71 547.552C751.526 548.096 752.158 548.864 752.606 549.856C753.054 550.848 753.278 552.016 753.278 553.36H743.366L743.846 552.952C743.846 553.912 744.014 554.736 744.35 555.424C744.702 556.112 745.19 556.64 745.814 557.008C746.438 557.36 747.15 557.536 747.95 557.536C748.798 557.536 749.51 557.336 750.086 556.936C750.678 556.536 751.134 556.008 751.454 555.352L753.11 556.192C752.806 556.816 752.398 557.36 751.886 557.824C751.39 558.288 750.798 558.648 750.11 558.904C749.438 559.16 748.686 559.288 747.854 559.288ZM743.966 552.136L743.462 551.752H751.742L751.238 552.16C751.238 551.392 751.086 550.728 750.782 550.168C750.478 549.608 750.07 549.176 749.558 548.872C749.046 548.568 748.454 548.416 747.782 548.416C747.126 548.416 746.502 548.568 745.91 548.872C745.334 549.176 744.862 549.608 744.494 550.168C744.142 550.712 743.966 551.368 743.966 552.136ZM761.629 559V542.2H763.549V556.768L763.453 559H761.629ZM767.605 559.288C766.597 559.288 765.709 559.024 764.941 558.496C764.189 557.968 763.605 557.232 763.189 556.288C762.773 555.328 762.565 554.232 762.565 553C762.565 551.752 762.773 550.656 763.189 549.712C763.605 548.768 764.189 548.032 764.941 547.504C765.709 546.976 766.597 546.712 767.605 546.712C768.677 546.712 769.621 546.976 770.437 547.504C771.253 548.032 771.885 548.768 772.333 549.712C772.797 550.656 773.029 551.752 773.029 553C773.029 554.232 772.797 555.328 772.333 556.288C771.885 557.232 771.253 557.968 770.437 558.496C769.621 559.024 768.677 559.288 767.605 559.288ZM767.173 557.536C767.925 557.536 768.589 557.344 769.165 556.96C769.757 556.576 770.221 556.04 770.557 555.352C770.909 554.664 771.085 553.88 771.085 553C771.085 552.12 770.917 551.336 770.581 550.648C770.261 549.96 769.805 549.424 769.213 549.04C768.621 548.656 767.949 548.464 767.197 548.464C766.493 548.464 765.861 548.656 765.301 549.04C764.757 549.424 764.325 549.96 764.005 550.648C763.701 551.336 763.549 552.12 763.549 553C763.549 553.88 763.701 554.664 764.005 555.352C764.325 556.04 764.757 556.576 765.301 556.96C765.845 557.344 766.469 557.536 767.173 557.536ZM780.948 559.288C779.78 559.288 778.748 559.024 777.852 558.496C776.956 557.952 776.252 557.208 775.74 556.264C775.244 555.32 774.996 554.232 774.996 553C774.996 551.768 775.244 550.68 775.74 549.736C776.252 548.792 776.948 548.056 777.828 547.528C778.724 546.984 779.748 546.712 780.9 546.712C782.02 546.712 782.988 546.992 783.804 547.552C784.62 548.096 785.252 548.864 785.7 549.856C786.148 550.848 786.372 552.016 786.372 553.36H776.46L776.94 552.952C776.94 553.912 777.108 554.736 777.444 555.424C777.796 556.112 778.284 556.64 778.908 557.008C779.532 557.36 780.244 557.536 781.044 557.536C781.892 557.536 782.604 557.336 783.18 556.936C783.772 556.536 784.228 556.008 784.548 555.352L786.204 556.192C785.9 556.816 785.492 557.36 784.98 557.824C784.484 558.288 783.892 558.648 783.204 558.904C782.532 559.16 781.78 559.288 780.948 559.288ZM777.06 552.136L776.556 551.752H784.836L784.332 552.16C784.332 551.392 784.18 550.728 783.876 550.168C783.572 549.608 783.164 549.176 782.652 548.872C782.14 548.568 781.548 548.416 780.876 548.416C780.22 548.416 779.596 548.568 779.004 548.872C778.428 549.176 777.956 549.608 777.588 550.168C777.236 550.712 777.06 551.368 777.06 552.136ZM794.145 559.288C792.961 559.288 791.913 559.024 791.001 558.496C790.089 557.952 789.377 557.208 788.865 556.264C788.353 555.32 788.097 554.232 788.097 553C788.097 551.768 788.345 550.68 788.841 549.736C789.353 548.792 790.065 548.056 790.977 547.528C791.889 546.984 792.929 546.712 794.097 546.712C795.249 546.712 796.281 546.976 797.193 547.504C798.105 548.032 798.801 548.776 799.281 549.736L797.529 550.528C797.209 549.888 796.745 549.392 796.137 549.04C795.529 548.672 794.833 548.488 794.049 548.488C793.265 548.488 792.569 548.68 791.961 549.064C791.369 549.448 790.897 549.984 790.545 550.672C790.209 551.344 790.041 552.12 790.041 553C790.041 553.88 790.209 554.664 790.545 555.352C790.897 556.024 791.377 556.552 791.985 556.936C792.609 557.32 793.313 557.512 794.097 557.512C794.881 557.512 795.577 557.312 796.185 556.912C796.809 556.512 797.281 555.952 797.601 555.232L799.353 556.024C798.873 557.048 798.177 557.848 797.265 558.424C796.353 559 795.313 559.288 794.145 559.288ZM807.082 559.288C805.914 559.288 804.874 559.024 803.962 558.496C803.066 557.952 802.362 557.208 801.85 556.264C801.338 555.32 801.082 554.232 801.082 553C801.082 551.768 801.33 550.68 801.826 549.736C802.338 548.792 803.042 548.056 803.938 547.528C804.85 546.984 805.882 546.712 807.034 546.712C808.218 546.712 809.258 546.984 810.154 547.528C811.066 548.056 811.77 548.792 812.266 549.736C812.778 550.68 813.034 551.768 813.034 553C813.034 554.232 812.778 555.32 812.266 556.264C811.77 557.208 811.074 557.952 810.178 558.496C809.282 559.024 808.25 559.288 807.082 559.288ZM807.082 557.512C807.882 557.512 808.578 557.32 809.17 556.936C809.762 556.552 810.226 556.024 810.562 555.352C810.914 554.68 811.09 553.896 811.09 553C811.09 552.104 810.914 551.32 810.562 550.648C810.226 549.976 809.754 549.448 809.146 549.064C808.538 548.68 807.834 548.488 807.034 548.488C806.25 548.488 805.554 548.68 804.946 549.064C804.354 549.448 803.882 549.976 803.53 550.648C803.194 551.32 803.026 552.104 803.026 553C803.026 553.88 803.194 554.664 803.53 555.352C803.882 556.024 804.362 556.552 804.97 556.936C805.594 557.32 806.298 557.512 807.082 557.512ZM815.7 559V547H817.5L817.596 548.68C817.964 548.04 818.436 547.552 819.012 547.216C819.588 546.88 820.26 546.712 821.028 546.712C821.988 546.712 822.804 546.936 823.476 547.384C824.164 547.832 824.66 548.512 824.964 549.424C825.3 548.544 825.788 547.872 826.428 547.408C827.084 546.944 827.86 546.712 828.756 546.712C830.1 546.712 831.156 547.16 831.924 548.056C832.708 548.952 833.092 550.312 833.076 552.136V559H831.156V552.856C831.156 551.672 831.028 550.768 830.772 550.144C830.532 549.52 830.204 549.096 829.788 548.872C829.372 548.632 828.892 548.512 828.348 548.512C827.404 548.512 826.668 548.888 826.14 549.64C825.612 550.376 825.348 551.424 825.348 552.784V559H823.428V552.856C823.428 551.672 823.3 550.768 823.044 550.144C822.804 549.52 822.468 549.096 822.036 548.872C821.62 548.632 821.14 548.512 820.596 548.512C819.668 548.512 818.94 548.888 818.412 549.64C817.884 550.376 817.62 551.424 817.62 552.784V559H815.7ZM841.37 559.288C840.202 559.288 839.17 559.024 838.274 558.496C837.378 557.952 836.674 557.208 836.162 556.264C835.666 555.32 835.418 554.232 835.418 553C835.418 551.768 835.666 550.68 836.162 549.736C836.674 548.792 837.37 548.056 838.25 547.528C839.146 546.984 840.17 546.712 841.322 546.712C842.442 546.712 843.41 546.992 844.226 547.552C845.042 548.096 845.674 548.864 846.122 549.856C846.57 550.848 846.794 552.016 846.794 553.36H836.882L837.362 552.952C837.362 553.912 837.53 554.736 837.866 555.424C838.218 556.112 838.706 556.64 839.33 557.008C839.954 557.36 840.666 557.536 841.466 557.536C842.314 557.536 843.026 557.336 843.602 556.936C844.194 556.536 844.65 556.008 844.97 555.352L846.626 556.192C846.322 556.816 845.914 557.36 845.402 557.824C844.906 558.288 844.314 558.648 843.626 558.904C842.954 559.16 842.202 559.288 841.37 559.288ZM837.482 552.136L836.978 551.752H845.258L844.754 552.16C844.754 551.392 844.602 550.728 844.298 550.168C843.994 549.608 843.586 549.176 843.074 548.872C842.562 548.568 841.97 548.416 841.298 548.416C840.642 548.416 840.018 548.568 839.426 548.872C838.85 549.176 838.378 549.608 838.01 550.168C837.658 550.712 837.482 551.368 837.482 552.136ZM853.415 559.288C852.535 559.288 851.767 559.16 851.111 558.904C850.455 558.632 849.903 558.28 849.455 557.848C849.023 557.416 848.711 556.944 848.519 556.432L850.199 555.736C850.471 556.28 850.879 556.72 851.423 557.056C851.967 557.392 852.567 557.56 853.223 557.56C853.975 557.56 854.607 557.416 855.119 557.128C855.631 556.824 855.887 556.4 855.887 555.856C855.887 555.36 855.695 554.96 855.311 554.656C854.943 554.352 854.391 554.104 853.655 553.912L852.503 553.6C851.415 553.312 850.567 552.88 849.959 552.304C849.351 551.712 849.047 551.048 849.047 550.312C849.047 549.176 849.415 548.296 850.151 547.672C850.903 547.032 852.015 546.712 853.487 546.712C854.191 546.712 854.831 546.816 855.407 547.024C855.983 547.232 856.479 547.528 856.895 547.912C857.311 548.28 857.615 548.72 857.807 549.232L856.127 549.976C855.919 549.432 855.575 549.04 855.095 548.8C854.615 548.56 854.031 548.44 853.343 548.44C852.607 548.44 852.031 548.6 851.615 548.92C851.199 549.224 850.991 549.656 850.991 550.216C850.991 550.536 851.159 550.84 851.495 551.128C851.847 551.4 852.359 551.624 853.031 551.8L854.231 552.112C855.015 552.304 855.671 552.592 856.199 552.976C856.727 553.344 857.127 553.768 857.399 554.248C857.671 554.728 857.807 555.24 857.807 555.784C857.807 556.504 857.615 557.128 857.231 557.656C856.847 558.184 856.327 558.592 855.671 558.88C855.015 559.152 854.263 559.288 853.415 559.288ZM873.717 559L873.621 557.032V552.664C873.621 551.72 873.517 550.944 873.309 550.336C873.101 549.712 872.773 549.24 872.325 548.92C871.877 548.6 871.293 548.44 870.573 548.44C869.917 548.44 869.349 548.576 868.869 548.848C868.405 549.104 868.021 549.52 867.717 550.096L865.989 549.424C866.293 548.864 866.661 548.384 867.093 547.984C867.525 547.568 868.029 547.256 868.605 547.048C869.181 546.824 869.837 546.712 870.573 546.712C871.693 546.712 872.613 546.936 873.333 547.384C874.069 547.816 874.621 548.464 874.989 549.328C875.357 550.176 875.533 551.232 875.517 552.496L875.493 559H873.717ZM870.117 559.288C868.709 559.288 867.605 558.968 866.805 558.328C866.021 557.672 865.629 556.768 865.629 555.616C865.629 554.4 866.029 553.472 866.829 552.832C867.645 552.176 868.781 551.848 870.237 551.848H873.669V553.456H870.669C869.549 553.456 868.749 553.64 868.269 554.008C867.805 554.376 867.573 554.904 867.573 555.592C867.573 556.216 867.805 556.712 868.269 557.08C868.733 557.432 869.381 557.608 870.213 557.608C870.901 557.608 871.501 557.464 872.013 557.176C872.525 556.872 872.917 556.448 873.189 555.904C873.477 555.344 873.621 554.688 873.621 553.936H874.437C874.437 555.568 874.069 556.872 873.333 557.848C872.597 558.808 871.525 559.288 870.117 559.288ZM878.559 559V547H880.359L880.479 549.208V559H878.559ZM886.983 559V552.856H888.903V559H886.983ZM886.983 552.856C886.983 551.672 886.847 550.768 886.575 550.144C886.303 549.52 885.927 549.096 885.447 548.872C884.967 548.632 884.423 548.512 883.815 548.512C882.759 548.512 881.935 548.888 881.343 549.64C880.767 550.376 880.479 551.424 880.479 552.784H879.543C879.543 551.52 879.727 550.432 880.095 549.52C880.463 548.608 880.999 547.912 881.703 547.432C882.407 546.952 883.255 546.712 884.247 546.712C885.191 546.712 886.007 546.904 886.695 547.288C887.399 547.656 887.943 548.248 888.327 549.064C888.727 549.88 888.919 550.952 888.903 552.28V552.856H886.983ZM905.263 559L905.167 557.032V552.664C905.167 551.72 905.063 550.944 904.855 550.336C904.647 549.712 904.319 549.24 903.871 548.92C903.423 548.6 902.839 548.44 902.119 548.44C901.463 548.44 900.895 548.576 900.415 548.848C899.951 549.104 899.567 549.52 899.263 550.096L897.535 549.424C897.839 548.864 898.207 548.384 898.639 547.984C899.071 547.568 899.575 547.256 900.151 547.048C900.727 546.824 901.383 546.712 902.119 546.712C903.239 546.712 904.159 546.936 904.879 547.384C905.615 547.816 906.167 548.464 906.535 549.328C906.903 550.176 907.079 551.232 907.063 552.496L907.039 559H905.263ZM901.663 559.288C900.255 559.288 899.151 558.968 898.351 558.328C897.567 557.672 897.175 556.768 897.175 555.616C897.175 554.4 897.575 553.472 898.375 552.832C899.191 552.176 900.327 551.848 901.783 551.848H905.215V553.456H902.215C901.095 553.456 900.295 553.64 899.815 554.008C899.351 554.376 899.119 554.904 899.119 555.592C899.119 556.216 899.351 556.712 899.815 557.08C900.279 557.432 900.927 557.608 901.759 557.608C902.447 557.608 903.047 557.464 903.559 557.176C904.071 556.872 904.463 556.448 904.735 555.904C905.023 555.344 905.167 554.688 905.167 553.936H905.983C905.983 555.568 905.615 556.872 904.879 557.848C904.143 558.808 903.071 559.288 901.663 559.288ZM918.986 559L918.89 556.768V542.2H920.81V559H918.986ZM914.834 559.288C913.762 559.288 912.818 559.024 912.002 558.496C911.186 557.968 910.546 557.232 910.082 556.288C909.634 555.328 909.41 554.232 909.41 553C909.41 551.752 909.634 550.656 910.082 549.712C910.546 548.768 911.186 548.032 912.002 547.504C912.818 546.976 913.762 546.712 914.834 546.712C915.842 546.712 916.722 546.976 917.474 547.504C918.242 548.032 918.834 548.768 919.25 549.712C919.666 550.656 919.874 551.752 919.874 553C919.874 554.232 919.666 555.328 919.25 556.288C918.834 557.232 918.242 557.968 917.474 558.496C916.722 559.024 915.842 559.288 914.834 559.288ZM915.266 557.536C915.97 557.536 916.594 557.344 917.138 556.96C917.682 556.576 918.106 556.04 918.41 555.352C918.73 554.664 918.89 553.88 918.89 553C918.89 552.12 918.73 551.336 918.41 550.648C918.106 549.96 917.682 549.424 917.138 549.04C916.594 548.656 915.962 548.464 915.242 548.464C914.49 548.464 913.818 548.656 913.226 549.04C912.65 549.424 912.194 549.96 911.858 550.648C911.522 551.336 911.354 552.12 911.354 553C911.354 553.88 911.522 554.664 911.858 555.352C912.194 556.04 912.658 556.576 913.25 556.96C913.842 557.344 914.514 557.536 915.266 557.536ZM927.84 559L932.736 547H934.752L929.736 559H927.84ZM927.72 559L922.704 547H924.696L929.592 559H927.72ZM941.612 559.288C940.444 559.288 939.412 559.024 938.516 558.496C937.62 557.952 936.916 557.208 936.404 556.264C935.908 555.32 935.66 554.232 935.66 553C935.66 551.768 935.908 550.68 936.404 549.736C936.916 548.792 937.612 548.056 938.492 547.528C939.388 546.984 940.412 546.712 941.564 546.712C942.684 546.712 943.652 546.992 944.468 547.552C945.284 548.096 945.916 548.864 946.364 549.856C946.812 550.848 947.036 552.016 947.036 553.36H937.124L937.604 552.952C937.604 553.912 937.772 554.736 938.108 555.424C938.46 556.112 938.948 556.64 939.572 557.008C940.196 557.36 940.908 557.536 941.708 557.536C942.556 557.536 943.268 557.336 943.844 556.936C944.436 556.536 944.892 556.008 945.212 555.352L946.868 556.192C946.564 556.816 946.156 557.36 945.644 557.824C945.148 558.288 944.556 558.648 943.868 558.904C943.196 559.16 942.444 559.288 941.612 559.288ZM937.724 552.136L937.22 551.752H945.5L944.996 552.16C944.996 551.392 944.844 550.728 944.54 550.168C944.236 549.608 943.828 549.176 943.316 548.872C942.804 548.568 942.212 548.416 941.54 548.416C940.884 548.416 940.26 548.568 939.668 548.872C939.092 549.176 938.62 549.608 938.252 550.168C937.9 550.712 937.724 551.368 937.724 552.136ZM949.457 559V547H951.257L951.377 549.208V559H949.457ZM957.881 559V552.856H959.801V559H957.881ZM957.881 552.856C957.881 551.672 957.745 550.768 957.473 550.144C957.201 549.52 956.825 549.096 956.345 548.872C955.865 548.632 955.321 548.512 954.713 548.512C953.657 548.512 952.833 548.888 952.241 549.64C951.665 550.376 951.377 551.424 951.377 552.784H950.441C950.441 551.52 950.625 550.432 950.993 549.52C951.361 548.608 951.897 547.912 952.601 547.432C953.305 546.952 954.153 546.712 955.145 546.712C956.089 546.712 956.905 546.904 957.593 547.288C958.297 547.656 958.841 548.248 959.225 549.064C959.625 549.88 959.817 550.952 959.801 552.28V552.856H957.881ZM967.352 559.288C966.184 559.288 965.28 558.984 964.64 558.376C964 557.768 963.68 556.912 963.68 555.808V543.256H965.6V555.616C965.6 556.224 965.76 556.696 966.08 557.032C966.416 557.352 966.88 557.512 967.472 557.512C967.664 557.512 967.848 557.488 968.024 557.44C968.216 557.376 968.464 557.232 968.768 557.008L969.512 558.568C969.096 558.84 968.72 559.024 968.384 559.12C968.048 559.232 967.704 559.288 967.352 559.288ZM961.592 548.704V547H969.2V548.704H961.592ZM980.142 559L980.022 556.792V547H981.942V559H980.142ZM971.598 553.144V547H973.518V553.144H971.598ZM973.518 553.144C973.518 554.328 973.654 555.232 973.926 555.856C974.198 556.48 974.574 556.912 975.054 557.152C975.55 557.376 976.102 557.488 976.71 557.488C977.75 557.488 978.558 557.112 979.134 556.36C979.726 555.608 980.022 554.56 980.022 553.216H980.958C980.958 554.48 980.774 555.568 980.406 556.48C980.038 557.392 979.502 558.088 978.798 558.568C978.11 559.048 977.262 559.288 976.254 559.288C975.326 559.288 974.51 559.104 973.806 558.736C973.102 558.352 972.558 557.752 972.174 556.936C971.79 556.104 971.598 555.032 971.598 553.72V553.144H973.518ZM986.349 552.496C986.349 551.2 986.597 550.152 987.093 549.352C987.589 548.536 988.221 547.936 988.989 547.552C989.773 547.152 990.597 546.952 991.461 546.952V548.752C990.757 548.752 990.077 548.872 989.421 549.112C988.781 549.336 988.253 549.712 987.837 550.24C987.421 550.768 987.213 551.488 987.213 552.4L986.349 552.496ZM985.293 559V547H987.213V559H985.293ZM998.659 559.288C997.491 559.288 996.459 559.024 995.563 558.496C994.667 557.952 993.963 557.208 993.451 556.264C992.955 555.32 992.707 554.232 992.707 553C992.707 551.768 992.955 550.68 993.451 549.736C993.963 548.792 994.659 548.056 995.539 547.528C996.435 546.984 997.459 546.712 998.611 546.712C999.731 546.712 1000.7 546.992 1001.51 547.552C1002.33 548.096 1002.96 548.864 1003.41 549.856C1003.86 550.848 1004.08 552.016 1004.08 553.36H994.171L994.651 552.952C994.651 553.912 994.819 554.736 995.155 555.424C995.507 556.112 995.995 556.64 996.619 557.008C997.243 557.36 997.955 557.536 998.755 557.536C999.603 557.536 1000.31 557.336 1000.89 556.936C1001.48 556.536 1001.94 556.008 1002.26 555.352L1003.91 556.192C1003.61 556.816 1003.2 557.36 1002.69 557.824C1002.19 558.288 1001.6 558.648 1000.91 558.904C1000.24 559.16 999.491 559.288 998.659 559.288ZM994.771 552.136L994.267 551.752H1002.55L1002.04 552.16C1002.04 551.392 1001.89 550.728 1001.59 550.168C1001.28 549.608 1000.87 549.176 1000.36 548.872C999.851 548.568 999.259 548.416 998.587 548.416C997.931 548.416 997.307 548.568 996.715 548.872C996.139 549.176 995.667 549.608 995.299 550.168C994.947 550.712 994.771 551.368 994.771 552.136ZM1007.32 559.336C1006.95 559.336 1006.63 559.208 1006.36 558.952C1006.1 558.68 1005.98 558.368 1005.98 558.016C1005.98 557.648 1006.1 557.336 1006.36 557.08C1006.63 556.808 1006.95 556.672 1007.32 556.672C1007.69 556.672 1008 556.808 1008.26 557.08C1008.51 557.336 1008.64 557.648 1008.64 558.016C1008.64 558.368 1008.51 558.68 1008.26 558.952C1008 559.208 1007.69 559.336 1007.32 559.336ZM1011.45 547.432L1011.26 541.816H1013.18L1012.98 547.432H1011.45ZM1014.33 547.432L1014.14 541.816H1016.06L1015.86 547.432H1014.33Z" fill="#545454"/>
<g filter="url(#filter8_d_1_36)">
<g clip-path="url(#clip1_1_36)">
<mask id="mask0_1_36" style="mask-type:luminance" maskUnits="userSpaceOnUse" x="553" y="713" width="208" height="208">
<path d="M553 713H761V921H553V713Z" fill="white"/>
</mask>
<g mask="url(#mask0_1_36)">
<path d="M553 713H761V921H553V713Z" fill="white"/>
</g>
<mask id="mask1_1_36" style="mask-type:luminance" maskUnits="userSpaceOnUse" x="553" y="713" width="208" height="208">
<path d="M553 713H761V921H553V713Z" fill="white"/>
</mask>
<g mask="url(#mask1_1_36)">
<path d="M553 713H761V921H553V713Z" fill="white"/>
</g>
<mask id="mask2_1_36" style="mask-type:luminance" maskUnits="userSpaceOnUse" x="566" y="773" width="182" height="88">
<path d="M566.744 773.41H747.255V860.77H566.744V773.41Z" fill="white"/>
</mask>
<g mask="url(#mask2_1_36)">
<path fill-rule="evenodd" clip-rule="evenodd" d="M715.866 850.821C666.127 861.929 630.881 796.4 586.646 813.727C602.136 810.33 622.519 819.162 647.791 840.223C674.831 859.789 697.522 863.322 715.866 850.821Z" fill="#7ED957"/>
<path fill-rule="evenodd" clip-rule="evenodd" d="M582.544 822.221C608.985 802.155 633.771 851.637 659.983 857.798C633.711 873.729 613.25 815.949 582.544 822.221Z" fill="#7ED957"/>
<path fill-rule="evenodd" clip-rule="evenodd" d="M566.785 817.258C616.013 751.117 694.068 844.226 716.225 813.851C734.318 789.046 688.872 774.771 674.616 798.692C698.915 745.369 770.827 786.567 739.4 828.862C719.704 855.369 686.279 841.437 658.737 823.778C631.509 806.322 598.804 791.276 566.785 817.257L566.785 817.258Z" fill="#004B23"/>
</g>
</g>
</g>
</g>
<defs>
<filter id="filter0_d_1_36" x="-4" y="0" width="1448" height="1104" filterUnits="userSpaceOnUse" color-interpolation-filters="sRGB">
<feFlood flood-opacity="0" result="BackgroundImageFix"/>
<feColorMatrix in="SourceAlpha" type="matrix" values="0 0 0 0 0 0 0 0 0 0 0 0 0 0 0 0 0 0 127 0" result="hardAlpha"/>
<feOffset dy="4"/>
<feGaussianBlur stdDeviation="2"/>
<feComposite in2="hardAlpha" operator="out"/>
<feColorMatrix type="matrix" values="0 0 0 0 0 0 0 0 0 0 0 0 0 0 0 0 0 0 0.25 0"/>
<feBlend mode="normal" in2="BackgroundImageFix" result="effect1_dropShadow_1_36"/>
<feBlend mode="normal" in="SourceGraphic" in2="effect1_dropShadow_1_36" result="shape"/>
</filter>
<filter id="filter1_d_1_36" x="48" y="250" width="304" height="884" filterUnits="userSpaceOnUse" color-interpolation-filters="sRGB">
<feFlood flood-opacity="0" result="BackgroundImageFix"/>
<feColorMatrix in="SourceAlpha" type="matrix" values="0 0 0 0 0 0 0 0 0 0 0 0 0 0 0 0 0 0 127 0" result="hardAlpha"/>
<feOffset dy="4"/>
<feGaussianBlur stdDeviation="2"/>
<feComposite in2="hardAlpha" operator="out"/>
<feColorMatrix type="matrix" values="0 0 0 0 0 0 0 0 0 0 0 0 0 0 0 0 0 0 0.25 0"/>
<feBlend mode="normal" in2="BackgroundImageFix" result="effect1_dropShadow_1_36"/>
<feBlend mode="normal" in="SourceGraphic" in2="effect1_dropShadow_1_36" result="shape"/>
</filter>
<filter id="filter2_d_1_36" x="464" y="651" width="385" height="593" filterUnits="userSpaceOnUse" color-interpolation-filters="sRGB">
<feFlood flood-opacity="0" result="BackgroundImageFix"/>
<feColorMatrix in="SourceAlpha" type="matrix" values="0 0 0 0 0 0 0 0 0 0 0 0 0 0 0 0 0 0 127 0" result="hardAlpha"/>
<feOffset dy="4"/>
<feGaussianBlur stdDeviation="2"/>
<feComposite in2="hardAlpha" operator="out"/>
<feColorMatrix type="matrix" values="0 0 0 0 0 0 0 0 0 0 0 0 0 0 0 0 0 0 0.25 0"/>
<feBlend mode="normal" in2="BackgroundImageFix" result="effect1_dropShadow_1_36"/>
<feBlend mode="normal" in="SourceGraphic" in2="effect1_dropShadow_1_36" result="shape"/>
</filter>
<filter id="filter3_d_1_36" x="943" y="783" width="385" height="504" filterUnits="userSpaceOnUse" color-interpolation-filters="sRGB">
<feFlood flood-opacity="0" result="BackgroundImageFix"/>
<feColorMatrix in="SourceAlpha" type="matrix" values="0 0 0 0 0 0 0 0 0 0 0 0 0 0 0 0 0 0 127 0" result="hardAlpha"/>
<feOffset dy="4"/>
<feGaussianBlur stdDeviation="2"/>
<feComposite in2="hardAlpha" operator="out"/>
<feColorMatrix type="matrix" values="0 0 0 0 0 0 0 0 0 0 0 0 0 0 0 0 0 0 0.25 0"/>
<feBlend mode="normal" in2="BackgroundImageFix" result="effect1_dropShadow_1_36"/>
<feBlend mode="normal" in="SourceGraphic" in2="effect1_dropShadow_1_36" result="shape"/>
</filter>
<filter id="filter4_d_1_36" x="1040.61" y="48.6096" width="683.775" height="387.363" filterUnits="userSpaceOnUse" color-interpolation-filters="sRGB">
<feFlood flood-opacity="0" result="BackgroundImageFix"/>
<feColorMatrix in="SourceAlpha" type="matrix" values="0 0 0 0 0 0 0 0 0 0 0 0 0 0 0 0 0 0 127 0" result="hardAlpha"/>
<feOffset dy="4"/>
<feGaussianBlur stdDeviation="2"/>
<feComposite in2="hardAlpha" operator="out"/>
<feColorMatrix type="matrix" values="0 0 0 0 0 0 0 0 0 0 0 0 0 0 0 0 0 0 0.25 0"/>
<feBlend mode="normal" in2="BackgroundImageFix" result="effect1_dropShadow_1_36"/>
<feBlend mode="normal" in="SourceGraphic" in2="effect1_dropShadow_1_36" result="shape"/>
</filter>
<filter id="filter5_d_1_36" x="49.2825" y="-481.718" width="301.103" height="683.151" filterUnits="userSpaceOnUse" color-interpolation-filters="sRGB">
<feFlood flood-opacity="0" result="BackgroundImageFix"/>
<feColorMatrix in="SourceAlpha" type="matrix" values="0 0 0 0 0 0 0 0 0 0 0 0 0 0 0 0 0 0 127 0" result="hardAlpha"/>
<feOffset dy="4"/>
<feGaussianBlur stdDeviation="2"/>
<feComposite in2="hardAlpha" operator="out"/>
<feColorMatrix type="matrix" values="0 0 0 0 0 0 0 0 0 0 0 0 0 0 0 0 0 0 0.25 0"/>
<feBlend mode="normal" in2="BackgroundImageFix" result="effect1_dropShadow_1_36"/>
<feBlend mode="normal" in="SourceGraphic" in2="effect1_dropShadow_1_36" result="shape"/>
</filter>
<filter id="filter6_d_1_36" x="392.282" y="-354.718" width="301.103" height="683.151" filterUnits="userSpaceOnUse" color-interpolation-filters="sRGB">
<feFlood flood-opacity="0" result="BackgroundImageFix"/>
<feColorMatrix in="SourceAlpha" type="matrix" values="0 0 0 0 0 0 0 0 0 0 0 0 0 0 0 0 0 0 127 0" result="hardAlpha"/>
<feOffset dy="4"/>
<feGaussianBlur stdDeviation="2"/>
<feComposite in2="hardAlpha" operator="out"/>
<feColorMatrix type="matrix" values="0 0 0 0 0 0 0 0 0 0 0 0 0 0 0 0 0 0 0.25 0"/>
<feBlend mode="normal" in2="BackgroundImageFix" result="effect1_dropShadow_1_36"/>
<feBlend mode="normal" in="SourceGraphic" in2="effect1_dropShadow_1_36" result="shape"/>
</filter>
<filter id="filter7_d_1_36" x="725.282" y="-466.718" width="301.103" height="683.151" filterUnits="userSpaceOnUse" color-interpolation-filters="sRGB">
<feFlood flood-opacity="0" result="BackgroundImageFix"/>
<feColorMatrix in="SourceAlpha" type="matrix" values="0 0 0 0 0 0 0 0 0 0 0 0 0 0 0 0 0 0 127 0" result="hardAlpha"/>
<feOffset dy="4"/>
<feGaussianBlur stdDeviation="2"/>
<feComposite in2="hardAlpha" operator="out"/>
<feColorMatrix type="matrix" values="0 0 0 0 0 0 0 0 0 0 0 0 0 0 0 0 0 0 0.25 0"/>
<feBlend mode="normal" in2="BackgroundImageFix" result="effect1_dropShadow_1_36"/>
<feBlend mode="normal" in="SourceGraphic" in2="effect1_dropShadow_1_36" result="shape"/>
</filter>
<filter id="filter8_d_1_36" x="549" y="713" width="216" height="216" filterUnits="userSpaceOnUse" color-interpolation-filters="sRGB">
<feFlood flood-opacity="0" result="BackgroundImageFix"/>
<feColorMatrix in="SourceAlpha" type="matrix" values="0 0 0 0 0 0 0 0 0 0 0 0 0 0 0 0 0 0 127 0" result="hardAlpha"/>
<feOffset dy="4"/>
<feGaussianBlur stdDeviation="2"/>
<feComposite in2="hardAlpha" operator="out"/>
<feColorMatrix type="matrix" values="0 0 0 0 0 0 0 0 0 0 0 0 0 0 0 0 0 0 0.25 0"/>
<feBlend mode="normal" in2="BackgroundImageFix" result="effect1_dropShadow_1_36"/>
<feBlend mode="normal" in="SourceGraphic" in2="effect1_dropShadow_1_36" result="shape"/>
</filter>
<clipPath id="clip0_1_36">
<rect width="1440" height="1024" fill="white"/>
</clipPath>
<clipPath id="clip1_1_36">
<rect x="553" y="713" width="208" height="208" rx="30" fill="white"/>
</clipPath>
</defs>
</svg>
