<svg width="428" height="926" viewBox="0 0 428 926" fill="none" xmlns="http://www.w3.org/2000/svg">
<g clip-path="url(#clip0_1_262)">
<rect width="428" height="926" fill="white"/>
<rect width="428" height="926" fill="#080808"/>
<g filter="url(#filter0_d_1_262)">
<rect x="22" y="800" width="150" height="397" rx="50" fill="#004B23"/>
</g>
<g filter="url(#filter1_d_1_262)">
<rect x="201" y="854" width="150" height="153" rx="50" fill="#AEE683"/>
</g>
<path d="M66.8094 387.84C62.1427 387.84 58.0127 386.767 54.4194 384.62C50.8261 382.427 48.0027 379.44 45.9494 375.66C43.8961 371.833 42.8694 367.447 42.8694 362.5C42.8694 357.553 43.8727 353.19 45.8794 349.41C47.9327 345.583 50.7327 342.597 54.2794 340.45C57.8727 338.257 61.9794 337.16 66.5994 337.16C69.5394 337.16 72.3627 337.697 75.0694 338.77C77.7761 339.797 80.2027 341.267 82.3494 343.18C84.4961 345.047 86.1527 347.217 87.3194 349.69L82.2094 352.28C81.2761 350.32 79.9927 348.617 78.3594 347.17C76.7261 345.723 74.9061 344.603 72.8994 343.81C70.8927 342.97 68.7927 342.55 66.5994 342.55C63.1927 342.55 60.1361 343.413 57.4294 345.14C54.7227 346.82 52.5994 349.153 51.0594 352.14C49.5661 355.127 48.8194 358.58 48.8194 362.5C48.8194 366.42 49.5894 369.897 51.1294 372.93C52.6694 375.963 54.7927 378.343 57.4994 380.07C60.2527 381.75 63.3561 382.59 66.8094 382.59C69.0494 382.59 71.1727 382.147 73.1794 381.26C75.1861 380.327 76.9827 379.067 78.5694 377.48C80.2027 375.893 81.4861 374.073 82.4194 372.02L87.5994 374.61C86.3861 377.177 84.7061 379.463 82.5594 381.47C80.4594 383.477 78.0327 385.04 75.2794 386.16C72.5727 387.28 69.7494 387.84 66.8094 387.84ZM98.0786 368.03C98.0786 364.25 98.802 361.193 100.249 358.86C101.695 356.48 103.539 354.73 105.779 353.61C108.065 352.443 110.469 351.86 112.989 351.86V357.11C110.935 357.11 108.952 357.46 107.039 358.16C105.172 358.813 103.632 359.91 102.419 361.45C101.205 362.99 100.599 365.09 100.599 367.75L98.0786 368.03ZM94.9986 387V352H100.599V387H94.9986ZM134.121 387.84C130.714 387.84 127.681 387.07 125.021 385.53C122.408 383.943 120.354 381.773 118.861 379.02C117.368 376.267 116.621 373.093 116.621 369.5C116.621 365.907 117.344 362.733 118.791 359.98C120.284 357.227 122.338 355.08 124.951 353.54C127.611 351.953 130.621 351.16 133.981 351.16C137.434 351.16 140.468 351.953 143.081 353.54C145.741 355.08 147.794 357.227 149.241 359.98C150.734 362.733 151.481 365.907 151.481 369.5C151.481 373.093 150.734 376.267 149.241 379.02C147.794 381.773 145.764 383.943 143.151 385.53C140.538 387.07 137.528 387.84 134.121 387.84ZM134.121 382.66C136.454 382.66 138.484 382.1 140.211 380.98C141.938 379.86 143.291 378.32 144.271 376.36C145.298 374.4 145.811 372.113 145.811 369.5C145.811 366.887 145.298 364.6 144.271 362.64C143.291 360.68 141.914 359.14 140.141 358.02C138.368 356.9 136.314 356.34 133.981 356.34C131.694 356.34 129.664 356.9 127.891 358.02C126.164 359.14 124.788 360.68 123.761 362.64C122.781 364.6 122.291 366.887 122.291 369.5C122.291 372.067 122.781 374.353 123.761 376.36C124.788 378.32 126.188 379.86 127.961 380.98C129.781 382.1 131.834 382.66 134.121 382.66ZM174.866 387.84C171.413 387.84 168.356 387.07 165.696 385.53C163.036 383.943 160.96 381.773 159.466 379.02C157.973 376.267 157.226 373.093 157.226 369.5C157.226 365.907 157.95 362.733 159.396 359.98C160.89 357.227 162.966 355.08 165.626 353.54C168.286 351.953 171.32 351.16 174.726 351.16C178.086 351.16 181.096 351.93 183.756 353.47C186.416 355.01 188.446 357.18 189.846 359.98L184.736 362.29C183.803 360.423 182.45 358.977 180.676 357.95C178.903 356.877 176.873 356.34 174.586 356.34C172.3 356.34 170.27 356.9 168.496 358.02C166.77 359.14 165.393 360.703 164.366 362.71C163.386 364.67 162.896 366.933 162.896 369.5C162.896 372.067 163.386 374.353 164.366 376.36C165.393 378.32 166.793 379.86 168.566 380.98C170.386 382.1 172.44 382.66 174.726 382.66C177.013 382.66 179.043 382.077 180.816 380.91C182.636 379.743 184.013 378.11 184.946 376.01L190.056 378.32C188.656 381.307 186.626 383.64 183.966 385.32C181.306 387 178.273 387.84 174.866 387.84ZM212.598 387.84C209.191 387.84 206.158 387.07 203.498 385.53C200.884 383.943 198.831 381.773 197.338 379.02C195.844 376.267 195.098 373.093 195.098 369.5C195.098 365.907 195.821 362.733 197.268 359.98C198.761 357.227 200.814 355.08 203.428 353.54C206.088 351.953 209.098 351.16 212.458 351.16C215.911 351.16 218.944 351.953 221.558 353.54C224.218 355.08 226.271 357.227 227.718 359.98C229.211 362.733 229.958 365.907 229.958 369.5C229.958 373.093 229.211 376.267 227.718 379.02C226.271 381.773 224.241 383.943 221.628 385.53C219.014 387.07 216.004 387.84 212.598 387.84ZM212.598 382.66C214.931 382.66 216.961 382.1 218.688 380.98C220.414 379.86 221.768 378.32 222.748 376.36C223.774 374.4 224.288 372.113 224.288 369.5C224.288 366.887 223.774 364.6 222.748 362.64C221.768 360.68 220.391 359.14 218.618 358.02C216.844 356.9 214.791 356.34 212.458 356.34C210.171 356.34 208.141 356.9 206.368 358.02C204.641 359.14 203.264 360.68 202.238 362.64C201.258 364.6 200.768 366.887 200.768 369.5C200.768 372.067 201.258 374.353 202.238 376.36C203.264 378.32 204.664 379.86 206.438 380.98C208.258 382.1 210.311 382.66 212.598 382.66ZM256.638 387V338H271.548C276.168 338 280.228 339.05 283.728 341.15C287.275 343.203 290.051 346.073 292.058 349.76C294.065 353.447 295.068 357.693 295.068 362.5C295.068 367.26 294.065 371.483 292.058 375.17C290.051 378.857 287.275 381.75 283.728 383.85C280.228 385.95 276.168 387 271.548 387H256.638ZM262.588 381.54H271.548C274.021 381.54 276.308 381.073 278.408 380.14C280.508 379.16 282.351 377.783 283.938 376.01C285.571 374.237 286.831 372.207 287.718 369.92C288.651 367.587 289.118 365.113 289.118 362.5C289.118 359.887 288.651 357.437 287.718 355.15C286.831 352.817 285.571 350.763 283.938 348.99C282.351 347.217 280.508 345.863 278.408 344.93C276.308 343.95 274.021 343.46 271.548 343.46H262.588V381.54ZM303.571 387V352H309.171V387H303.571ZM306.441 343.88C305.508 343.88 304.691 343.53 303.991 342.83C303.291 342.13 302.941 341.313 302.941 340.38C302.941 339.4 303.291 338.583 303.991 337.93C304.691 337.23 305.508 336.88 306.441 336.88C307.421 336.88 308.238 337.23 308.891 337.93C309.591 338.583 309.941 339.4 309.941 340.38C309.941 341.313 309.591 342.13 308.891 342.83C308.238 343.53 307.421 343.88 306.441 343.88ZM330.201 387L344.481 352H350.361L335.731 387H330.201ZM329.851 387L315.221 352H321.031L335.311 387H329.851ZM370.368 387.84C366.961 387.84 363.951 387.07 361.338 385.53C358.724 383.943 356.671 381.773 355.178 379.02C353.731 376.267 353.008 373.093 353.008 369.5C353.008 365.907 353.731 362.733 355.178 359.98C356.671 357.227 358.701 355.08 361.268 353.54C363.881 351.953 366.868 351.16 370.228 351.16C373.494 351.16 376.318 351.977 378.698 353.61C381.078 355.197 382.921 357.437 384.228 360.33C385.534 363.223 386.188 366.63 386.188 370.55H357.278L358.678 369.36C358.678 372.16 359.168 374.563 360.148 376.57C361.174 378.577 362.598 380.117 364.418 381.19C366.238 382.217 368.314 382.73 370.648 382.73C373.121 382.73 375.198 382.147 376.878 380.98C378.604 379.813 379.934 378.273 380.868 376.36L385.698 378.81C384.811 380.63 383.621 382.217 382.128 383.57C380.681 384.923 378.954 385.973 376.948 386.72C374.988 387.467 372.794 387.84 370.368 387.84ZM359.028 366.98L357.558 365.86H381.708L380.238 367.05C380.238 364.81 379.794 362.873 378.908 361.24C378.021 359.607 376.831 358.347 375.338 357.46C373.844 356.573 372.118 356.13 370.158 356.13C368.244 356.13 366.424 356.573 364.698 357.46C363.018 358.347 361.641 359.607 360.568 361.24C359.541 362.827 359.028 364.74 359.028 366.98Z" fill="white"/>
<g filter="url(#filter2_d_1_262)">
<g clip-path="url(#clip1_1_262)">
<mask id="mask0_1_262" style="mask-type:luminance" maskUnits="userSpaceOnUse" x="110" y="551" width="208" height="208">
<path d="M110 551H318V759H110V551Z" fill="white"/>
</mask>
<g mask="url(#mask0_1_262)">
<path d="M110 551H318V759H110V551Z" fill="#0D0D0D"/>
</g>
<mask id="mask1_1_262" style="mask-type:luminance" maskUnits="userSpaceOnUse" x="110" y="551" width="208" height="208">
<path d="M110 551H318V759H110V551Z" fill="white"/>
</mask>
<g mask="url(#mask1_1_262)">
<path d="M110 551H318V759H110V551Z" fill="#0D0D0D"/>
</g>
<mask id="mask2_1_262" style="mask-type:luminance" maskUnits="userSpaceOnUse" x="123" y="611" width="182" height="88">
<path d="M123.744 611.41H304.255V698.77H123.744V611.41Z" fill="white"/>
</mask>
<g mask="url(#mask2_1_262)">
<path fill-rule="evenodd" clip-rule="evenodd" d="M272.866 688.821C223.127 699.929 187.881 634.4 143.646 651.727C159.136 648.33 179.519 657.162 204.791 678.223C231.831 697.789 254.522 701.322 272.866 688.821Z" fill="#7ED957"/>
<path fill-rule="evenodd" clip-rule="evenodd" d="M139.544 660.221C165.985 640.155 190.771 689.637 216.983 695.799C190.711 711.729 170.25 653.949 139.544 660.221Z" fill="#7ED957"/>
<path fill-rule="evenodd" clip-rule="evenodd" d="M123.785 655.258C173.013 589.117 251.068 682.226 273.225 651.851C291.318 627.047 245.872 612.771 231.616 636.692C255.915 583.369 327.827 624.567 296.4 666.862C276.704 693.369 243.279 679.437 215.737 661.778C188.509 644.322 155.804 629.276 123.785 655.257L123.785 655.258Z" fill="#004B23"/>
</g>
</g>
</g>
<g filter="url(#filter3_d_1_262)">
<rect x="268.823" y="257.445" width="154.859" height="675" rx="50" transform="rotate(-90.3046 268.823 257.445)" fill="#CCFF33"/>
</g>
<g filter="url(#filter4_d_1_262)">
<rect width="147.248" height="674.998" rx="50" transform="matrix(-0.999988 0.00487657 -0.00123999 -0.999999 181.083 171.998)" fill="#38B000"/>
</g>
<g filter="url(#filter5_d_1_262)">
<rect width="147.248" height="674.998" rx="50" transform="matrix(-0.999988 0.00487657 -0.00123999 -0.999999 349 59.9979)" fill="#006400"/>
</g>
<path d="M60.3302 445.288L60.2022 441.544H61.4822L61.3542 445.288H60.3302ZM62.2502 445.288L62.1222 441.544H63.4022L63.2742 445.288H62.2502ZM70.6232 453.192C69.5459 453.192 68.5912 452.947 67.7592 452.456C66.9272 451.965 66.2765 451.283 65.8072 450.408C65.3379 449.533 65.1032 448.531 65.1032 447.4C65.1032 446.259 65.3325 445.256 65.7912 444.392C66.2605 443.517 66.9059 442.835 67.7272 442.344C68.5485 441.853 69.4979 441.608 70.5752 441.608C71.6525 441.608 72.6019 441.859 73.4232 442.36C74.2552 442.851 74.9005 443.533 75.3592 444.408C75.8179 445.272 76.0472 446.269 76.0472 447.4C76.0472 448.531 75.8179 449.533 75.3592 450.408C74.9005 451.283 74.2605 451.965 73.4392 452.456C72.6285 452.947 71.6899 453.192 70.6232 453.192ZM70.6232 451.96C71.4232 451.96 72.1272 451.768 72.7352 451.384C73.3432 450.989 73.8179 450.451 74.1592 449.768C74.5112 449.085 74.6872 448.296 74.6872 447.4C74.6872 446.515 74.5112 445.731 74.1592 445.048C73.8072 444.355 73.3219 443.816 72.7032 443.432C72.0952 443.037 71.3859 442.84 70.5752 442.84C69.7752 442.84 69.0659 443.037 68.4472 443.432C67.8285 443.816 67.3432 444.355 66.9912 445.048C66.6392 445.731 66.4632 446.515 66.4632 447.4C66.4632 448.296 66.6392 449.085 66.9912 449.768C67.3432 450.451 67.8339 450.989 68.4632 451.384C69.0925 451.768 69.8125 451.96 70.6232 451.96ZM83.3971 453L83.3171 451.528V445H84.5971V453H83.3971ZM77.7011 449.096V445H78.9811V449.096H77.7011ZM78.9811 449.096C78.9811 449.885 79.0717 450.488 79.2531 450.904C79.4344 451.32 79.6851 451.608 80.0051 451.768C80.3357 451.917 80.7037 451.992 81.1091 451.992C81.8024 451.992 82.3411 451.741 82.7251 451.24C83.1197 450.739 83.3171 450.04 83.3171 449.144H83.9411C83.9411 449.987 83.8184 450.712 83.5731 451.32C83.3277 451.928 82.9704 452.392 82.5011 452.712C82.0424 453.032 81.4771 453.192 80.8051 453.192C80.1864 453.192 79.6424 453.069 79.1731 452.824C78.7037 452.568 78.3411 452.168 78.0851 451.624C77.8291 451.069 77.7011 450.355 77.7011 449.48V449.096H78.9811ZM81.4451 443.864L79.3651 441.784H80.9971L82.9171 443.864H81.4451ZM94.3521 453.192C93.5627 453.192 92.8641 453.016 92.2561 452.664C91.6481 452.301 91.1734 451.805 90.8321 451.176C90.4907 450.547 90.3201 449.821 90.3201 449C90.3201 448.179 90.4854 447.453 90.8161 446.824C91.1574 446.195 91.6321 445.704 92.2401 445.352C92.8481 444.989 93.5414 444.808 94.3201 444.808C95.0881 444.808 95.7761 444.984 96.3841 445.336C96.9921 445.688 97.4561 446.184 97.7761 446.824L96.6081 447.352C96.3947 446.925 96.0854 446.595 95.6801 446.36C95.2747 446.115 94.8107 445.992 94.2881 445.992C93.7654 445.992 93.3014 446.12 92.8961 446.376C92.5014 446.632 92.1867 446.989 91.9521 447.448C91.7281 447.896 91.6161 448.413 91.6161 449C91.6161 449.587 91.7281 450.109 91.9521 450.568C92.1867 451.016 92.5067 451.368 92.9121 451.624C93.3281 451.88 93.7974 452.008 94.3201 452.008C94.8427 452.008 95.3067 451.875 95.7121 451.608C96.1281 451.341 96.4427 450.968 96.6561 450.488L97.8241 451.016C97.5041 451.699 97.0401 452.232 96.4321 452.616C95.8241 453 95.1307 453.192 94.3521 453.192ZM99.4403 453V441.8H100.72V453H99.4403ZM105.072 453V448.904H106.352V453H105.072ZM105.072 448.904C105.072 448.115 104.976 447.512 104.784 447.096C104.603 446.68 104.352 446.397 104.032 446.248C103.712 446.088 103.35 446.008 102.944 446.008C102.24 446.008 101.691 446.259 101.296 446.76C100.912 447.251 100.72 447.949 100.72 448.856H100.096C100.096 448.013 100.219 447.288 100.464 446.68C100.72 446.072 101.083 445.608 101.552 445.288C102.022 444.968 102.587 444.808 103.248 444.808C103.867 444.808 104.411 444.936 104.88 445.192C105.35 445.437 105.712 445.832 105.968 446.376C106.235 446.92 106.363 447.635 106.352 448.52V448.904H105.072ZM113.29 453L113.226 451.688V448.776C113.226 448.147 113.157 447.629 113.018 447.224C112.88 446.808 112.661 446.493 112.362 446.28C112.064 446.067 111.674 445.96 111.194 445.96C110.757 445.96 110.378 446.051 110.058 446.232C109.749 446.403 109.493 446.68 109.29 447.064L108.138 446.616C108.341 446.243 108.586 445.923 108.874 445.656C109.162 445.379 109.498 445.171 109.882 445.032C110.266 444.883 110.704 444.808 111.194 444.808C111.941 444.808 112.554 444.957 113.034 445.256C113.525 445.544 113.893 445.976 114.138 446.552C114.384 447.117 114.501 447.821 114.49 448.664L114.474 453H113.29ZM110.89 453.192C109.952 453.192 109.216 452.979 108.682 452.552C108.16 452.115 107.898 451.512 107.898 450.744C107.898 449.933 108.165 449.315 108.698 448.888C109.242 448.451 110 448.232 110.97 448.232H113.258V449.304H111.258C110.512 449.304 109.978 449.427 109.658 449.672C109.349 449.917 109.194 450.269 109.194 450.728C109.194 451.144 109.349 451.475 109.658 451.72C109.968 451.955 110.4 452.072 110.954 452.072C111.413 452.072 111.813 451.976 112.154 451.784C112.496 451.581 112.757 451.299 112.938 450.936C113.13 450.563 113.226 450.125 113.226 449.624H113.77C113.77 450.712 113.525 451.581 113.034 452.232C112.544 452.872 111.829 453.192 110.89 453.192ZM122.374 456.2V446.488L122.438 445H123.654V456.2H122.374ZM119.67 453.192C118.956 453.192 118.326 453.016 117.782 452.664C117.238 452.312 116.812 451.821 116.502 451.192C116.204 450.552 116.054 449.821 116.054 449C116.054 448.168 116.204 447.437 116.502 446.808C116.812 446.179 117.238 445.688 117.782 445.336C118.326 444.984 118.956 444.808 119.67 444.808C120.342 444.808 120.929 444.984 121.43 445.336C121.942 445.688 122.337 446.179 122.614 446.808C122.892 447.437 123.03 448.168 123.03 449C123.03 449.821 122.892 450.552 122.614 451.192C122.337 451.821 121.942 452.312 121.43 452.664C120.929 453.016 120.342 453.192 119.67 453.192ZM119.958 452.024C120.428 452.024 120.844 451.896 121.206 451.64C121.569 451.384 121.852 451.027 122.054 450.568C122.268 450.109 122.374 449.587 122.374 449C122.374 448.413 122.268 447.891 122.054 447.432C121.852 446.973 121.569 446.616 121.206 446.36C120.844 446.104 120.422 445.976 119.942 445.976C119.441 445.976 118.993 446.104 118.598 446.36C118.214 446.616 117.91 446.973 117.686 447.432C117.462 447.891 117.35 448.413 117.35 449C117.35 449.587 117.462 450.109 117.686 450.568C117.91 451.027 118.22 451.384 118.614 451.64C119.009 451.896 119.457 452.024 119.958 452.024ZM131.256 453L131.176 451.528V445H132.456V453H131.256ZM125.56 449.096V445H126.84V449.096H125.56ZM126.84 449.096C126.84 449.885 126.931 450.488 127.112 450.904C127.294 451.32 127.544 451.608 127.864 451.768C128.195 451.917 128.563 451.992 128.968 451.992C129.662 451.992 130.2 451.741 130.584 451.24C130.979 450.739 131.176 450.04 131.176 449.144H131.8C131.8 449.987 131.678 450.712 131.432 451.32C131.187 451.928 130.83 452.392 130.36 452.712C129.902 453.032 129.336 453.192 128.664 453.192C128.046 453.192 127.502 453.069 127.032 452.824C126.563 452.568 126.2 452.168 125.944 451.624C125.688 451.069 125.56 450.355 125.56 449.48V449.096H126.84ZM138.194 453.192C137.416 453.192 136.728 453.016 136.13 452.664C135.533 452.301 135.064 451.805 134.722 451.176C134.392 450.547 134.226 449.821 134.226 449C134.226 448.179 134.392 447.453 134.722 446.824C135.064 446.195 135.528 445.704 136.114 445.352C136.712 444.989 137.394 444.808 138.162 444.808C138.909 444.808 139.554 444.995 140.098 445.368C140.642 445.731 141.064 446.243 141.362 446.904C141.661 447.565 141.81 448.344 141.81 449.24H135.202L135.522 448.968C135.522 449.608 135.634 450.157 135.858 450.616C136.093 451.075 136.418 451.427 136.834 451.672C137.25 451.907 137.725 452.024 138.258 452.024C138.824 452.024 139.298 451.891 139.682 451.624C140.077 451.357 140.381 451.005 140.594 450.568L141.698 451.128C141.496 451.544 141.224 451.907 140.882 452.216C140.552 452.525 140.157 452.765 139.698 452.936C139.25 453.107 138.749 453.192 138.194 453.192ZM135.602 448.424L135.266 448.168H140.786L140.45 448.44C140.45 447.928 140.349 447.485 140.146 447.112C139.944 446.739 139.672 446.451 139.33 446.248C138.989 446.045 138.594 445.944 138.146 445.944C137.709 445.944 137.293 446.045 136.898 446.248C136.514 446.451 136.2 446.739 135.954 447.112C135.72 447.475 135.602 447.912 135.602 448.424ZM147.458 456.2V445H148.658L148.738 446.472V456.2H147.458ZM151.442 453.192C150.77 453.192 150.178 453.016 149.666 452.664C149.164 452.312 148.775 451.821 148.498 451.192C148.22 450.552 148.082 449.821 148.082 449C148.082 448.168 148.22 447.437 148.498 446.808C148.775 446.179 149.164 445.688 149.666 445.336C150.178 444.984 150.77 444.808 151.442 444.808C152.156 444.808 152.786 444.984 153.33 445.336C153.874 445.688 154.295 446.179 154.594 446.808C154.903 447.437 155.058 448.168 155.058 449C155.058 449.821 154.903 450.552 154.594 451.192C154.295 451.821 153.874 452.312 153.33 452.664C152.786 453.016 152.156 453.192 151.442 453.192ZM151.154 452.024C151.655 452.024 152.098 451.896 152.482 451.64C152.876 451.384 153.186 451.027 153.41 450.568C153.644 450.109 153.762 449.587 153.762 449C153.762 448.413 153.65 447.891 153.426 447.432C153.212 446.973 152.908 446.616 152.514 446.36C152.119 446.104 151.671 445.976 151.17 445.976C150.7 445.976 150.279 446.104 149.906 446.36C149.543 446.616 149.255 446.973 149.042 447.432C148.839 447.891 148.738 448.413 148.738 449C148.738 449.587 148.839 450.109 149.042 450.568C149.255 451.027 149.543 451.384 149.906 451.64C150.268 451.896 150.684 452.024 151.154 452.024ZM156.831 453V441.8H158.111V453H156.831ZM163.883 453.192C163.104 453.192 162.411 453.016 161.803 452.664C161.205 452.301 160.736 451.805 160.395 451.176C160.053 450.547 159.883 449.821 159.883 449C159.883 448.179 160.048 447.453 160.379 446.824C160.72 446.195 161.189 445.704 161.787 445.352C162.395 444.989 163.083 444.808 163.851 444.808C164.64 444.808 165.333 444.989 165.931 445.352C166.539 445.704 167.008 446.195 167.339 446.824C167.68 447.453 167.851 448.179 167.851 449C167.851 449.821 167.68 450.547 167.339 451.176C167.008 451.805 166.544 452.301 165.947 452.664C165.349 453.016 164.661 453.192 163.883 453.192ZM163.883 452.008C164.416 452.008 164.88 451.88 165.275 451.624C165.669 451.368 165.979 451.016 166.203 450.568C166.437 450.12 166.555 449.597 166.555 449C166.555 448.403 166.437 447.88 166.203 447.432C165.979 446.984 165.664 446.632 165.259 446.376C164.853 446.12 164.384 445.992 163.851 445.992C163.328 445.992 162.864 446.12 162.459 446.376C162.064 446.632 161.749 446.984 161.515 447.432C161.291 447.88 161.179 448.403 161.179 449C161.179 449.587 161.291 450.109 161.515 450.568C161.749 451.016 162.069 451.368 162.475 451.624C162.891 451.88 163.36 452.008 163.883 452.008ZM169.628 453V445H170.828L170.908 446.472V453H169.628ZM175.244 453V448.904H176.524V453H175.244ZM175.244 448.904C175.244 448.115 175.153 447.512 174.972 447.096C174.79 446.68 174.54 446.397 174.22 446.248C173.9 446.088 173.537 446.008 173.132 446.008C172.428 446.008 171.878 446.259 171.484 446.76C171.1 447.251 170.908 447.949 170.908 448.856H170.284C170.284 448.013 170.406 447.288 170.652 446.68C170.897 446.072 171.254 445.608 171.724 445.288C172.193 444.968 172.758 444.808 173.42 444.808C174.049 444.808 174.593 444.936 175.052 445.192C175.521 445.437 175.884 445.832 176.14 446.376C176.406 446.92 176.534 447.635 176.524 448.52V448.904H175.244ZM181.75 456.392C181.238 456.392 180.768 456.339 180.342 456.232C179.926 456.136 179.568 456.024 179.27 455.896C178.982 455.779 178.774 455.677 178.646 455.592L179.126 454.552C179.264 454.627 179.462 454.717 179.718 454.824C179.974 454.941 180.272 455.037 180.614 455.112C180.966 455.197 181.339 455.24 181.734 455.24C182.246 455.24 182.704 455.133 183.11 454.92C183.526 454.717 183.846 454.392 184.07 453.944C184.304 453.507 184.422 452.941 184.422 452.248V445H185.702V452.232C185.702 453.149 185.531 453.917 185.19 454.536C184.848 455.155 184.379 455.619 183.782 455.928C183.184 456.237 182.507 456.392 181.75 456.392ZM181.702 452.936C180.987 452.936 180.358 452.765 179.814 452.424C179.27 452.083 178.843 451.608 178.534 451C178.235 450.381 178.086 449.677 178.086 448.888C178.086 448.077 178.235 447.368 178.534 446.76C178.843 446.141 179.27 445.661 179.814 445.32C180.358 444.979 180.987 444.808 181.702 444.808C182.374 444.808 182.96 444.979 183.462 445.32C183.963 445.661 184.352 446.141 184.63 446.76C184.918 447.368 185.062 448.077 185.062 448.888C185.062 449.688 184.918 450.392 184.63 451C184.352 451.608 183.963 452.083 183.462 452.424C182.96 452.765 182.374 452.936 181.702 452.936ZM182.006 451.832C182.475 451.832 182.891 451.704 183.254 451.448C183.616 451.192 183.899 450.845 184.102 450.408C184.304 449.96 184.406 449.443 184.406 448.856C184.406 448.291 184.299 447.789 184.086 447.352C183.883 446.904 183.6 446.557 183.238 446.312C182.886 446.056 182.47 445.928 181.99 445.928C181.488 445.928 181.04 446.056 180.646 446.312C180.262 446.557 179.958 446.904 179.734 447.352C179.52 447.789 179.414 448.291 179.414 448.856C179.414 449.443 179.526 449.96 179.75 450.408C179.974 450.845 180.278 451.192 180.662 451.448C181.056 451.704 181.504 451.832 182.006 451.832ZM191.444 453.192C190.666 453.192 189.978 453.016 189.38 452.664C188.783 452.301 188.314 451.805 187.972 451.176C187.642 450.547 187.476 449.821 187.476 449C187.476 448.179 187.642 447.453 187.972 446.824C188.314 446.195 188.778 445.704 189.364 445.352C189.962 444.989 190.644 444.808 191.412 444.808C192.159 444.808 192.804 444.995 193.348 445.368C193.892 445.731 194.314 446.243 194.612 446.904C194.911 447.565 195.06 448.344 195.06 449.24H188.452L188.772 448.968C188.772 449.608 188.884 450.157 189.108 450.616C189.343 451.075 189.668 451.427 190.084 451.672C190.5 451.907 190.975 452.024 191.508 452.024C192.074 452.024 192.548 451.891 192.932 451.624C193.327 451.357 193.631 451.005 193.844 450.568L194.948 451.128C194.746 451.544 194.474 451.907 194.132 452.216C193.802 452.525 193.407 452.765 192.948 452.936C192.5 453.107 191.999 453.192 191.444 453.192ZM188.852 448.424L188.516 448.168H194.036L193.7 448.44C193.7 447.928 193.599 447.485 193.396 447.112C193.194 446.739 192.922 446.451 192.58 446.248C192.239 446.045 191.844 445.944 191.396 445.944C190.959 445.944 190.543 446.045 190.148 446.248C189.764 446.451 189.45 446.739 189.204 447.112C188.97 447.475 188.852 447.912 188.852 448.424ZM190.34 443.864L192.212 441.8H193.86L191.796 443.864H190.34ZM200.194 453.192C199.416 453.192 198.728 453.016 198.13 452.664C197.533 452.301 197.064 451.805 196.722 451.176C196.392 450.547 196.226 449.821 196.226 449C196.226 448.179 196.392 447.453 196.722 446.824C197.064 446.195 197.528 445.704 198.114 445.352C198.712 444.989 199.394 444.808 200.162 444.808C200.909 444.808 201.554 444.995 202.098 445.368C202.642 445.731 203.064 446.243 203.362 446.904C203.661 447.565 203.81 448.344 203.81 449.24H197.202L197.522 448.968C197.522 449.608 197.634 450.157 197.858 450.616C198.093 451.075 198.418 451.427 198.834 451.672C199.25 451.907 199.725 452.024 200.258 452.024C200.824 452.024 201.298 451.891 201.682 451.624C202.077 451.357 202.381 451.005 202.594 450.568L203.698 451.128C203.496 451.544 203.224 451.907 202.882 452.216C202.552 452.525 202.157 452.765 201.698 452.936C201.25 453.107 200.749 453.192 200.194 453.192ZM197.602 448.424L197.266 448.168H202.786L202.45 448.44C202.45 447.928 202.349 447.485 202.146 447.112C201.944 446.739 201.672 446.451 201.33 446.248C200.989 446.045 200.594 445.944 200.146 445.944C199.709 445.944 199.293 446.045 198.898 446.248C198.514 446.451 198.2 446.739 197.954 447.112C197.72 447.475 197.602 447.912 197.602 448.424ZM215.298 453L215.234 451.512V441.8H216.514V453H215.298ZM212.53 453.192C211.815 453.192 211.186 453.016 210.642 452.664C210.098 452.312 209.671 451.821 209.362 451.192C209.063 450.552 208.914 449.821 208.914 449C208.914 448.168 209.063 447.437 209.362 446.808C209.671 446.179 210.098 445.688 210.642 445.336C211.186 444.984 211.815 444.808 212.53 444.808C213.202 444.808 213.788 444.984 214.29 445.336C214.802 445.688 215.196 446.179 215.474 446.808C215.751 447.437 215.89 448.168 215.89 449C215.89 449.821 215.751 450.552 215.474 451.192C215.196 451.821 214.802 452.312 214.29 452.664C213.788 453.016 213.202 453.192 212.53 453.192ZM212.818 452.024C213.287 452.024 213.703 451.896 214.066 451.64C214.428 451.384 214.711 451.027 214.914 450.568C215.127 450.109 215.234 449.587 215.234 449C215.234 448.413 215.127 447.891 214.914 447.432C214.711 446.973 214.428 446.616 214.066 446.36C213.703 446.104 213.282 445.976 212.802 445.976C212.3 445.976 211.852 446.104 211.458 446.36C211.074 446.616 210.77 446.973 210.546 447.432C210.322 447.891 210.21 448.413 210.21 449C210.21 449.587 210.322 450.109 210.546 450.568C210.77 451.027 211.079 451.384 211.474 451.64C211.868 451.896 212.316 452.024 212.818 452.024ZM222.257 453.192C221.478 453.192 220.79 453.016 220.193 452.664C219.595 452.301 219.126 451.805 218.785 451.176C218.454 450.547 218.289 449.821 218.289 449C218.289 448.179 218.454 447.453 218.785 446.824C219.126 446.195 219.59 445.704 220.177 445.352C220.774 444.989 221.457 444.808 222.225 444.808C222.971 444.808 223.617 444.995 224.161 445.368C224.705 445.731 225.126 446.243 225.425 446.904C225.723 447.565 225.873 448.344 225.873 449.24H219.265L219.585 448.968C219.585 449.608 219.697 450.157 219.921 450.616C220.155 451.075 220.481 451.427 220.897 451.672C221.313 451.907 221.787 452.024 222.321 452.024C222.886 452.024 223.361 451.891 223.745 451.624C224.139 451.357 224.443 451.005 224.657 450.568L225.761 451.128C225.558 451.544 225.286 451.907 224.945 452.216C224.614 452.525 224.219 452.765 223.761 452.936C223.313 453.107 222.811 453.192 222.257 453.192ZM219.665 448.424L219.329 448.168H224.849L224.513 448.44C224.513 447.928 224.411 447.485 224.209 447.112C224.006 446.739 223.734 446.451 223.393 446.248C223.051 446.045 222.657 445.944 222.209 445.944C221.771 445.944 221.355 446.045 220.961 446.248C220.577 446.451 220.262 446.739 220.017 447.112C219.782 447.475 219.665 447.912 219.665 448.424ZM229.732 453L232.996 445H234.34L230.996 453H229.732ZM229.652 453L226.308 445H227.636L230.9 453H229.652ZM235.677 453V445H236.957V453H235.677ZM236.333 443.144C236.119 443.144 235.933 443.064 235.773 442.904C235.613 442.744 235.533 442.557 235.533 442.344C235.533 442.12 235.613 441.933 235.773 441.784C235.933 441.624 236.119 441.544 236.333 441.544C236.557 441.544 236.743 441.624 236.893 441.784C237.053 441.933 237.133 442.12 237.133 442.344C237.133 442.557 237.053 442.744 236.893 442.904C236.743 443.064 236.557 443.144 236.333 443.144ZM242.819 453.192C242.041 453.192 241.353 453.016 240.755 452.664C240.158 452.301 239.689 451.805 239.347 451.176C239.017 450.547 238.851 449.821 238.851 449C238.851 448.179 239.017 447.453 239.347 446.824C239.689 446.195 240.153 445.704 240.739 445.352C241.337 444.989 242.019 444.808 242.787 444.808C243.534 444.808 244.179 444.995 244.723 445.368C245.267 445.731 245.689 446.243 245.987 446.904C246.286 447.565 246.435 448.344 246.435 449.24H239.827L240.147 448.968C240.147 449.608 240.259 450.157 240.483 450.616C240.718 451.075 241.043 451.427 241.459 451.672C241.875 451.907 242.35 452.024 242.883 452.024C243.449 452.024 243.923 451.891 244.307 451.624C244.702 451.357 245.006 451.005 245.219 450.568L246.323 451.128C246.121 451.544 245.849 451.907 245.507 452.216C245.177 452.525 244.782 452.765 244.323 452.936C243.875 453.107 243.374 453.192 242.819 453.192ZM240.227 448.424L239.891 448.168H245.411L245.075 448.44C245.075 447.928 244.974 447.485 244.771 447.112C244.569 446.739 244.297 446.451 243.955 446.248C243.614 446.045 243.219 445.944 242.771 445.944C242.334 445.944 241.918 446.045 241.523 446.248C241.139 446.451 240.825 446.739 240.579 447.112C240.345 447.475 240.227 447.912 240.227 448.424ZM248.05 453V445H249.25L249.33 446.472V453H248.05ZM253.666 453V448.904H254.946V453H253.666ZM253.666 448.904C253.666 448.115 253.575 447.512 253.394 447.096C253.212 446.68 252.962 446.397 252.642 446.248C252.322 446.088 251.959 446.008 251.554 446.008C250.85 446.008 250.3 446.259 249.906 446.76C249.522 447.251 249.33 447.949 249.33 448.856H248.706C248.706 448.013 248.828 447.288 249.074 446.68C249.319 446.072 249.676 445.608 250.146 445.288C250.615 444.968 251.18 444.808 251.842 444.808C252.471 444.808 253.015 444.936 253.474 445.192C253.943 445.437 254.306 445.832 254.562 446.376C254.828 446.92 254.956 447.635 254.946 448.52V448.904H253.666ZM259.98 453.192C259.201 453.192 258.598 452.989 258.172 452.584C257.745 452.179 257.532 451.608 257.532 450.872V442.504H258.812V450.744C258.812 451.149 258.918 451.464 259.132 451.688C259.356 451.901 259.665 452.008 260.06 452.008C260.188 452.008 260.31 451.992 260.428 451.96C260.556 451.917 260.721 451.821 260.924 451.672L261.42 452.712C261.142 452.893 260.892 453.016 260.668 453.08C260.444 453.155 260.214 453.192 259.98 453.192ZM256.14 446.136V445H261.212V446.136H256.14ZM272.46 453L272.38 451.528V445H273.66V453H272.46ZM266.764 449.096V445H268.044V449.096H266.764ZM268.044 449.096C268.044 449.885 268.134 450.488 268.316 450.904C268.497 451.32 268.748 451.608 269.068 451.768C269.398 451.917 269.766 451.992 270.172 451.992C270.865 451.992 271.404 451.741 271.788 451.24C272.182 450.739 272.38 450.04 272.38 449.144H273.004C273.004 449.987 272.881 450.712 272.636 451.32C272.39 451.928 272.033 452.392 271.564 452.712C271.105 453.032 270.54 453.192 269.868 453.192C269.249 453.192 268.705 453.069 268.236 452.824C267.766 452.568 267.404 452.168 267.148 451.624C266.892 451.069 266.764 450.355 266.764 449.48V449.096H268.044ZM275.893 453V445H277.093L277.173 446.472V453H275.893ZM281.509 453V448.904H282.789V453H281.509ZM281.509 448.904C281.509 448.115 281.419 447.512 281.237 447.096C281.056 446.68 280.805 446.397 280.485 446.248C280.165 446.088 279.803 446.008 279.397 446.008C278.693 446.008 278.144 446.259 277.749 446.76C277.365 447.251 277.173 447.949 277.173 448.856H276.549C276.549 448.013 276.672 447.288 276.917 446.68C277.163 446.072 277.52 445.608 277.989 445.288C278.459 444.968 279.024 444.808 279.685 444.808C280.315 444.808 280.859 444.936 281.317 445.192C281.787 445.437 282.149 445.832 282.405 446.376C282.672 446.92 282.8 447.635 282.789 448.52V448.904H281.509ZM288.319 453.192C287.541 453.192 286.853 453.016 286.255 452.664C285.658 452.301 285.189 451.805 284.847 451.176C284.517 450.547 284.351 449.821 284.351 449C284.351 448.179 284.517 447.453 284.847 446.824C285.189 446.195 285.653 445.704 286.239 445.352C286.837 444.989 287.519 444.808 288.287 444.808C289.034 444.808 289.679 444.995 290.223 445.368C290.767 445.731 291.189 446.243 291.487 446.904C291.786 447.565 291.935 448.344 291.935 449.24H285.327L285.647 448.968C285.647 449.608 285.759 450.157 285.983 450.616C286.218 451.075 286.543 451.427 286.959 451.672C287.375 451.907 287.85 452.024 288.383 452.024C288.949 452.024 289.423 451.891 289.807 451.624C290.202 451.357 290.506 451.005 290.719 450.568L291.823 451.128C291.621 451.544 291.349 451.907 291.007 452.216C290.677 452.525 290.282 452.765 289.823 452.936C289.375 453.107 288.874 453.192 288.319 453.192ZM285.727 448.424L285.391 448.168H290.911L290.575 448.44C290.575 447.928 290.474 447.485 290.271 447.112C290.069 446.739 289.797 446.451 289.455 446.248C289.114 446.045 288.719 445.944 288.271 445.944C287.834 445.944 287.418 446.045 287.023 446.248C286.639 446.451 286.325 446.739 286.079 447.112C285.845 447.475 285.727 447.912 285.727 448.424ZM302.431 453L302.367 451.688V448.776C302.367 448.147 302.297 447.629 302.159 447.224C302.02 446.808 301.801 446.493 301.503 446.28C301.204 446.067 300.815 445.96 300.335 445.96C299.897 445.96 299.519 446.051 299.199 446.232C298.889 446.403 298.633 446.68 298.431 447.064L297.279 446.616C297.481 446.243 297.727 445.923 298.015 445.656C298.303 445.379 298.639 445.171 299.023 445.032C299.407 444.883 299.844 444.808 300.335 444.808C301.081 444.808 301.695 444.957 302.175 445.256C302.665 445.544 303.033 445.976 303.279 446.552C303.524 447.117 303.641 447.821 303.631 448.664L303.615 453H302.431ZM300.031 453.192C299.092 453.192 298.356 452.979 297.823 452.552C297.3 452.115 297.039 451.512 297.039 450.744C297.039 449.933 297.305 449.315 297.839 448.888C298.383 448.451 299.14 448.232 300.111 448.232H302.399V449.304H300.399C299.652 449.304 299.119 449.427 298.799 449.672C298.489 449.917 298.335 450.269 298.335 450.728C298.335 451.144 298.489 451.475 298.799 451.72C299.108 451.955 299.54 452.072 300.095 452.072C300.553 452.072 300.953 451.976 301.295 451.784C301.636 451.581 301.897 451.299 302.079 450.936C302.271 450.563 302.367 450.125 302.367 449.624H302.911C302.911 450.712 302.665 451.581 302.175 452.232C301.684 452.872 300.969 453.192 300.031 453.192ZM307.982 453L311.246 445H312.59L309.246 453H307.982ZM307.902 453L304.558 445H305.886L309.15 453H307.902ZM317.163 453.192C316.384 453.192 315.696 453.016 315.099 452.664C314.502 452.301 314.032 451.805 313.691 451.176C313.36 450.547 313.195 449.821 313.195 449C313.195 448.179 313.36 447.453 313.691 446.824C314.032 446.195 314.496 445.704 315.083 445.352C315.68 444.989 316.363 444.808 317.131 444.808C317.878 444.808 318.523 444.995 319.067 445.368C319.611 445.731 320.032 446.243 320.331 446.904C320.63 447.565 320.779 448.344 320.779 449.24H314.171L314.491 448.968C314.491 449.608 314.603 450.157 314.827 450.616C315.062 451.075 315.387 451.427 315.803 451.672C316.219 451.907 316.694 452.024 317.227 452.024C317.792 452.024 318.267 451.891 318.651 451.624C319.046 451.357 319.35 451.005 319.563 450.568L320.667 451.128C320.464 451.544 320.192 451.907 319.851 452.216C319.52 452.525 319.126 452.765 318.667 452.936C318.219 453.107 317.718 453.192 317.163 453.192ZM314.571 448.424L314.235 448.168H319.755L319.419 448.44C319.419 447.928 319.318 447.485 319.115 447.112C318.912 446.739 318.64 446.451 318.299 446.248C317.958 446.045 317.563 445.944 317.115 445.944C316.678 445.944 316.262 446.045 315.867 446.248C315.483 446.451 315.168 446.739 314.923 447.112C314.688 447.475 314.571 447.912 314.571 448.424ZM322.393 453V445H323.593L323.673 446.472V453H322.393ZM328.009 453V448.904H329.289V453H328.009ZM328.009 448.904C328.009 448.115 327.919 447.512 327.737 447.096C327.556 446.68 327.305 446.397 326.985 446.248C326.665 446.088 326.303 446.008 325.897 446.008C325.193 446.008 324.644 446.259 324.249 446.76C323.865 447.251 323.673 447.949 323.673 448.856H323.049C323.049 448.013 323.172 447.288 323.417 446.68C323.663 446.072 324.02 445.608 324.489 445.288C324.959 444.968 325.524 444.808 326.185 444.808C326.815 444.808 327.359 444.936 327.817 445.192C328.287 445.437 328.649 445.832 328.905 446.376C329.172 446.92 329.3 447.635 329.289 448.52V448.904H328.009ZM334.323 453.192C333.545 453.192 332.942 452.989 332.515 452.584C332.089 452.179 331.875 451.608 331.875 450.872V442.504H333.155V450.744C333.155 451.149 333.262 451.464 333.475 451.688C333.699 451.901 334.009 452.008 334.403 452.008C334.531 452.008 334.654 451.992 334.771 451.96C334.899 451.917 335.065 451.821 335.267 451.672L335.763 452.712C335.486 452.893 335.235 453.016 335.011 453.08C334.787 453.155 334.558 453.192 334.323 453.192ZM330.483 446.136V445H335.555V446.136H330.483ZM342.85 453L342.77 451.528V445H344.05V453H342.85ZM337.154 449.096V445H338.434V449.096H337.154ZM338.434 449.096C338.434 449.885 338.525 450.488 338.706 450.904C338.888 451.32 339.138 451.608 339.458 451.768C339.789 451.917 340.157 451.992 340.562 451.992C341.256 451.992 341.794 451.741 342.178 451.24C342.573 450.739 342.77 450.04 342.77 449.144H343.394C343.394 449.987 343.272 450.712 343.026 451.32C342.781 451.928 342.424 452.392 341.954 452.712C341.496 453.032 340.93 453.192 340.258 453.192C339.64 453.192 339.096 453.069 338.626 452.824C338.157 452.568 337.794 452.168 337.538 451.624C337.282 451.069 337.154 450.355 337.154 449.48V449.096H338.434ZM346.988 448.664C346.988 447.8 347.153 447.101 347.484 446.568C347.815 446.024 348.236 445.624 348.748 445.368C349.271 445.101 349.82 444.968 350.396 444.968V446.168C349.927 446.168 349.473 446.248 349.036 446.408C348.609 446.557 348.257 446.808 347.98 447.16C347.703 447.512 347.564 447.992 347.564 448.6L346.988 448.664ZM346.284 453V445H347.564V453H346.284ZM355.194 453.192C354.416 453.192 353.728 453.016 353.13 452.664C352.533 452.301 352.064 451.805 351.722 451.176C351.392 450.547 351.226 449.821 351.226 449C351.226 448.179 351.392 447.453 351.722 446.824C352.064 446.195 352.528 445.704 353.114 445.352C353.712 444.989 354.394 444.808 355.162 444.808C355.909 444.808 356.554 444.995 357.098 445.368C357.642 445.731 358.064 446.243 358.362 446.904C358.661 447.565 358.81 448.344 358.81 449.24H352.202L352.522 448.968C352.522 449.608 352.634 450.157 352.858 450.616C353.093 451.075 353.418 451.427 353.834 451.672C354.25 451.907 354.725 452.024 355.258 452.024C355.824 452.024 356.298 451.891 356.682 451.624C357.077 451.357 357.381 451.005 357.594 450.568L358.698 451.128C358.496 451.544 358.224 451.907 357.882 452.216C357.552 452.525 357.157 452.765 356.698 452.936C356.25 453.107 355.749 453.192 355.194 453.192ZM352.602 448.424L352.266 448.168H357.786L357.45 448.44C357.45 447.928 357.349 447.485 357.146 447.112C356.944 446.739 356.672 446.451 356.33 446.248C355.989 446.045 355.594 445.944 355.146 445.944C354.709 445.944 354.293 446.045 353.898 446.248C353.514 446.451 353.2 446.739 352.954 447.112C352.72 447.475 352.602 447.912 352.602 448.424ZM360.969 453.224C360.723 453.224 360.51 453.139 360.329 452.968C360.158 452.787 360.073 452.579 360.073 452.344C360.073 452.099 360.158 451.891 360.329 451.72C360.51 451.539 360.723 451.448 360.969 451.448C361.214 451.448 361.422 451.539 361.593 451.72C361.763 451.891 361.849 452.099 361.849 452.344C361.849 452.579 361.763 452.787 361.593 452.968C361.422 453.139 361.214 453.224 360.969 453.224ZM363.721 445.288L363.593 441.544H364.873L364.745 445.288H363.721ZM365.641 445.288L365.513 441.544H366.793L366.665 445.288H365.641Z" fill="#AEAEAE"/>
</g>
<defs>
<filter id="filter0_d_1_262" x="18" y="800" width="158" height="405" filterUnits="userSpaceOnUse" color-interpolation-filters="sRGB">
<feFlood flood-opacity="0" result="BackgroundImageFix"/>
<feColorMatrix in="SourceAlpha" type="matrix" values="0 0 0 0 0 0 0 0 0 0 0 0 0 0 0 0 0 0 127 0" result="hardAlpha"/>
<feOffset dy="4"/>
<feGaussianBlur stdDeviation="2"/>
<feComposite in2="hardAlpha" operator="out"/>
<feColorMatrix type="matrix" values="0 0 0 0 0 0 0 0 0 0 0 0 0 0 0 0 0 0 0.25 0"/>
<feBlend mode="normal" in2="BackgroundImageFix" result="effect1_dropShadow_1_262"/>
<feBlend mode="normal" in="SourceGraphic" in2="effect1_dropShadow_1_262" result="shape"/>
</filter>
<filter id="filter1_d_1_262" x="197" y="854" width="158" height="161" filterUnits="userSpaceOnUse" color-interpolation-filters="sRGB">
<feFlood flood-opacity="0" result="BackgroundImageFix"/>
<feColorMatrix in="SourceAlpha" type="matrix" values="0 0 0 0 0 0 0 0 0 0 0 0 0 0 0 0 0 0 127 0" result="hardAlpha"/>
<feOffset dy="4"/>
<feGaussianBlur stdDeviation="2"/>
<feComposite in2="hardAlpha" operator="out"/>
<feColorMatrix type="matrix" values="0 0 0 0 0 0 0 0 0 0 0 0 0 0 0 0 0 0 0.25 0"/>
<feBlend mode="normal" in2="BackgroundImageFix" result="effect1_dropShadow_1_262"/>
<feBlend mode="normal" in="SourceGraphic" in2="effect1_dropShadow_1_262" result="shape"/>
</filter>
<filter id="filter2_d_1_262" x="106" y="551" width="216" height="216" filterUnits="userSpaceOnUse" color-interpolation-filters="sRGB">
<feFlood flood-opacity="0" result="BackgroundImageFix"/>
<feColorMatrix in="SourceAlpha" type="matrix" values="0 0 0 0 0 0 0 0 0 0 0 0 0 0 0 0 0 0 127 0" result="hardAlpha"/>
<feOffset dy="4"/>
<feGaussianBlur stdDeviation="2"/>
<feComposite in2="hardAlpha" operator="out"/>
<feColorMatrix type="matrix" values="0 0 0 0 0 0 0 0 0 0 0 0 0 0 0 0 0 0 0.25 0"/>
<feBlend mode="normal" in2="BackgroundImageFix" result="effect1_dropShadow_1_262"/>
<feBlend mode="normal" in="SourceGraphic" in2="effect1_dropShadow_1_262" result="shape"/>
</filter>
<filter id="filter3_d_1_262" x="264.265" y="99.2651" width="683.283" height="165.915" filterUnits="userSpaceOnUse" color-interpolation-filters="sRGB">
<feFlood flood-opacity="0" result="BackgroundImageFix"/>
<feColorMatrix in="SourceAlpha" type="matrix" values="0 0 0 0 0 0 0 0 0 0 0 0 0 0 0 0 0 0 127 0" result="hardAlpha"/>
<feOffset dy="4"/>
<feGaussianBlur stdDeviation="2"/>
<feComposite in2="hardAlpha" operator="out"/>
<feColorMatrix type="matrix" values="0 0 0 0 0 0 0 0 0 0 0 0 0 0 0 0 0 0 0.25 0"/>
<feBlend mode="normal" in2="BackgroundImageFix" result="effect1_dropShadow_1_262"/>
<feBlend mode="normal" in="SourceGraphic" in2="effect1_dropShadow_1_262" result="shape"/>
</filter>
<filter id="filter4_d_1_262" x="29.062" y="-502.757" width="155.959" height="683.23" filterUnits="userSpaceOnUse" color-interpolation-filters="sRGB">
<feFlood flood-opacity="0" result="BackgroundImageFix"/>
<feColorMatrix in="SourceAlpha" type="matrix" values="0 0 0 0 0 0 0 0 0 0 0 0 0 0 0 0 0 0 127 0" result="hardAlpha"/>
<feOffset dy="4"/>
<feGaussianBlur stdDeviation="2"/>
<feComposite in2="hardAlpha" operator="out"/>
<feColorMatrix type="matrix" values="0 0 0 0 0 0 0 0 0 0 0 0 0 0 0 0 0 0 0.25 0"/>
<feBlend mode="normal" in2="BackgroundImageFix" result="effect1_dropShadow_1_262"/>
<feBlend mode="normal" in="SourceGraphic" in2="effect1_dropShadow_1_262" result="shape"/>
</filter>
<filter id="filter5_d_1_262" x="196.979" y="-614.757" width="155.959" height="683.23" filterUnits="userSpaceOnUse" color-interpolation-filters="sRGB">
<feFlood flood-opacity="0" result="BackgroundImageFix"/>
<feColorMatrix in="SourceAlpha" type="matrix" values="0 0 0 0 0 0 0 0 0 0 0 0 0 0 0 0 0 0 127 0" result="hardAlpha"/>
<feOffset dy="4"/>
<feGaussianBlur stdDeviation="2"/>
<feComposite in2="hardAlpha" operator="out"/>
<feColorMatrix type="matrix" values="0 0 0 0 0 0 0 0 0 0 0 0 0 0 0 0 0 0 0.25 0"/>
<feBlend mode="normal" in2="BackgroundImageFix" result="effect1_dropShadow_1_262"/>
<feBlend mode="normal" in="SourceGraphic" in2="effect1_dropShadow_1_262" result="shape"/>
</filter>
<clipPath id="clip0_1_262">
<rect width="428" height="926" fill="white"/>
</clipPath>
<clipPath id="clip1_1_262">
<rect x="110" y="551" width="208" height="208" rx="30" fill="white"/>
</clipPath>
</defs>
</svg>
