<svg width="428" height="926" viewBox="0 0 428 926" fill="none" xmlns="http://www.w3.org/2000/svg">
<g clip-path="url(#clip0_1_233)">
<rect width="428" height="926" fill="white"/>
<rect width="428" height="926" fill="#F9F8F8"/>
<g filter="url(#filter0_d_1_233)">
<rect x="22" y="800" width="150" height="397" rx="50" fill="#004B23"/>
</g>
<g filter="url(#filter1_d_1_233)">
<rect x="201" y="854" width="150" height="153" rx="50" fill="#AEE683"/>
</g>
<path d="M66.8094 387.84C62.1427 387.84 58.0127 386.767 54.4194 384.62C50.8261 382.427 48.0027 379.44 45.9494 375.66C43.8961 371.833 42.8694 367.447 42.8694 362.5C42.8694 357.553 43.8727 353.19 45.8794 349.41C47.9327 345.583 50.7327 342.597 54.2794 340.45C57.8727 338.257 61.9794 337.16 66.5994 337.16C69.5394 337.16 72.3627 337.697 75.0694 338.77C77.7761 339.797 80.2027 341.267 82.3494 343.18C84.4961 345.047 86.1527 347.217 87.3194 349.69L82.2094 352.28C81.2761 350.32 79.9927 348.617 78.3594 347.17C76.7261 345.723 74.9061 344.603 72.8994 343.81C70.8927 342.97 68.7927 342.55 66.5994 342.55C63.1927 342.55 60.1361 343.413 57.4294 345.14C54.7227 346.82 52.5994 349.153 51.0594 352.14C49.5661 355.127 48.8194 358.58 48.8194 362.5C48.8194 366.42 49.5894 369.897 51.1294 372.93C52.6694 375.963 54.7927 378.343 57.4994 380.07C60.2527 381.75 63.3561 382.59 66.8094 382.59C69.0494 382.59 71.1727 382.147 73.1794 381.26C75.1861 380.327 76.9827 379.067 78.5694 377.48C80.2027 375.893 81.4861 374.073 82.4194 372.02L87.5994 374.61C86.3861 377.177 84.7061 379.463 82.5594 381.47C80.4594 383.477 78.0327 385.04 75.2794 386.16C72.5727 387.28 69.7494 387.84 66.8094 387.84ZM98.0786 368.03C98.0786 364.25 98.802 361.193 100.249 358.86C101.695 356.48 103.539 354.73 105.779 353.61C108.065 352.443 110.469 351.86 112.989 351.86V357.11C110.935 357.11 108.952 357.46 107.039 358.16C105.172 358.813 103.632 359.91 102.419 361.45C101.205 362.99 100.599 365.09 100.599 367.75L98.0786 368.03ZM94.9986 387V352H100.599V387H94.9986ZM134.121 387.84C130.714 387.84 127.681 387.07 125.021 385.53C122.408 383.943 120.354 381.773 118.861 379.02C117.368 376.267 116.621 373.093 116.621 369.5C116.621 365.907 117.344 362.733 118.791 359.98C120.284 357.227 122.338 355.08 124.951 353.54C127.611 351.953 130.621 351.16 133.981 351.16C137.434 351.16 140.468 351.953 143.081 353.54C145.741 355.08 147.794 357.227 149.241 359.98C150.734 362.733 151.481 365.907 151.481 369.5C151.481 373.093 150.734 376.267 149.241 379.02C147.794 381.773 145.764 383.943 143.151 385.53C140.538 387.07 137.528 387.84 134.121 387.84ZM134.121 382.66C136.454 382.66 138.484 382.1 140.211 380.98C141.938 379.86 143.291 378.32 144.271 376.36C145.298 374.4 145.811 372.113 145.811 369.5C145.811 366.887 145.298 364.6 144.271 362.64C143.291 360.68 141.914 359.14 140.141 358.02C138.368 356.9 136.314 356.34 133.981 356.34C131.694 356.34 129.664 356.9 127.891 358.02C126.164 359.14 124.788 360.68 123.761 362.64C122.781 364.6 122.291 366.887 122.291 369.5C122.291 372.067 122.781 374.353 123.761 376.36C124.788 378.32 126.188 379.86 127.961 380.98C129.781 382.1 131.834 382.66 134.121 382.66ZM174.866 387.84C171.413 387.84 168.356 387.07 165.696 385.53C163.036 383.943 160.96 381.773 159.466 379.02C157.973 376.267 157.226 373.093 157.226 369.5C157.226 365.907 157.95 362.733 159.396 359.98C160.89 357.227 162.966 355.08 165.626 353.54C168.286 351.953 171.32 351.16 174.726 351.16C178.086 351.16 181.096 351.93 183.756 353.47C186.416 355.01 188.446 357.18 189.846 359.98L184.736 362.29C183.803 360.423 182.45 358.977 180.676 357.95C178.903 356.877 176.873 356.34 174.586 356.34C172.3 356.34 170.27 356.9 168.496 358.02C166.77 359.14 165.393 360.703 164.366 362.71C163.386 364.67 162.896 366.933 162.896 369.5C162.896 372.067 163.386 374.353 164.366 376.36C165.393 378.32 166.793 379.86 168.566 380.98C170.386 382.1 172.44 382.66 174.726 382.66C177.013 382.66 179.043 382.077 180.816 380.91C182.636 379.743 184.013 378.11 184.946 376.01L190.056 378.32C188.656 381.307 186.626 383.64 183.966 385.32C181.306 387 178.273 387.84 174.866 387.84ZM212.598 387.84C209.191 387.84 206.158 387.07 203.498 385.53C200.884 383.943 198.831 381.773 197.338 379.02C195.844 376.267 195.098 373.093 195.098 369.5C195.098 365.907 195.821 362.733 197.268 359.98C198.761 357.227 200.814 355.08 203.428 353.54C206.088 351.953 209.098 351.16 212.458 351.16C215.911 351.16 218.944 351.953 221.558 353.54C224.218 355.08 226.271 357.227 227.718 359.98C229.211 362.733 229.958 365.907 229.958 369.5C229.958 373.093 229.211 376.267 227.718 379.02C226.271 381.773 224.241 383.943 221.628 385.53C219.014 387.07 216.004 387.84 212.598 387.84ZM212.598 382.66C214.931 382.66 216.961 382.1 218.688 380.98C220.414 379.86 221.768 378.32 222.748 376.36C223.774 374.4 224.288 372.113 224.288 369.5C224.288 366.887 223.774 364.6 222.748 362.64C221.768 360.68 220.391 359.14 218.618 358.02C216.844 356.9 214.791 356.34 212.458 356.34C210.171 356.34 208.141 356.9 206.368 358.02C204.641 359.14 203.264 360.68 202.238 362.64C201.258 364.6 200.768 366.887 200.768 369.5C200.768 372.067 201.258 374.353 202.238 376.36C203.264 378.32 204.664 379.86 206.438 380.98C208.258 382.1 210.311 382.66 212.598 382.66ZM256.638 387V338H271.548C276.168 338 280.228 339.05 283.728 341.15C287.275 343.203 290.051 346.073 292.058 349.76C294.065 353.447 295.068 357.693 295.068 362.5C295.068 367.26 294.065 371.483 292.058 375.17C290.051 378.857 287.275 381.75 283.728 383.85C280.228 385.95 276.168 387 271.548 387H256.638ZM262.588 381.54H271.548C274.021 381.54 276.308 381.073 278.408 380.14C280.508 379.16 282.351 377.783 283.938 376.01C285.571 374.237 286.831 372.207 287.718 369.92C288.651 367.587 289.118 365.113 289.118 362.5C289.118 359.887 288.651 357.437 287.718 355.15C286.831 352.817 285.571 350.763 283.938 348.99C282.351 347.217 280.508 345.863 278.408 344.93C276.308 343.95 274.021 343.46 271.548 343.46H262.588V381.54ZM303.571 387V352H309.171V387H303.571ZM306.441 343.88C305.508 343.88 304.691 343.53 303.991 342.83C303.291 342.13 302.941 341.313 302.941 340.38C302.941 339.4 303.291 338.583 303.991 337.93C304.691 337.23 305.508 336.88 306.441 336.88C307.421 336.88 308.238 337.23 308.891 337.93C309.591 338.583 309.941 339.4 309.941 340.38C309.941 341.313 309.591 342.13 308.891 342.83C308.238 343.53 307.421 343.88 306.441 343.88ZM330.201 387L344.481 352H350.361L335.731 387H330.201ZM329.851 387L315.221 352H321.031L335.311 387H329.851ZM370.368 387.84C366.961 387.84 363.951 387.07 361.338 385.53C358.724 383.943 356.671 381.773 355.178 379.02C353.731 376.267 353.008 373.093 353.008 369.5C353.008 365.907 353.731 362.733 355.178 359.98C356.671 357.227 358.701 355.08 361.268 353.54C363.881 351.953 366.868 351.16 370.228 351.16C373.494 351.16 376.318 351.977 378.698 353.61C381.078 355.197 382.921 357.437 384.228 360.33C385.534 363.223 386.188 366.63 386.188 370.55H357.278L358.678 369.36C358.678 372.16 359.168 374.563 360.148 376.57C361.174 378.577 362.598 380.117 364.418 381.19C366.238 382.217 368.314 382.73 370.648 382.73C373.121 382.73 375.198 382.147 376.878 380.98C378.604 379.813 379.934 378.273 380.868 376.36L385.698 378.81C384.811 380.63 383.621 382.217 382.128 383.57C380.681 384.923 378.954 385.973 376.948 386.72C374.988 387.467 372.794 387.84 370.368 387.84ZM359.028 366.98L357.558 365.86H381.708L380.238 367.05C380.238 364.81 379.794 362.873 378.908 361.24C378.021 359.607 376.831 358.347 375.338 357.46C373.844 356.573 372.118 356.13 370.158 356.13C368.244 356.13 366.424 356.573 364.698 357.46C363.018 358.347 361.641 359.607 360.568 361.24C359.541 362.827 359.028 364.74 359.028 366.98Z" fill="black"/>
<g filter="url(#filter2_d_1_233)">
<g clip-path="url(#clip1_1_233)">
<mask id="mask0_1_233" style="mask-type:luminance" maskUnits="userSpaceOnUse" x="110" y="551" width="208" height="208">
<path d="M110 551H318V759H110V551Z" fill="white"/>
</mask>
<g mask="url(#mask0_1_233)">
<path d="M110 551H318V759H110V551Z" fill="white"/>
</g>
<mask id="mask1_1_233" style="mask-type:luminance" maskUnits="userSpaceOnUse" x="110" y="551" width="208" height="208">
<path d="M110 551H318V759H110V551Z" fill="white"/>
</mask>
<g mask="url(#mask1_1_233)">
<path d="M110 551H318V759H110V551Z" fill="white"/>
</g>
<mask id="mask2_1_233" style="mask-type:luminance" maskUnits="userSpaceOnUse" x="123" y="611" width="182" height="88">
<path d="M123.744 611.41H304.255V698.77H123.744V611.41Z" fill="white"/>
</mask>
<g mask="url(#mask2_1_233)">
<path fill-rule="evenodd" clip-rule="evenodd" d="M272.866 688.821C223.127 699.929 187.881 634.4 143.646 651.727C159.136 648.33 179.519 657.162 204.791 678.223C231.831 697.789 254.522 701.322 272.866 688.821Z" fill="#7ED957"/>
<path fill-rule="evenodd" clip-rule="evenodd" d="M139.544 660.221C165.985 640.155 190.771 689.637 216.983 695.798C190.711 711.729 170.25 653.949 139.544 660.221Z" fill="#7ED957"/>
<path fill-rule="evenodd" clip-rule="evenodd" d="M123.785 655.258C173.013 589.117 251.068 682.226 273.225 651.851C291.318 627.046 245.872 612.771 231.616 636.692C255.915 583.369 327.827 624.567 296.4 666.862C276.704 693.369 243.279 679.437 215.737 661.778C188.509 644.322 155.804 629.276 123.785 655.257L123.785 655.258Z" fill="#004B23"/>
</g>
</g>
</g>
<g filter="url(#filter3_d_1_233)">
<rect x="268.823" y="257.445" width="154.859" height="675" rx="50" transform="rotate(-90.3046 268.823 257.445)" fill="#CCFF33"/>
</g>
<g filter="url(#filter4_d_1_233)">
<rect width="147.248" height="674.998" rx="50" transform="matrix(-0.999988 0.00487657 -0.00123999 -0.999999 181.083 171.998)" fill="#38B000"/>
</g>
<g filter="url(#filter5_d_1_233)">
<rect width="147.248" height="674.998" rx="50" transform="matrix(-0.999988 0.00487657 -0.00123999 -0.999999 349 59.998)" fill="#006400"/>
</g>
<path d="M62.0802 445.288L61.9522 441.544H63.2322L63.1042 445.288H62.0802ZM64.0002 445.288L63.8722 441.544H65.1522L65.0242 445.288H64.0002ZM76.5012 453L79.9572 441.8H81.3172L77.8452 453H76.5012ZM69.6852 453L66.2612 441.8H67.6212L71.0132 453H69.6852ZM69.8292 453L73.1252 441.8H74.4212L71.1252 453H69.8292ZM76.3892 453L73.1732 441.8H74.4692L77.7332 453H76.3892ZM82.5966 453V441.8H83.8766V453H82.5966ZM88.2286 453V448.904H89.5086V453H88.2286ZM88.2286 448.904C88.2286 448.115 88.1326 447.512 87.9406 447.096C87.7592 446.68 87.5086 446.397 87.1886 446.248C86.8686 446.088 86.5059 446.008 86.1006 446.008C85.3966 446.008 84.8472 446.259 84.4526 446.76C84.0686 447.251 83.8766 447.949 83.8766 448.856H83.2526C83.2526 448.013 83.3752 447.288 83.6206 446.68C83.8766 446.072 84.2392 445.608 84.7086 445.288C85.1779 444.968 85.7432 444.808 86.4046 444.808C87.0232 444.808 87.5672 444.936 88.0366 445.192C88.5059 445.437 88.8686 445.832 89.1246 446.376C89.3912 446.92 89.5192 447.635 89.5086 448.52V448.904H88.2286ZM95.0224 453.192C94.2438 453.192 93.5558 453.016 92.9584 452.664C92.3611 452.301 91.8918 451.805 91.5504 451.176C91.2198 450.547 91.0544 449.821 91.0544 449C91.0544 448.179 91.2198 447.453 91.5504 446.824C91.8918 446.195 92.3558 445.704 92.9424 445.352C93.5398 444.989 94.2224 444.808 94.9904 444.808C95.7371 444.808 96.3824 444.995 96.9264 445.368C97.4704 445.731 97.8918 446.243 98.1904 446.904C98.4891 447.565 98.6384 448.344 98.6384 449.24H92.0304L92.3504 448.968C92.3504 449.608 92.4624 450.157 92.6864 450.616C92.9211 451.075 93.2464 451.427 93.6624 451.672C94.0784 451.907 94.5531 452.024 95.0864 452.024C95.6518 452.024 96.1264 451.891 96.5104 451.624C96.9051 451.357 97.2091 451.005 97.4224 450.568L98.5264 451.128C98.3238 451.544 98.0518 451.907 97.7104 452.216C97.3798 452.525 96.9851 452.765 96.5264 452.936C96.0784 453.107 95.5771 453.192 95.0224 453.192ZM92.4304 448.424L92.0944 448.168H97.6144L97.2784 448.44C97.2784 447.928 97.1771 447.485 96.9744 447.112C96.7718 446.739 96.4998 446.451 96.1584 446.248C95.8171 446.045 95.4224 445.944 94.9744 445.944C94.5371 445.944 94.1211 446.045 93.7264 446.248C93.3424 446.451 93.0278 446.739 92.7824 447.112C92.5478 447.475 92.4304 447.912 92.4304 448.424ZM100.957 448.664C100.957 447.8 101.122 447.101 101.453 446.568C101.783 446.024 102.205 445.624 102.717 445.368C103.239 445.101 103.789 444.968 104.365 444.968V446.168C103.895 446.168 103.442 446.248 103.005 446.408C102.578 446.557 102.226 446.808 101.949 447.16C101.671 447.512 101.533 447.992 101.533 448.6L100.957 448.664ZM100.253 453V445H101.533V453H100.253ZM109.163 453.192C108.384 453.192 107.696 453.016 107.099 452.664C106.502 452.301 106.032 451.805 105.691 451.176C105.36 450.547 105.195 449.821 105.195 449C105.195 448.179 105.36 447.453 105.691 446.824C106.032 446.195 106.496 445.704 107.083 445.352C107.68 444.989 108.363 444.808 109.131 444.808C109.878 444.808 110.523 444.995 111.067 445.368C111.611 445.731 112.032 446.243 112.331 446.904C112.63 447.565 112.779 448.344 112.779 449.24H106.171L106.491 448.968C106.491 449.608 106.603 450.157 106.827 450.616C107.062 451.075 107.387 451.427 107.803 451.672C108.219 451.907 108.694 452.024 109.227 452.024C109.792 452.024 110.267 451.891 110.651 451.624C111.046 451.357 111.35 451.005 111.563 450.568L112.667 451.128C112.464 451.544 112.192 451.907 111.851 452.216C111.52 452.525 111.126 452.765 110.667 452.936C110.219 453.107 109.718 453.192 109.163 453.192ZM106.571 448.424L106.235 448.168H111.755L111.419 448.44C111.419 447.928 111.318 447.485 111.115 447.112C110.912 446.739 110.64 446.451 110.299 446.248C109.958 446.045 109.563 445.944 109.115 445.944C108.678 445.944 108.262 446.045 107.867 446.248C107.483 446.451 107.168 446.739 106.923 447.112C106.688 447.475 106.571 447.912 106.571 448.424ZM121.851 453.192C121.072 453.192 120.384 453.016 119.787 452.664C119.189 452.301 118.72 451.805 118.379 451.176C118.048 450.547 117.883 449.821 117.883 449C117.883 448.179 118.048 447.453 118.379 446.824C118.72 446.195 119.184 445.704 119.771 445.352C120.368 444.989 121.051 444.808 121.819 444.808C122.565 444.808 123.211 444.995 123.755 445.368C124.299 445.731 124.72 446.243 125.019 446.904C125.317 447.565 125.467 448.344 125.467 449.24H118.859L119.179 448.968C119.179 449.608 119.291 450.157 119.515 450.616C119.749 451.075 120.075 451.427 120.491 451.672C120.907 451.907 121.381 452.024 121.915 452.024C122.48 452.024 122.955 451.891 123.339 451.624C123.733 451.357 124.037 451.005 124.251 450.568L125.355 451.128C125.152 451.544 124.88 451.907 124.539 452.216C124.208 452.525 123.813 452.765 123.355 452.936C122.907 453.107 122.405 453.192 121.851 453.192ZM119.259 448.424L118.923 448.168H124.443L124.107 448.44C124.107 447.928 124.005 447.485 123.803 447.112C123.6 446.739 123.328 446.451 122.987 446.248C122.645 446.045 122.251 445.944 121.803 445.944C121.365 445.944 120.949 446.045 120.555 446.248C120.171 446.451 119.856 446.739 119.611 447.112C119.376 447.475 119.259 447.912 119.259 448.424ZM129.326 453L132.59 445H133.934L130.59 453H129.326ZM129.246 453L125.902 445H127.23L130.494 453H129.246ZM138.507 453.192C137.728 453.192 137.04 453.016 136.443 452.664C135.845 452.301 135.376 451.805 135.035 451.176C134.704 450.547 134.539 449.821 134.539 449C134.539 448.179 134.704 447.453 135.035 446.824C135.376 446.195 135.84 445.704 136.427 445.352C137.024 444.989 137.707 444.808 138.475 444.808C139.221 444.808 139.867 444.995 140.411 445.368C140.955 445.731 141.376 446.243 141.675 446.904C141.973 447.565 142.123 448.344 142.123 449.24H135.515L135.835 448.968C135.835 449.608 135.947 450.157 136.171 450.616C136.405 451.075 136.731 451.427 137.147 451.672C137.563 451.907 138.037 452.024 138.571 452.024C139.136 452.024 139.611 451.891 139.995 451.624C140.389 451.357 140.693 451.005 140.907 450.568L142.011 451.128C141.808 451.544 141.536 451.907 141.195 452.216C140.864 452.525 140.469 452.765 140.011 452.936C139.563 453.107 139.061 453.192 138.507 453.192ZM135.915 448.424L135.579 448.168H141.099L140.763 448.44C140.763 447.928 140.661 447.485 140.459 447.112C140.256 446.739 139.984 446.451 139.643 446.248C139.301 446.045 138.907 445.944 138.459 445.944C138.021 445.944 137.605 446.045 137.211 446.248C136.827 446.451 136.512 446.739 136.267 447.112C136.032 447.475 135.915 447.912 135.915 448.424ZM144.441 448.664C144.441 447.8 144.607 447.101 144.937 446.568C145.268 446.024 145.689 445.624 146.201 445.368C146.724 445.101 147.273 444.968 147.849 444.968V446.168C147.38 446.168 146.927 446.248 146.489 446.408C146.063 446.557 145.711 446.808 145.433 447.16C145.156 447.512 145.017 447.992 145.017 448.6L144.441 448.664ZM143.737 453V445H145.017V453H143.737ZM149.863 456.392C149.661 456.392 149.426 456.349 149.159 456.264C148.893 456.189 148.61 456.088 148.311 455.96L148.791 454.888C149.037 454.995 149.25 455.075 149.431 455.128C149.623 455.181 149.773 455.208 149.879 455.208C150.167 455.208 150.402 455.128 150.583 454.968C150.775 454.819 150.935 454.6 151.063 454.312L151.975 452.136L154.935 445H156.311L152.471 454.12C152.269 454.589 152.055 454.995 151.831 455.336C151.618 455.677 151.357 455.939 151.047 456.12C150.738 456.301 150.343 456.392 149.863 456.392ZM151.623 453L148.167 445H149.527L152.503 452.12L152.887 453H151.623ZM167.438 453L167.374 451.512V441.8H168.654V453H167.438ZM164.67 453.192C163.956 453.192 163.326 453.016 162.782 452.664C162.238 452.312 161.812 451.821 161.502 451.192C161.204 450.552 161.054 449.821 161.054 449C161.054 448.168 161.204 447.437 161.502 446.808C161.812 446.179 162.238 445.688 162.782 445.336C163.326 444.984 163.956 444.808 164.67 444.808C165.342 444.808 165.929 444.984 166.43 445.336C166.942 445.688 167.337 446.179 167.614 446.808C167.892 447.437 168.03 448.168 168.03 449C168.03 449.821 167.892 450.552 167.614 451.192C167.337 451.821 166.942 452.312 166.43 452.664C165.929 453.016 165.342 453.192 164.67 453.192ZM164.958 452.024C165.428 452.024 165.844 451.896 166.206 451.64C166.569 451.384 166.852 451.027 167.054 450.568C167.268 450.109 167.374 449.587 167.374 449C167.374 448.413 167.268 447.891 167.054 447.432C166.852 446.973 166.569 446.616 166.206 446.36C165.844 446.104 165.422 445.976 164.942 445.976C164.441 445.976 163.993 446.104 163.598 446.36C163.214 446.616 162.91 446.973 162.686 447.432C162.462 447.891 162.35 448.413 162.35 449C162.35 449.587 162.462 450.109 162.686 450.568C162.91 451.027 163.22 451.384 163.614 451.64C164.009 451.896 164.457 452.024 164.958 452.024ZM170.973 453V445H172.253V453H170.973ZM171.629 443.144C171.416 443.144 171.229 443.064 171.069 442.904C170.909 442.744 170.829 442.557 170.829 442.344C170.829 442.12 170.909 441.933 171.069 441.784C171.229 441.624 171.416 441.544 171.629 441.544C171.853 441.544 172.04 441.624 172.189 441.784C172.349 441.933 172.429 442.12 172.429 442.344C172.429 442.557 172.349 442.744 172.189 442.904C172.04 443.064 171.853 443.144 171.629 443.144ZM177.06 453L180.324 445H181.668L178.324 453H177.06ZM176.98 453L173.636 445H174.964L178.228 453H176.98ZM186.241 453.192C185.463 453.192 184.775 453.016 184.177 452.664C183.58 452.301 183.111 451.805 182.769 451.176C182.439 450.547 182.273 449.821 182.273 449C182.273 448.179 182.439 447.453 182.769 446.824C183.111 446.195 183.575 445.704 184.161 445.352C184.759 444.989 185.441 444.808 186.209 444.808C186.956 444.808 187.601 444.995 188.145 445.368C188.689 445.731 189.111 446.243 189.409 446.904C189.708 447.565 189.857 448.344 189.857 449.24H183.249L183.569 448.968C183.569 449.608 183.681 450.157 183.905 450.616C184.14 451.075 184.465 451.427 184.881 451.672C185.297 451.907 185.772 452.024 186.305 452.024C186.871 452.024 187.345 451.891 187.729 451.624C188.124 451.357 188.428 451.005 188.641 450.568L189.745 451.128C189.543 451.544 189.271 451.907 188.929 452.216C188.599 452.525 188.204 452.765 187.745 452.936C187.297 453.107 186.796 453.192 186.241 453.192ZM183.649 448.424L183.313 448.168H188.833L188.497 448.44C188.497 447.928 188.396 447.485 188.193 447.112C187.991 446.739 187.719 446.451 187.377 446.248C187.036 446.045 186.641 445.944 186.193 445.944C185.756 445.944 185.34 446.045 184.945 446.248C184.561 446.451 184.247 446.739 184.001 447.112C183.767 447.475 183.649 447.912 183.649 448.424ZM195.425 453V441.8H196.705V451.512L196.641 453H195.425ZM199.409 453.192C198.737 453.192 198.145 453.016 197.633 452.664C197.131 452.312 196.742 451.821 196.465 451.192C196.187 450.552 196.049 449.821 196.049 449C196.049 448.168 196.187 447.437 196.465 446.808C196.742 446.179 197.131 445.688 197.633 445.336C198.145 444.984 198.737 444.808 199.409 444.808C200.123 444.808 200.753 444.984 201.297 445.336C201.841 445.688 202.262 446.179 202.561 446.808C202.87 447.437 203.025 448.168 203.025 449C203.025 449.821 202.87 450.552 202.561 451.192C202.262 451.821 201.841 452.312 201.297 452.664C200.753 453.016 200.123 453.192 199.409 453.192ZM199.121 452.024C199.622 452.024 200.065 451.896 200.449 451.64C200.843 451.384 201.153 451.027 201.377 450.568C201.611 450.109 201.729 449.587 201.729 449C201.729 448.413 201.617 447.891 201.393 447.432C201.179 446.973 200.875 446.616 200.481 446.36C200.086 446.104 199.638 445.976 199.137 445.976C198.667 445.976 198.246 446.104 197.873 446.36C197.51 446.616 197.222 446.973 197.009 447.432C196.806 447.891 196.705 448.413 196.705 449C196.705 449.587 196.806 450.109 197.009 450.568C197.222 451.027 197.51 451.384 197.873 451.64C198.235 451.896 198.651 452.024 199.121 452.024ZM208.304 453.192C207.525 453.192 206.837 453.016 206.24 452.664C205.642 452.301 205.173 451.805 204.832 451.176C204.501 450.547 204.336 449.821 204.336 449C204.336 448.179 204.501 447.453 204.832 446.824C205.173 446.195 205.637 445.704 206.224 445.352C206.821 444.989 207.504 444.808 208.272 444.808C209.018 444.808 209.664 444.995 210.208 445.368C210.752 445.731 211.173 446.243 211.472 446.904C211.77 447.565 211.92 448.344 211.92 449.24H205.312L205.632 448.968C205.632 449.608 205.744 450.157 205.968 450.616C206.202 451.075 206.528 451.427 206.944 451.672C207.36 451.907 207.834 452.024 208.368 452.024C208.933 452.024 209.408 451.891 209.792 451.624C210.186 451.357 210.49 451.005 210.704 450.568L211.808 451.128C211.605 451.544 211.333 451.907 210.992 452.216C210.661 452.525 210.266 452.765 209.808 452.936C209.36 453.107 208.858 453.192 208.304 453.192ZM205.712 448.424L205.376 448.168H210.896L210.56 448.44C210.56 447.928 210.458 447.485 210.256 447.112C210.053 446.739 209.781 446.451 209.44 446.248C209.098 446.045 208.704 445.944 208.256 445.944C207.818 445.944 207.402 446.045 207.008 446.248C206.624 446.451 206.309 446.739 206.064 447.112C205.829 447.475 205.712 447.912 205.712 448.424ZM217.102 453.192C216.313 453.192 215.614 453.016 215.006 452.664C214.398 452.301 213.923 451.805 213.582 451.176C213.241 450.547 213.07 449.821 213.07 449C213.07 448.179 213.235 447.453 213.566 446.824C213.907 446.195 214.382 445.704 214.99 445.352C215.598 444.989 216.291 444.808 217.07 444.808C217.838 444.808 218.526 444.984 219.134 445.336C219.742 445.688 220.206 446.184 220.526 446.824L219.358 447.352C219.145 446.925 218.835 446.595 218.43 446.36C218.025 446.115 217.561 445.992 217.038 445.992C216.515 445.992 216.051 446.12 215.646 446.376C215.251 446.632 214.937 446.989 214.702 447.448C214.478 447.896 214.366 448.413 214.366 449C214.366 449.587 214.478 450.109 214.702 450.568C214.937 451.016 215.257 451.368 215.662 451.624C216.078 451.88 216.547 452.008 217.07 452.008C217.593 452.008 218.057 451.875 218.462 451.608C218.878 451.341 219.193 450.968 219.406 450.488L220.574 451.016C220.254 451.699 219.79 452.232 219.182 452.616C218.574 453 217.881 453.192 217.102 453.192ZM225.726 453.192C224.948 453.192 224.254 453.016 223.646 452.664C223.049 452.301 222.58 451.805 222.238 451.176C221.897 450.547 221.726 449.821 221.726 449C221.726 448.179 221.892 447.453 222.222 446.824C222.564 446.195 223.033 445.704 223.63 445.352C224.238 444.989 224.926 444.808 225.694 444.808C226.484 444.808 227.177 444.989 227.774 445.352C228.382 445.704 228.852 446.195 229.182 446.824C229.524 447.453 229.694 448.179 229.694 449C229.694 449.821 229.524 450.547 229.182 451.176C228.852 451.805 228.388 452.301 227.79 452.664C227.193 453.016 226.505 453.192 225.726 453.192ZM225.726 452.008C226.26 452.008 226.724 451.88 227.118 451.624C227.513 451.368 227.822 451.016 228.046 450.568C228.281 450.12 228.398 449.597 228.398 449C228.398 448.403 228.281 447.88 228.046 447.432C227.822 446.984 227.508 446.632 227.102 446.376C226.697 446.12 226.228 445.992 225.694 445.992C225.172 445.992 224.708 446.12 224.302 446.376C223.908 446.632 223.593 446.984 223.358 447.432C223.134 447.88 223.022 448.403 223.022 449C223.022 449.587 223.134 450.109 223.358 450.568C223.593 451.016 223.913 451.368 224.318 451.624C224.734 451.88 225.204 452.008 225.726 452.008ZM231.472 453V445H232.672L232.736 446.12C232.981 445.693 233.296 445.368 233.68 445.144C234.064 444.92 234.512 444.808 235.024 444.808C235.664 444.808 236.208 444.957 236.656 445.256C237.114 445.555 237.445 446.008 237.648 446.616C237.872 446.029 238.197 445.581 238.624 445.272C239.061 444.963 239.578 444.808 240.176 444.808C241.072 444.808 241.776 445.107 242.288 445.704C242.81 446.301 243.066 447.208 243.056 448.424V453H241.776V448.904C241.776 448.115 241.69 447.512 241.52 447.096C241.36 446.68 241.141 446.397 240.864 446.248C240.586 446.088 240.266 446.008 239.904 446.008C239.274 446.008 238.784 446.259 238.432 446.76C238.08 447.251 237.904 447.949 237.904 448.856V453H236.624V448.904C236.624 448.115 236.538 447.512 236.368 447.096C236.208 446.68 235.984 446.397 235.696 446.248C235.418 446.088 235.098 446.008 234.736 446.008C234.117 446.008 233.632 446.259 233.28 446.76C232.928 447.251 232.752 447.949 232.752 448.856V453H231.472ZM248.585 453.192C247.806 453.192 247.118 453.016 246.521 452.664C245.924 452.301 245.454 451.805 245.113 451.176C244.782 450.547 244.617 449.821 244.617 449C244.617 448.179 244.782 447.453 245.113 446.824C245.454 446.195 245.918 445.704 246.505 445.352C247.102 444.989 247.785 444.808 248.553 444.808C249.3 444.808 249.945 444.995 250.489 445.368C251.033 445.731 251.454 446.243 251.753 446.904C252.052 447.565 252.201 448.344 252.201 449.24H245.593L245.913 448.968C245.913 449.608 246.025 450.157 246.249 450.616C246.484 451.075 246.809 451.427 247.225 451.672C247.641 451.907 248.116 452.024 248.649 452.024C249.214 452.024 249.689 451.891 250.073 451.624C250.468 451.357 250.772 451.005 250.985 450.568L252.089 451.128C251.886 451.544 251.614 451.907 251.273 452.216C250.942 452.525 250.548 452.765 250.089 452.936C249.641 453.107 249.14 453.192 248.585 453.192ZM245.993 448.424L245.657 448.168H251.177L250.841 448.44C250.841 447.928 250.74 447.485 250.537 447.112C250.334 446.739 250.062 446.451 249.721 446.248C249.38 446.045 248.985 445.944 248.537 445.944C248.1 445.944 247.684 446.045 247.289 446.248C246.905 446.451 246.59 446.739 246.345 447.112C246.11 447.475 245.993 447.912 245.993 448.424ZM256.615 453.192C256.029 453.192 255.517 453.107 255.079 452.936C254.642 452.755 254.274 452.52 253.975 452.232C253.687 451.944 253.479 451.629 253.351 451.288L254.471 450.824C254.653 451.187 254.925 451.48 255.287 451.704C255.65 451.928 256.05 452.04 256.487 452.04C256.989 452.04 257.41 451.944 257.751 451.752C258.093 451.549 258.263 451.267 258.263 450.904C258.263 450.573 258.135 450.307 257.879 450.104C257.634 449.901 257.266 449.736 256.775 449.608L256.007 449.4C255.282 449.208 254.717 448.92 254.311 448.536C253.906 448.141 253.703 447.699 253.703 447.208C253.703 446.451 253.949 445.864 254.439 445.448C254.941 445.021 255.682 444.808 256.663 444.808C257.133 444.808 257.559 444.877 257.943 445.016C258.327 445.155 258.658 445.352 258.935 445.608C259.213 445.853 259.415 446.147 259.543 446.488L258.423 446.984C258.285 446.621 258.055 446.36 257.735 446.2C257.415 446.04 257.026 445.96 256.567 445.96C256.077 445.96 255.693 446.067 255.415 446.28C255.138 446.483 254.999 446.771 254.999 447.144C254.999 447.357 255.111 447.56 255.335 447.752C255.57 447.933 255.911 448.083 256.359 448.2L257.159 448.408C257.682 448.536 258.119 448.728 258.471 448.984C258.823 449.229 259.09 449.512 259.271 449.832C259.453 450.152 259.543 450.493 259.543 450.856C259.543 451.336 259.415 451.752 259.159 452.104C258.903 452.456 258.557 452.728 258.119 452.92C257.682 453.101 257.181 453.192 256.615 453.192ZM270.15 453L270.086 451.688V448.776C270.086 448.147 270.016 447.629 269.878 447.224C269.739 446.808 269.52 446.493 269.222 446.28C268.923 446.067 268.534 445.96 268.054 445.96C267.616 445.96 267.238 446.051 266.918 446.232C266.608 446.403 266.352 446.68 266.15 447.064L264.998 446.616C265.2 446.243 265.446 445.923 265.734 445.656C266.022 445.379 266.358 445.171 266.742 445.032C267.126 444.883 267.563 444.808 268.054 444.808C268.8 444.808 269.414 444.957 269.894 445.256C270.384 445.544 270.752 445.976 270.998 446.552C271.243 447.117 271.36 447.821 271.35 448.664L271.334 453H270.15ZM267.75 453.192C266.811 453.192 266.075 452.979 265.542 452.552C265.019 452.115 264.758 451.512 264.758 450.744C264.758 449.933 265.024 449.315 265.558 448.888C266.102 448.451 266.859 448.232 267.83 448.232H270.118V449.304H268.118C267.371 449.304 266.838 449.427 266.518 449.672C266.208 449.917 266.054 450.269 266.054 450.728C266.054 451.144 266.208 451.475 266.518 451.72C266.827 451.955 267.259 452.072 267.814 452.072C268.272 452.072 268.672 451.976 269.014 451.784C269.355 451.581 269.616 451.299 269.798 450.936C269.99 450.563 270.086 450.125 270.086 449.624H270.63C270.63 450.712 270.384 451.581 269.894 452.232C269.403 452.872 268.688 453.192 267.75 453.192ZM273.378 453V445H274.578L274.658 446.472V453H273.378ZM278.994 453V448.904H280.274V453H278.994ZM278.994 448.904C278.994 448.115 278.903 447.512 278.722 447.096C278.54 446.68 278.29 446.397 277.97 446.248C277.65 446.088 277.287 446.008 276.882 446.008C276.178 446.008 275.628 446.259 275.234 446.76C274.85 447.251 274.658 447.949 274.658 448.856H274.034C274.034 448.013 274.156 447.288 274.402 446.68C274.647 446.072 275.004 445.608 275.474 445.288C275.943 444.968 276.508 444.808 277.17 444.808C277.799 444.808 278.343 444.936 278.802 445.192C279.271 445.437 279.634 445.832 279.89 446.376C280.156 446.92 280.284 447.635 280.274 448.52V448.904H278.994ZM291.181 453L291.117 451.688V448.776C291.117 448.147 291.047 447.629 290.909 447.224C290.77 446.808 290.551 446.493 290.253 446.28C289.954 446.067 289.565 445.96 289.085 445.96C288.647 445.96 288.269 446.051 287.949 446.232C287.639 446.403 287.383 446.68 287.181 447.064L286.029 446.616C286.231 446.243 286.477 445.923 286.765 445.656C287.053 445.379 287.389 445.171 287.773 445.032C288.157 444.883 288.594 444.808 289.085 444.808C289.831 444.808 290.445 444.957 290.925 445.256C291.415 445.544 291.783 445.976 292.029 446.552C292.274 447.117 292.391 447.821 292.381 448.664L292.365 453H291.181ZM288.781 453.192C287.842 453.192 287.106 452.979 286.573 452.552C286.05 452.115 285.789 451.512 285.789 450.744C285.789 449.933 286.055 449.315 286.589 448.888C287.133 448.451 287.89 448.232 288.861 448.232H291.149V449.304H289.149C288.402 449.304 287.869 449.427 287.549 449.672C287.239 449.917 287.085 450.269 287.085 450.728C287.085 451.144 287.239 451.475 287.549 451.72C287.858 451.955 288.29 452.072 288.845 452.072C289.303 452.072 289.703 451.976 290.045 451.784C290.386 451.581 290.647 451.299 290.829 450.936C291.021 450.563 291.117 450.125 291.117 449.624H291.661C291.661 450.712 291.415 451.581 290.925 452.232C290.434 452.872 289.719 453.192 288.781 453.192ZM300.329 453L300.265 451.512V441.8H301.545V453H300.329ZM297.561 453.192C296.846 453.192 296.217 453.016 295.673 452.664C295.129 452.312 294.702 451.821 294.393 451.192C294.094 450.552 293.945 449.821 293.945 449C293.945 448.168 294.094 447.437 294.393 446.808C294.702 446.179 295.129 445.688 295.673 445.336C296.217 444.984 296.846 444.808 297.561 444.808C298.233 444.808 298.82 444.984 299.321 445.336C299.833 445.688 300.228 446.179 300.505 446.808C300.782 447.437 300.921 448.168 300.921 449C300.921 449.821 300.782 450.552 300.505 451.192C300.228 451.821 299.833 452.312 299.321 452.664C298.82 453.016 298.233 453.192 297.561 453.192ZM297.849 452.024C298.318 452.024 298.734 451.896 299.097 451.64C299.46 451.384 299.742 451.027 299.945 450.568C300.158 450.109 300.265 449.587 300.265 449C300.265 448.413 300.158 447.891 299.945 447.432C299.742 446.973 299.46 446.616 299.097 446.36C298.734 446.104 298.313 445.976 297.833 445.976C297.332 445.976 296.884 446.104 296.489 446.36C296.105 446.616 295.801 446.973 295.577 447.432C295.353 447.891 295.241 448.413 295.241 449C295.241 449.587 295.353 450.109 295.577 450.568C295.801 451.027 296.11 451.384 296.505 451.64C296.9 451.896 297.348 452.024 297.849 452.024ZM306.232 453L309.496 445H310.84L307.496 453H306.232ZM306.152 453L302.808 445H304.136L307.4 453H306.152ZM315.413 453.192C314.634 453.192 313.946 453.016 313.349 452.664C312.752 452.301 312.282 451.805 311.941 451.176C311.61 450.547 311.445 449.821 311.445 449C311.445 448.179 311.61 447.453 311.941 446.824C312.282 446.195 312.746 445.704 313.333 445.352C313.93 444.989 314.613 444.808 315.381 444.808C316.128 444.808 316.773 444.995 317.317 445.368C317.861 445.731 318.282 446.243 318.581 446.904C318.88 447.565 319.029 448.344 319.029 449.24H312.421L312.741 448.968C312.741 449.608 312.853 450.157 313.077 450.616C313.312 451.075 313.637 451.427 314.053 451.672C314.469 451.907 314.944 452.024 315.477 452.024C316.042 452.024 316.517 451.891 316.901 451.624C317.296 451.357 317.6 451.005 317.813 450.568L318.917 451.128C318.714 451.544 318.442 451.907 318.101 452.216C317.77 452.525 317.376 452.765 316.917 452.936C316.469 453.107 315.968 453.192 315.413 453.192ZM312.821 448.424L312.485 448.168H318.005L317.669 448.44C317.669 447.928 317.568 447.485 317.365 447.112C317.162 446.739 316.89 446.451 316.549 446.248C316.208 446.045 315.813 445.944 315.365 445.944C314.928 445.944 314.512 446.045 314.117 446.248C313.733 446.451 313.418 446.739 313.173 447.112C312.938 447.475 312.821 447.912 312.821 448.424ZM320.643 453V445H321.843L321.923 446.472V453H320.643ZM326.259 453V448.904H327.539V453H326.259ZM326.259 448.904C326.259 448.115 326.169 447.512 325.987 447.096C325.806 446.68 325.555 446.397 325.235 446.248C324.915 446.088 324.553 446.008 324.147 446.008C323.443 446.008 322.894 446.259 322.499 446.76C322.115 447.251 321.923 447.949 321.923 448.856H321.299C321.299 448.013 321.422 447.288 321.667 446.68C321.913 446.072 322.27 445.608 322.739 445.288C323.209 444.968 323.774 444.808 324.435 444.808C325.065 444.808 325.609 444.936 326.067 445.192C326.537 445.437 326.899 445.832 327.155 446.376C327.422 446.92 327.55 447.635 327.539 448.52V448.904H326.259ZM332.573 453.192C331.795 453.192 331.192 452.989 330.765 452.584C330.339 452.179 330.125 451.608 330.125 450.872V442.504H331.405V450.744C331.405 451.149 331.512 451.464 331.725 451.688C331.949 451.901 332.259 452.008 332.653 452.008C332.781 452.008 332.904 451.992 333.021 451.96C333.149 451.917 333.315 451.821 333.517 451.672L334.013 452.712C333.736 452.893 333.485 453.016 333.261 453.08C333.037 453.155 332.808 453.192 332.573 453.192ZM328.733 446.136V445H333.805V446.136H328.733ZM341.1 453L341.02 451.528V445H342.3V453H341.1ZM335.404 449.096V445H336.684V449.096H335.404ZM336.684 449.096C336.684 449.885 336.775 450.488 336.956 450.904C337.138 451.32 337.388 451.608 337.708 451.768C338.039 451.917 338.407 451.992 338.812 451.992C339.506 451.992 340.044 451.741 340.428 451.24C340.823 450.739 341.02 450.04 341.02 449.144H341.644C341.644 449.987 341.522 450.712 341.276 451.32C341.031 451.928 340.674 452.392 340.204 452.712C339.746 453.032 339.18 453.192 338.508 453.192C337.89 453.192 337.346 453.069 336.876 452.824C336.407 452.568 336.044 452.168 335.788 451.624C335.532 451.069 335.404 450.355 335.404 449.48V449.096H336.684ZM345.238 448.664C345.238 447.8 345.403 447.101 345.734 446.568C346.065 446.024 346.486 445.624 346.998 445.368C347.521 445.101 348.07 444.968 348.646 444.968V446.168C348.177 446.168 347.723 446.248 347.286 446.408C346.859 446.557 346.507 446.808 346.23 447.16C345.953 447.512 345.814 447.992 345.814 448.6L345.238 448.664ZM344.534 453V445H345.814V453H344.534ZM353.444 453.192C352.666 453.192 351.978 453.016 351.38 452.664C350.783 452.301 350.314 451.805 349.972 451.176C349.642 450.547 349.476 449.821 349.476 449C349.476 448.179 349.642 447.453 349.972 446.824C350.314 446.195 350.778 445.704 351.364 445.352C351.962 444.989 352.644 444.808 353.412 444.808C354.159 444.808 354.804 444.995 355.348 445.368C355.892 445.731 356.314 446.243 356.612 446.904C356.911 447.565 357.06 448.344 357.06 449.24H350.452L350.772 448.968C350.772 449.608 350.884 450.157 351.108 450.616C351.343 451.075 351.668 451.427 352.084 451.672C352.5 451.907 352.975 452.024 353.508 452.024C354.074 452.024 354.548 451.891 354.932 451.624C355.327 451.357 355.631 451.005 355.844 450.568L356.948 451.128C356.746 451.544 356.474 451.907 356.132 452.216C355.802 452.525 355.407 452.765 354.948 452.936C354.5 453.107 353.999 453.192 353.444 453.192ZM350.852 448.424L350.516 448.168H356.036L355.7 448.44C355.7 447.928 355.599 447.485 355.396 447.112C355.194 446.739 354.922 446.451 354.58 446.248C354.239 446.045 353.844 445.944 353.396 445.944C352.959 445.944 352.543 446.045 352.148 446.248C351.764 446.451 351.45 446.739 351.204 447.112C350.97 447.475 350.852 447.912 350.852 448.424ZM359.219 453.224C358.973 453.224 358.76 453.139 358.579 452.968C358.408 452.787 358.323 452.579 358.323 452.344C358.323 452.099 358.408 451.891 358.579 451.72C358.76 451.539 358.973 451.448 359.219 451.448C359.464 451.448 359.672 451.539 359.843 451.72C360.013 451.891 360.099 452.099 360.099 452.344C360.099 452.579 360.013 452.787 359.843 452.968C359.672 453.139 359.464 453.224 359.219 453.224ZM361.971 445.288L361.843 441.544H363.123L362.995 445.288H361.971ZM363.891 445.288L363.763 441.544H365.043L364.915 445.288H363.891Z" fill="#545454"/>
</g>
<defs>
<filter id="filter0_d_1_233" x="18" y="800" width="158" height="405" filterUnits="userSpaceOnUse" color-interpolation-filters="sRGB">
<feFlood flood-opacity="0" result="BackgroundImageFix"/>
<feColorMatrix in="SourceAlpha" type="matrix" values="0 0 0 0 0 0 0 0 0 0 0 0 0 0 0 0 0 0 127 0" result="hardAlpha"/>
<feOffset dy="4"/>
<feGaussianBlur stdDeviation="2"/>
<feComposite in2="hardAlpha" operator="out"/>
<feColorMatrix type="matrix" values="0 0 0 0 0 0 0 0 0 0 0 0 0 0 0 0 0 0 0.25 0"/>
<feBlend mode="normal" in2="BackgroundImageFix" result="effect1_dropShadow_1_233"/>
<feBlend mode="normal" in="SourceGraphic" in2="effect1_dropShadow_1_233" result="shape"/>
</filter>
<filter id="filter1_d_1_233" x="197" y="854" width="158" height="161" filterUnits="userSpaceOnUse" color-interpolation-filters="sRGB">
<feFlood flood-opacity="0" result="BackgroundImageFix"/>
<feColorMatrix in="SourceAlpha" type="matrix" values="0 0 0 0 0 0 0 0 0 0 0 0 0 0 0 0 0 0 127 0" result="hardAlpha"/>
<feOffset dy="4"/>
<feGaussianBlur stdDeviation="2"/>
<feComposite in2="hardAlpha" operator="out"/>
<feColorMatrix type="matrix" values="0 0 0 0 0 0 0 0 0 0 0 0 0 0 0 0 0 0 0.25 0"/>
<feBlend mode="normal" in2="BackgroundImageFix" result="effect1_dropShadow_1_233"/>
<feBlend mode="normal" in="SourceGraphic" in2="effect1_dropShadow_1_233" result="shape"/>
</filter>
<filter id="filter2_d_1_233" x="106" y="551" width="216" height="216" filterUnits="userSpaceOnUse" color-interpolation-filters="sRGB">
<feFlood flood-opacity="0" result="BackgroundImageFix"/>
<feColorMatrix in="SourceAlpha" type="matrix" values="0 0 0 0 0 0 0 0 0 0 0 0 0 0 0 0 0 0 127 0" result="hardAlpha"/>
<feOffset dy="4"/>
<feGaussianBlur stdDeviation="2"/>
<feComposite in2="hardAlpha" operator="out"/>
<feColorMatrix type="matrix" values="0 0 0 0 0 0 0 0 0 0 0 0 0 0 0 0 0 0 0.25 0"/>
<feBlend mode="normal" in2="BackgroundImageFix" result="effect1_dropShadow_1_233"/>
<feBlend mode="normal" in="SourceGraphic" in2="effect1_dropShadow_1_233" result="shape"/>
</filter>
<filter id="filter3_d_1_233" x="264.265" y="99.2651" width="683.284" height="165.915" filterUnits="userSpaceOnUse" color-interpolation-filters="sRGB">
<feFlood flood-opacity="0" result="BackgroundImageFix"/>
<feColorMatrix in="SourceAlpha" type="matrix" values="0 0 0 0 0 0 0 0 0 0 0 0 0 0 0 0 0 0 127 0" result="hardAlpha"/>
<feOffset dy="4"/>
<feGaussianBlur stdDeviation="2"/>
<feComposite in2="hardAlpha" operator="out"/>
<feColorMatrix type="matrix" values="0 0 0 0 0 0 0 0 0 0 0 0 0 0 0 0 0 0 0.25 0"/>
<feBlend mode="normal" in2="BackgroundImageFix" result="effect1_dropShadow_1_233"/>
<feBlend mode="normal" in="SourceGraphic" in2="effect1_dropShadow_1_233" result="shape"/>
</filter>
<filter id="filter4_d_1_233" x="29.062" y="-502.757" width="155.959" height="683.23" filterUnits="userSpaceOnUse" color-interpolation-filters="sRGB">
<feFlood flood-opacity="0" result="BackgroundImageFix"/>
<feColorMatrix in="SourceAlpha" type="matrix" values="0 0 0 0 0 0 0 0 0 0 0 0 0 0 0 0 0 0 127 0" result="hardAlpha"/>
<feOffset dy="4"/>
<feGaussianBlur stdDeviation="2"/>
<feComposite in2="hardAlpha" operator="out"/>
<feColorMatrix type="matrix" values="0 0 0 0 0 0 0 0 0 0 0 0 0 0 0 0 0 0 0.25 0"/>
<feBlend mode="normal" in2="BackgroundImageFix" result="effect1_dropShadow_1_233"/>
<feBlend mode="normal" in="SourceGraphic" in2="effect1_dropShadow_1_233" result="shape"/>
</filter>
<filter id="filter5_d_1_233" x="196.979" y="-614.757" width="155.959" height="683.23" filterUnits="userSpaceOnUse" color-interpolation-filters="sRGB">
<feFlood flood-opacity="0" result="BackgroundImageFix"/>
<feColorMatrix in="SourceAlpha" type="matrix" values="0 0 0 0 0 0 0 0 0 0 0 0 0 0 0 0 0 0 127 0" result="hardAlpha"/>
<feOffset dy="4"/>
<feGaussianBlur stdDeviation="2"/>
<feComposite in2="hardAlpha" operator="out"/>
<feColorMatrix type="matrix" values="0 0 0 0 0 0 0 0 0 0 0 0 0 0 0 0 0 0 0.25 0"/>
<feBlend mode="normal" in2="BackgroundImageFix" result="effect1_dropShadow_1_233"/>
<feBlend mode="normal" in="SourceGraphic" in2="effect1_dropShadow_1_233" result="shape"/>
</filter>
<clipPath id="clip0_1_233">
<rect width="428" height="926" fill="white"/>
</clipPath>
<clipPath id="clip1_1_233">
<rect x="110" y="551" width="208" height="208" rx="30" fill="white"/>
</clipPath>
</defs>
</svg>
