<svg width="1440" height="1024" viewBox="0 0 1440 1024" fill="none" xmlns="http://www.w3.org/2000/svg">
<g clip-path="url(#clip0_1_5)">
<rect width="1440" height="1024" fill="white"/>
<g filter="url(#filter0_d_1_5)">
<rect width="1440" height="1096" fill="#F9F8F8"/>
</g>
<g filter="url(#filter1_d_1_5)">
<rect x="52" y="250" width="296" height="876" rx="112" fill="#004B23"/>
</g>
<g filter="url(#filter2_d_1_5)">
<rect x="468" y="651" width="377" height="585" rx="115" fill="#EBEBEB"/>
</g>
<g filter="url(#filter3_d_1_5)">
<rect x="947" y="783" width="377" height="496" rx="115" fill="#AEE683"/>
</g>
<g filter="url(#filter4_d_1_5)">
<rect x="1046" y="428.583" width="377" height="675" rx="115" transform="rotate(-90.3046 1046 428.583)" fill="#CCFF33"/>
</g>
<g filter="url(#filter5_d_1_5)">
<rect x="346.668" y="192.998" width="292.009" height="675" rx="115" transform="rotate(179.859 346.668 192.998)" fill="#9EF01A"/>
</g>
<g filter="url(#filter6_d_1_5)">
<rect x="689.668" y="319.998" width="292.009" height="675" rx="115" transform="rotate(179.859 689.668 319.998)" fill="#38B000"/>
</g>
<g filter="url(#filter7_d_1_5)">
<rect x="1022.67" y="207.998" width="292.009" height="675" rx="115" transform="rotate(179.859 1022.67 207.998)" fill="#006400"/>
</g>
<path d="M572.809 466.84C568.143 466.84 564.013 465.767 560.419 463.62C556.826 461.427 554.003 458.44 551.949 454.66C549.896 450.833 548.869 446.447 548.869 441.5C548.869 436.553 549.873 432.19 551.879 428.41C553.933 424.583 556.733 421.597 560.279 419.45C563.873 417.257 567.979 416.16 572.599 416.16C575.539 416.16 578.363 416.697 581.069 417.77C583.776 418.797 586.203 420.267 588.349 422.18C590.496 424.047 592.153 426.217 593.319 428.69L588.209 431.28C587.276 429.32 585.993 427.617 584.359 426.17C582.726 424.723 580.906 423.603 578.899 422.81C576.893 421.97 574.793 421.55 572.599 421.55C569.193 421.55 566.136 422.413 563.429 424.14C560.723 425.82 558.599 428.153 557.059 431.14C555.566 434.127 554.819 437.58 554.819 441.5C554.819 445.42 555.589 448.897 557.129 451.93C558.669 454.963 560.793 457.343 563.499 459.07C566.253 460.75 569.356 461.59 572.809 461.59C575.049 461.59 577.173 461.147 579.179 460.26C581.186 459.327 582.983 458.067 584.569 456.48C586.203 454.893 587.486 453.073 588.419 451.02L593.599 453.61C592.386 456.177 590.706 458.463 588.559 460.47C586.459 462.477 584.033 464.04 581.279 465.16C578.573 466.28 575.749 466.84 572.809 466.84ZM604.079 447.03C604.079 443.25 604.802 440.193 606.249 437.86C607.695 435.48 609.539 433.73 611.779 432.61C614.065 431.443 616.469 430.86 618.989 430.86V436.11C616.935 436.11 614.952 436.46 613.039 437.16C611.172 437.813 609.632 438.91 608.419 440.45C607.205 441.99 606.599 444.09 606.599 446.75L604.079 447.03ZM600.999 466V431H606.599V466H600.999ZM640.121 466.84C636.714 466.84 633.681 466.07 631.021 464.53C628.408 462.943 626.354 460.773 624.861 458.02C623.368 455.267 622.621 452.093 622.621 448.5C622.621 444.907 623.344 441.733 624.791 438.98C626.284 436.227 628.338 434.08 630.951 432.54C633.611 430.953 636.621 430.16 639.981 430.16C643.434 430.16 646.468 430.953 649.081 432.54C651.741 434.08 653.794 436.227 655.241 438.98C656.734 441.733 657.481 444.907 657.481 448.5C657.481 452.093 656.734 455.267 655.241 458.02C653.794 460.773 651.764 462.943 649.151 464.53C646.538 466.07 643.528 466.84 640.121 466.84ZM640.121 461.66C642.454 461.66 644.484 461.1 646.211 459.98C647.938 458.86 649.291 457.32 650.271 455.36C651.298 453.4 651.811 451.113 651.811 448.5C651.811 445.887 651.298 443.6 650.271 441.64C649.291 439.68 647.914 438.14 646.141 437.02C644.368 435.9 642.314 435.34 639.981 435.34C637.694 435.34 635.664 435.9 633.891 437.02C632.164 438.14 630.788 439.68 629.761 441.64C628.781 443.6 628.291 445.887 628.291 448.5C628.291 451.067 628.781 453.353 629.761 455.36C630.788 457.32 632.188 458.86 633.961 459.98C635.781 461.1 637.834 461.66 640.121 461.66ZM680.866 466.84C677.413 466.84 674.356 466.07 671.696 464.53C669.036 462.943 666.96 460.773 665.466 458.02C663.973 455.267 663.226 452.093 663.226 448.5C663.226 444.907 663.95 441.733 665.396 438.98C666.89 436.227 668.966 434.08 671.626 432.54C674.286 430.953 677.32 430.16 680.726 430.16C684.086 430.16 687.096 430.93 689.756 432.47C692.416 434.01 694.446 436.18 695.846 438.98L690.736 441.29C689.803 439.423 688.45 437.977 686.676 436.95C684.903 435.877 682.873 435.34 680.586 435.34C678.3 435.34 676.27 435.9 674.496 437.02C672.77 438.14 671.393 439.703 670.366 441.71C669.386 443.67 668.896 445.933 668.896 448.5C668.896 451.067 669.386 453.353 670.366 455.36C671.393 457.32 672.793 458.86 674.566 459.98C676.386 461.1 678.44 461.66 680.726 461.66C683.013 461.66 685.043 461.077 686.816 459.91C688.636 458.743 690.013 457.11 690.946 455.01L696.056 457.32C694.656 460.307 692.626 462.64 689.966 464.32C687.306 466 684.273 466.84 680.866 466.84ZM718.598 466.84C715.191 466.84 712.158 466.07 709.498 464.53C706.884 462.943 704.831 460.773 703.338 458.02C701.844 455.267 701.098 452.093 701.098 448.5C701.098 444.907 701.821 441.733 703.268 438.98C704.761 436.227 706.814 434.08 709.428 432.54C712.088 430.953 715.098 430.16 718.458 430.16C721.911 430.16 724.944 430.953 727.558 432.54C730.218 434.08 732.271 436.227 733.718 438.98C735.211 441.733 735.958 444.907 735.958 448.5C735.958 452.093 735.211 455.267 733.718 458.02C732.271 460.773 730.241 462.943 727.628 464.53C725.014 466.07 722.004 466.84 718.598 466.84ZM718.598 461.66C720.931 461.66 722.961 461.1 724.688 459.98C726.414 458.86 727.768 457.32 728.748 455.36C729.774 453.4 730.288 451.113 730.288 448.5C730.288 445.887 729.774 443.6 728.748 441.64C727.768 439.68 726.391 438.14 724.618 437.02C722.844 435.9 720.791 435.34 718.458 435.34C716.171 435.34 714.141 435.9 712.368 437.02C710.641 438.14 709.264 439.68 708.238 441.64C707.258 443.6 706.768 445.887 706.768 448.5C706.768 451.067 707.258 453.353 708.238 455.36C709.264 457.32 710.664 458.86 712.438 459.98C714.258 461.1 716.311 461.66 718.598 461.66ZM762.638 466V417H777.548C782.168 417 786.228 418.05 789.728 420.15C793.275 422.203 796.051 425.073 798.058 428.76C800.065 432.447 801.068 436.693 801.068 441.5C801.068 446.26 800.065 450.483 798.058 454.17C796.051 457.857 793.275 460.75 789.728 462.85C786.228 464.95 782.168 466 777.548 466H762.638ZM768.588 460.54H777.548C780.021 460.54 782.308 460.073 784.408 459.14C786.508 458.16 788.351 456.783 789.938 455.01C791.571 453.237 792.831 451.207 793.718 448.92C794.651 446.587 795.118 444.113 795.118 441.5C795.118 438.887 794.651 436.437 793.718 434.15C792.831 431.817 791.571 429.763 789.938 427.99C788.351 426.217 786.508 424.863 784.408 423.93C782.308 422.95 780.021 422.46 777.548 422.46H768.588V460.54ZM809.571 466V431H815.171V466H809.571ZM812.441 422.88C811.508 422.88 810.691 422.53 809.991 421.83C809.291 421.13 808.941 420.313 808.941 419.38C808.941 418.4 809.291 417.583 809.991 416.93C810.691 416.23 811.508 415.88 812.441 415.88C813.421 415.88 814.238 416.23 814.891 416.93C815.591 417.583 815.941 418.4 815.941 419.38C815.941 420.313 815.591 421.13 814.891 421.83C814.238 422.53 813.421 422.88 812.441 422.88ZM836.201 466L850.481 431H856.361L841.731 466H836.201ZM835.851 466L821.221 431H827.031L841.311 466H835.851ZM876.368 466.84C872.961 466.84 869.951 466.07 867.338 464.53C864.724 462.943 862.671 460.773 861.178 458.02C859.731 455.267 859.008 452.093 859.008 448.5C859.008 444.907 859.731 441.733 861.178 438.98C862.671 436.227 864.701 434.08 867.268 432.54C869.881 430.953 872.868 430.16 876.228 430.16C879.494 430.16 882.318 430.977 884.698 432.61C887.078 434.197 888.921 436.437 890.228 439.33C891.534 442.223 892.188 445.63 892.188 449.55H863.278L864.678 448.36C864.678 451.16 865.168 453.563 866.148 455.57C867.174 457.577 868.598 459.117 870.418 460.19C872.238 461.217 874.314 461.73 876.648 461.73C879.121 461.73 881.198 461.147 882.878 459.98C884.604 458.813 885.934 457.273 886.868 455.36L891.698 457.81C890.811 459.63 889.621 461.217 888.128 462.57C886.681 463.923 884.954 464.973 882.948 465.72C880.988 466.467 878.794 466.84 876.368 466.84ZM865.028 445.98L863.558 444.86H887.708L886.238 446.05C886.238 443.81 885.794 441.873 884.908 440.24C884.021 438.607 882.831 437.347 881.338 436.46C879.844 435.573 878.118 435.13 876.158 435.13C874.244 435.13 872.424 435.573 870.698 436.46C869.018 437.347 867.641 438.607 866.568 440.24C865.541 441.827 865.028 443.74 865.028 445.98Z" fill="black"/>
<path d="M421.503 547.432L421.311 541.816H423.231L423.039 547.432H421.503ZM424.383 547.432L424.191 541.816H426.111L425.919 547.432H424.383ZM436.871 559.288C435.271 559.288 433.855 558.92 432.623 558.184C431.391 557.432 430.423 556.408 429.719 555.112C429.015 553.8 428.663 552.296 428.663 550.6C428.663 548.904 429.007 547.408 429.695 546.112C430.399 544.8 431.359 543.776 432.575 543.04C433.807 542.288 435.215 541.912 436.799 541.912C437.807 541.912 438.775 542.096 439.703 542.464C440.631 542.816 441.463 543.32 442.199 543.976C442.935 544.616 443.503 545.36 443.903 546.208L442.151 547.096C441.831 546.424 441.391 545.84 440.831 545.344C440.271 544.848 439.647 544.464 438.959 544.192C438.271 543.904 437.551 543.76 436.799 543.76C435.631 543.76 434.583 544.056 433.655 544.648C432.727 545.224 431.999 546.024 431.471 547.048C430.959 548.072 430.703 549.256 430.703 550.6C430.703 551.944 430.967 553.136 431.495 554.176C432.023 555.216 432.751 556.032 433.679 556.624C434.623 557.2 435.687 557.488 436.871 557.488C437.639 557.488 438.367 557.336 439.055 557.032C439.743 556.712 440.359 556.28 440.903 555.736C441.463 555.192 441.903 554.568 442.223 553.864L443.999 554.752C443.583 555.632 443.007 556.416 442.271 557.104C441.551 557.792 440.719 558.328 439.775 558.712C438.847 559.096 437.879 559.288 436.871 559.288ZM447.591 552.496C447.591 551.2 447.839 550.152 448.335 549.352C448.831 548.536 449.463 547.936 450.231 547.552C451.015 547.152 451.839 546.952 452.703 546.952V548.752C451.999 548.752 451.319 548.872 450.663 549.112C450.023 549.336 449.495 549.712 449.079 550.24C448.663 550.768 448.455 551.488 448.455 552.4L447.591 552.496ZM446.535 559V547H448.455V559H446.535ZM459.949 559.288C458.781 559.288 457.741 559.024 456.829 558.496C455.933 557.952 455.229 557.208 454.717 556.264C454.205 555.32 453.949 554.232 453.949 553C453.949 551.768 454.197 550.68 454.693 549.736C455.205 548.792 455.909 548.056 456.805 547.528C457.717 546.984 458.749 546.712 459.901 546.712C461.085 546.712 462.125 546.984 463.021 547.528C463.933 548.056 464.637 548.792 465.133 549.736C465.645 550.68 465.901 551.768 465.901 553C465.901 554.232 465.645 555.32 465.133 556.264C464.637 557.208 463.941 557.952 463.045 558.496C462.149 559.024 461.117 559.288 459.949 559.288ZM459.949 557.512C460.749 557.512 461.445 557.32 462.037 556.936C462.629 556.552 463.093 556.024 463.429 555.352C463.781 554.68 463.957 553.896 463.957 553C463.957 552.104 463.781 551.32 463.429 550.648C463.093 549.976 462.621 549.448 462.013 549.064C461.405 548.68 460.701 548.488 459.901 548.488C459.117 548.488 458.421 548.68 457.813 549.064C457.221 549.448 456.749 549.976 456.397 550.648C456.061 551.32 455.893 552.104 455.893 553C455.893 553.88 456.061 554.664 456.397 555.352C456.749 556.024 457.229 556.552 457.837 556.936C458.461 557.32 459.165 557.512 459.949 557.512ZM473.919 559.288C472.735 559.288 471.687 559.024 470.775 558.496C469.863 557.952 469.151 557.208 468.639 556.264C468.127 555.32 467.871 554.232 467.871 553C467.871 551.768 468.119 550.68 468.615 549.736C469.127 548.792 469.839 548.056 470.751 547.528C471.663 546.984 472.703 546.712 473.871 546.712C475.023 546.712 476.055 546.976 476.967 547.504C477.879 548.032 478.575 548.776 479.055 549.736L477.303 550.528C476.983 549.888 476.519 549.392 475.911 549.04C475.303 548.672 474.607 548.488 473.823 548.488C473.039 548.488 472.343 548.68 471.735 549.064C471.143 549.448 470.671 549.984 470.319 550.672C469.983 551.344 469.815 552.12 469.815 553C469.815 553.88 469.983 554.664 470.319 555.352C470.671 556.024 471.151 556.552 471.759 556.936C472.383 557.32 473.087 557.512 473.871 557.512C474.655 557.512 475.351 557.312 475.959 556.912C476.583 556.512 477.055 555.952 477.375 555.232L479.127 556.024C478.647 557.048 477.951 557.848 477.039 558.424C476.127 559 475.087 559.288 473.919 559.288ZM486.855 559.288C485.687 559.288 484.647 559.024 483.735 558.496C482.839 557.952 482.135 557.208 481.623 556.264C481.111 555.32 480.855 554.232 480.855 553C480.855 551.768 481.103 550.68 481.599 549.736C482.111 548.792 482.815 548.056 483.711 547.528C484.623 546.984 485.655 546.712 486.807 546.712C487.991 546.712 489.031 546.984 489.927 547.528C490.839 548.056 491.543 548.792 492.039 549.736C492.551 550.68 492.807 551.768 492.807 553C492.807 554.232 492.551 555.32 492.039 556.264C491.543 557.208 490.847 557.952 489.951 558.496C489.055 559.024 488.023 559.288 486.855 559.288ZM486.855 557.512C487.655 557.512 488.351 557.32 488.943 556.936C489.535 556.552 489.999 556.024 490.335 555.352C490.687 554.68 490.863 553.896 490.863 553C490.863 552.104 490.687 551.32 490.335 550.648C489.999 549.976 489.527 549.448 488.919 549.064C488.311 548.68 487.607 548.488 486.807 548.488C486.023 548.488 485.327 548.68 484.719 549.064C484.127 549.448 483.655 549.976 483.303 550.648C482.967 551.32 482.799 552.104 482.799 553C482.799 553.88 482.967 554.664 483.303 555.352C483.655 556.024 484.135 556.552 484.743 556.936C485.367 557.32 486.071 557.512 486.855 557.512ZM501.955 559V542.2H507.067C508.651 542.2 510.043 542.56 511.243 543.28C512.459 543.984 513.411 544.968 514.099 546.232C514.787 547.496 515.131 548.952 515.131 550.6C515.131 552.232 514.787 553.68 514.099 554.944C513.411 556.208 512.459 557.2 511.243 557.92C510.043 558.64 508.651 559 507.067 559H501.955ZM503.995 557.128H507.067C507.915 557.128 508.699 556.968 509.419 556.648C510.139 556.312 510.771 555.84 511.315 555.232C511.875 554.624 512.307 553.928 512.611 553.144C512.931 552.344 513.091 551.496 513.091 550.6C513.091 549.704 512.931 548.864 512.611 548.08C512.307 547.28 511.875 546.576 511.315 545.968C510.771 545.36 510.139 544.896 509.419 544.576C508.699 544.24 507.915 544.072 507.067 544.072H503.995V557.128ZM518.046 559V547H519.966V559H518.046ZM519.03 544.216C518.71 544.216 518.43 544.096 518.19 543.856C517.95 543.616 517.83 543.336 517.83 543.016C517.83 542.68 517.95 542.4 518.19 542.176C518.43 541.936 518.71 541.816 519.03 541.816C519.366 541.816 519.646 541.936 519.87 542.176C520.11 542.4 520.23 542.68 520.23 543.016C520.23 543.336 520.11 543.616 519.87 543.856C519.646 544.096 519.366 544.216 519.03 544.216ZM527.176 559L532.072 547H534.088L529.072 559H527.176ZM527.056 559L522.04 547H524.032L528.928 559H527.056ZM540.948 559.288C539.78 559.288 538.748 559.024 537.852 558.496C536.956 557.952 536.252 557.208 535.74 556.264C535.244 555.32 534.996 554.232 534.996 553C534.996 551.768 535.244 550.68 535.74 549.736C536.252 548.792 536.948 548.056 537.828 547.528C538.724 546.984 539.748 546.712 540.9 546.712C542.02 546.712 542.988 546.992 543.804 547.552C544.62 548.096 545.252 548.864 545.7 549.856C546.148 550.848 546.372 552.016 546.372 553.36H536.46L536.94 552.952C536.94 553.912 537.108 554.736 537.444 555.424C537.796 556.112 538.284 556.64 538.908 557.008C539.532 557.36 540.244 557.536 541.044 557.536C541.892 557.536 542.604 557.336 543.18 556.936C543.772 556.536 544.228 556.008 544.548 555.352L546.204 556.192C545.9 556.816 545.492 557.36 544.98 557.824C544.484 558.288 543.892 558.648 543.204 558.904C542.532 559.16 541.78 559.288 540.948 559.288ZM537.06 552.136L536.556 551.752H544.836L544.332 552.16C544.332 551.392 544.18 550.728 543.876 550.168C543.572 549.608 543.164 549.176 542.652 548.872C542.14 548.568 541.548 548.416 540.876 548.416C540.22 548.416 539.596 548.568 539.004 548.872C538.428 549.176 537.956 549.608 537.588 550.168C537.236 550.712 537.06 551.368 537.06 552.136ZM556.067 549.616C555.699 549.616 555.379 549.488 555.107 549.232C554.851 548.976 554.723 548.664 554.723 548.296C554.723 547.928 554.851 547.616 555.107 547.36C555.379 547.088 555.699 546.952 556.067 546.952C556.419 546.952 556.723 547.088 556.979 547.36C557.251 547.616 557.387 547.928 557.387 548.296C557.387 548.664 557.251 548.976 556.979 549.232C556.723 549.488 556.419 549.616 556.067 549.616ZM556.091 559.048C555.723 559.048 555.411 558.92 555.155 558.664C554.899 558.392 554.771 558.072 554.771 557.704C554.771 557.336 554.899 557.024 555.155 556.768C555.411 556.512 555.723 556.384 556.091 556.384C556.459 556.384 556.771 556.512 557.027 556.768C557.299 557.024 557.435 557.336 557.435 557.704C557.435 558.072 557.299 558.392 557.027 558.664C556.771 558.92 556.459 559.048 556.091 559.048ZM574.427 559.288C572.811 559.288 571.379 558.92 570.131 558.184C568.883 557.448 567.907 556.424 567.203 555.112C566.499 553.8 566.147 552.296 566.147 550.6C566.147 548.888 566.491 547.384 567.179 546.088C567.883 544.776 568.851 543.752 570.083 543.016C571.315 542.28 572.739 541.912 574.355 541.912C575.971 541.912 577.395 542.288 578.627 543.04C579.875 543.776 580.843 544.8 581.531 546.112C582.219 547.408 582.563 548.904 582.563 550.6C582.563 552.296 582.219 553.8 581.531 555.112C580.843 556.424 579.883 557.448 578.651 558.184C577.435 558.92 576.027 559.288 574.427 559.288ZM574.427 557.44C575.627 557.44 576.683 557.152 577.595 556.576C578.507 555.984 579.219 555.176 579.731 554.152C580.259 553.128 580.523 551.944 580.523 550.6C580.523 549.272 580.259 548.096 579.731 547.072C579.203 546.032 578.475 545.224 577.547 544.648C576.635 544.056 575.571 543.76 574.355 543.76C573.155 543.76 572.091 544.056 571.163 544.648C570.235 545.224 569.507 546.032 568.979 547.072C568.451 548.096 568.187 549.272 568.187 550.6C568.187 551.944 568.451 553.128 568.979 554.152C569.507 555.176 570.243 555.984 571.187 556.576C572.131 557.152 573.211 557.44 574.427 557.44ZM593.588 559L593.468 556.792V547H595.388V559H593.588ZM585.044 553.144V547H586.964V553.144H585.044ZM586.964 553.144C586.964 554.328 587.1 555.232 587.372 555.856C587.644 556.48 588.02 556.912 588.5 557.152C588.996 557.376 589.548 557.488 590.156 557.488C591.196 557.488 592.004 557.112 592.58 556.36C593.172 555.608 593.468 554.56 593.468 553.216H594.404C594.404 554.48 594.22 555.568 593.852 556.48C593.484 557.392 592.948 558.088 592.244 558.568C591.556 559.048 590.708 559.288 589.7 559.288C588.772 559.288 587.956 559.104 587.252 558.736C586.548 558.352 586.004 557.752 585.62 556.936C585.236 556.104 585.044 555.032 585.044 553.72V553.144H586.964ZM590.66 545.296L587.54 542.176H589.988L592.868 545.296H590.66ZM610.02 559.288C608.836 559.288 607.788 559.024 606.876 558.496C605.964 557.952 605.252 557.208 604.74 556.264C604.228 555.32 603.972 554.232 603.972 553C603.972 551.768 604.22 550.68 604.716 549.736C605.228 548.792 605.94 548.056 606.852 547.528C607.764 546.984 608.804 546.712 609.972 546.712C611.124 546.712 612.156 546.976 613.068 547.504C613.98 548.032 614.676 548.776 615.156 549.736L613.404 550.528C613.084 549.888 612.62 549.392 612.012 549.04C611.404 548.672 610.708 548.488 609.924 548.488C609.14 548.488 608.444 548.68 607.836 549.064C607.244 549.448 606.772 549.984 606.42 550.672C606.084 551.344 605.916 552.12 605.916 553C605.916 553.88 606.084 554.664 606.42 555.352C606.772 556.024 607.252 556.552 607.86 556.936C608.484 557.32 609.188 557.512 609.972 557.512C610.756 557.512 611.452 557.312 612.06 556.912C612.684 556.512 613.156 555.952 613.476 555.232L615.228 556.024C614.748 557.048 614.052 557.848 613.14 558.424C612.228 559 611.188 559.288 610.02 559.288ZM617.653 559V542.2H619.573V559H617.653ZM626.101 559V552.856H628.021V559H626.101ZM626.101 552.856C626.101 551.672 625.957 550.768 625.669 550.144C625.397 549.52 625.021 549.096 624.541 548.872C624.061 548.632 623.517 548.512 622.909 548.512C621.853 548.512 621.029 548.888 620.437 549.64C619.861 550.376 619.573 551.424 619.573 552.784H618.637C618.637 551.52 618.821 550.432 619.189 549.52C619.573 548.608 620.117 547.912 620.821 547.432C621.525 546.952 622.373 546.712 623.365 546.712C624.293 546.712 625.109 546.904 625.813 547.288C626.517 547.656 627.061 548.248 627.445 549.064C627.845 549.88 628.037 550.952 628.021 552.28V552.856H626.101ZM638.427 559L638.331 557.032V552.664C638.331 551.72 638.227 550.944 638.019 550.336C637.811 549.712 637.483 549.24 637.035 548.92C636.587 548.6 636.003 548.44 635.283 548.44C634.627 548.44 634.059 548.576 633.579 548.848C633.115 549.104 632.731 549.52 632.427 550.096L630.699 549.424C631.003 548.864 631.371 548.384 631.803 547.984C632.235 547.568 632.739 547.256 633.315 547.048C633.891 546.824 634.547 546.712 635.283 546.712C636.403 546.712 637.323 546.936 638.043 547.384C638.779 547.816 639.331 548.464 639.699 549.328C640.067 550.176 640.243 551.232 640.227 552.496L640.203 559H638.427ZM634.827 559.288C633.419 559.288 632.315 558.968 631.515 558.328C630.731 557.672 630.339 556.768 630.339 555.616C630.339 554.4 630.739 553.472 631.539 552.832C632.355 552.176 633.491 551.848 634.947 551.848H638.379V553.456H635.379C634.259 553.456 633.459 553.64 632.979 554.008C632.515 554.376 632.283 554.904 632.283 555.592C632.283 556.216 632.515 556.712 632.979 557.08C633.443 557.432 634.091 557.608 634.923 557.608C635.611 557.608 636.211 557.464 636.723 557.176C637.235 556.872 637.627 556.448 637.899 555.904C638.187 555.344 638.331 554.688 638.331 553.936H639.147C639.147 555.568 638.779 556.872 638.043 557.848C637.307 558.808 636.235 559.288 634.827 559.288ZM652.054 563.8V549.232L652.15 547H653.974V563.8H652.054ZM647.998 559.288C646.926 559.288 645.982 559.024 645.166 558.496C644.35 557.968 643.71 557.232 643.246 556.288C642.798 555.328 642.574 554.232 642.574 553C642.574 551.752 642.798 550.656 643.246 549.712C643.71 548.768 644.35 548.032 645.166 547.504C645.982 546.976 646.926 546.712 647.998 546.712C649.006 546.712 649.886 546.976 650.638 547.504C651.406 548.032 651.998 548.768 652.414 549.712C652.83 550.656 653.038 551.752 653.038 553C653.038 554.232 652.83 555.328 652.414 556.288C651.998 557.232 651.406 557.968 650.638 558.496C649.886 559.024 649.006 559.288 647.998 559.288ZM648.43 557.536C649.134 557.536 649.758 557.344 650.302 556.96C650.846 556.576 651.27 556.04 651.574 555.352C651.894 554.664 652.054 553.88 652.054 553C652.054 552.12 651.894 551.336 651.574 550.648C651.27 549.96 650.846 549.424 650.302 549.04C649.758 548.656 649.126 548.464 648.406 548.464C647.654 548.464 646.982 548.656 646.39 549.04C645.814 549.424 645.358 549.96 645.022 550.648C644.686 551.336 644.518 552.12 644.518 553C644.518 553.88 644.686 554.664 645.022 555.352C645.358 556.04 645.822 556.576 646.414 556.96C647.006 557.344 647.678 557.536 648.43 557.536ZM665.377 559L665.257 556.792V547H667.177V559H665.377ZM656.833 553.144V547H658.753V553.144H656.833ZM658.753 553.144C658.753 554.328 658.889 555.232 659.161 555.856C659.433 556.48 659.809 556.912 660.289 557.152C660.785 557.376 661.337 557.488 661.945 557.488C662.985 557.488 663.793 557.112 664.369 556.36C664.961 555.608 665.257 554.56 665.257 553.216H666.193C666.193 554.48 666.009 555.568 665.641 556.48C665.273 557.392 664.737 558.088 664.033 558.568C663.345 559.048 662.497 559.288 661.489 559.288C660.561 559.288 659.745 559.104 659.041 558.736C658.337 558.352 657.793 557.752 657.409 556.936C657.025 556.104 656.833 555.032 656.833 553.72V553.144H658.753ZM675.784 559.288C674.616 559.288 673.584 559.024 672.688 558.496C671.792 557.952 671.088 557.208 670.576 556.264C670.08 555.32 669.832 554.232 669.832 553C669.832 551.768 670.08 550.68 670.576 549.736C671.088 548.792 671.784 548.056 672.664 547.528C673.56 546.984 674.584 546.712 675.736 546.712C676.856 546.712 677.824 546.992 678.64 547.552C679.456 548.096 680.088 548.864 680.536 549.856C680.984 550.848 681.208 552.016 681.208 553.36H671.296L671.776 552.952C671.776 553.912 671.944 554.736 672.28 555.424C672.632 556.112 673.12 556.64 673.744 557.008C674.368 557.36 675.08 557.536 675.88 557.536C676.728 557.536 677.44 557.336 678.016 556.936C678.608 556.536 679.064 556.008 679.384 555.352L681.04 556.192C680.736 556.816 680.328 557.36 679.816 557.824C679.32 558.288 678.728 558.648 678.04 558.904C677.368 559.16 676.616 559.288 675.784 559.288ZM671.896 552.136L671.392 551.752H679.672L679.168 552.16C679.168 551.392 679.016 550.728 678.712 550.168C678.408 549.608 678 549.176 677.488 548.872C676.976 548.568 676.384 548.416 675.712 548.416C675.056 548.416 674.432 548.568 673.84 548.872C673.264 549.176 672.792 549.608 672.424 550.168C672.072 550.712 671.896 551.368 671.896 552.136ZM689.679 563.8V547H691.479L691.599 549.208V563.8H689.679ZM695.655 559.288C694.647 559.288 693.759 559.024 692.991 558.496C692.239 557.968 691.655 557.232 691.239 556.288C690.823 555.328 690.615 554.232 690.615 553C690.615 551.752 690.823 550.656 691.239 549.712C691.655 548.768 692.239 548.032 692.991 547.504C693.759 546.976 694.647 546.712 695.655 546.712C696.727 546.712 697.671 546.976 698.487 547.504C699.303 548.032 699.935 548.768 700.383 549.712C700.847 550.656 701.079 551.752 701.079 553C701.079 554.232 700.847 555.328 700.383 556.288C699.935 557.232 699.303 557.968 698.487 558.496C697.671 559.024 696.727 559.288 695.655 559.288ZM695.223 557.536C695.975 557.536 696.639 557.344 697.215 556.96C697.807 556.576 698.271 556.04 698.607 555.352C698.959 554.664 699.135 553.88 699.135 553C699.135 552.12 698.967 551.336 698.631 550.648C698.311 549.96 697.855 549.424 697.263 549.04C696.671 548.656 695.999 548.464 695.247 548.464C694.543 548.464 693.911 548.656 693.351 549.04C692.807 549.424 692.375 549.96 692.055 550.648C691.751 551.336 691.599 552.12 691.599 553C691.599 553.88 691.751 554.664 692.055 555.352C692.375 556.04 692.807 556.576 693.351 556.96C693.895 557.344 694.519 557.536 695.223 557.536ZM703.739 559V542.2H705.659V559H703.739ZM714.316 559.288C713.148 559.288 712.108 559.024 711.196 558.496C710.3 557.952 709.596 557.208 709.084 556.264C708.572 555.32 708.316 554.232 708.316 553C708.316 551.768 708.564 550.68 709.06 549.736C709.572 548.792 710.276 548.056 711.172 547.528C712.084 546.984 713.116 546.712 714.268 546.712C715.452 546.712 716.492 546.984 717.388 547.528C718.3 548.056 719.004 548.792 719.5 549.736C720.012 550.68 720.268 551.768 720.268 553C720.268 554.232 720.012 555.32 719.5 556.264C719.004 557.208 718.308 557.952 717.412 558.496C716.516 559.024 715.484 559.288 714.316 559.288ZM714.316 557.512C715.116 557.512 715.812 557.32 716.404 556.936C716.996 556.552 717.46 556.024 717.796 555.352C718.148 554.68 718.324 553.896 718.324 553C718.324 552.104 718.148 551.32 717.796 550.648C717.46 549.976 716.988 549.448 716.38 549.064C715.772 548.68 715.068 548.488 714.268 548.488C713.484 548.488 712.788 548.68 712.18 549.064C711.588 549.448 711.116 549.976 710.764 550.648C710.428 551.32 710.26 552.104 710.26 553C710.26 553.88 710.428 554.664 710.764 555.352C711.116 556.024 711.596 556.552 712.204 556.936C712.828 557.32 713.532 557.512 714.316 557.512ZM722.934 559V547H724.734L724.854 549.208V559H722.934ZM731.358 559V552.856H733.278V559H731.358ZM731.358 552.856C731.358 551.672 731.222 550.768 730.95 550.144C730.678 549.52 730.302 549.096 729.822 548.872C729.342 548.632 728.798 548.512 728.19 548.512C727.134 548.512 726.31 548.888 725.718 549.64C725.142 550.376 724.854 551.424 724.854 552.784H723.918C723.918 551.52 724.102 550.432 724.47 549.52C724.838 548.608 725.374 547.912 726.078 547.432C726.782 546.952 727.63 546.712 728.622 546.712C729.566 546.712 730.382 546.904 731.07 547.288C731.774 547.656 732.318 548.248 732.702 549.064C733.102 549.88 733.294 550.952 733.278 552.28V552.856H731.358ZM741.117 564.088C740.349 564.088 739.645 564.008 739.005 563.848C738.381 563.704 737.845 563.536 737.397 563.344C736.965 563.168 736.653 563.016 736.461 562.888L737.181 561.328C737.389 561.44 737.685 561.576 738.069 561.736C738.453 561.912 738.901 562.056 739.413 562.168C739.941 562.296 740.501 562.36 741.093 562.36C741.861 562.36 742.549 562.2 743.157 561.88C743.781 561.576 744.261 561.088 744.597 560.416C744.949 559.76 745.125 558.912 745.125 557.872V547H747.045V557.848C747.045 559.224 746.789 560.376 746.277 561.304C745.765 562.232 745.061 562.928 744.165 563.392C743.269 563.856 742.253 564.088 741.117 564.088ZM741.045 558.904C739.973 558.904 739.029 558.648 738.213 558.136C737.397 557.624 736.757 556.912 736.293 556C735.845 555.072 735.621 554.016 735.621 552.832C735.621 551.616 735.845 550.552 736.293 549.64C736.757 548.712 737.397 547.992 738.213 547.48C739.029 546.968 739.973 546.712 741.045 546.712C742.053 546.712 742.933 546.968 743.685 547.48C744.437 547.992 745.021 548.712 745.437 549.64C745.869 550.552 746.085 551.616 746.085 552.832C746.085 554.032 745.869 555.088 745.437 556C745.021 556.912 744.437 557.624 743.685 558.136C742.933 558.648 742.053 558.904 741.045 558.904ZM741.501 557.248C742.205 557.248 742.829 557.056 743.373 556.672C743.917 556.288 744.341 555.768 744.645 555.112C744.949 554.44 745.101 553.664 745.101 552.784C745.101 551.936 744.941 551.184 744.621 550.528C744.317 549.856 743.893 549.336 743.349 548.968C742.821 548.584 742.197 548.392 741.477 548.392C740.725 548.392 740.053 548.584 739.461 548.968C738.885 549.336 738.429 549.856 738.093 550.528C737.773 551.184 737.613 551.936 737.613 552.784C737.613 553.664 737.781 554.44 738.117 555.112C738.453 555.768 738.909 556.288 739.485 556.672C740.077 557.056 740.749 557.248 741.501 557.248ZM755.659 559.288C754.491 559.288 753.459 559.024 752.563 558.496C751.667 557.952 750.963 557.208 750.451 556.264C749.955 555.32 749.707 554.232 749.707 553C749.707 551.768 749.955 550.68 750.451 549.736C750.963 548.792 751.659 548.056 752.539 547.528C753.435 546.984 754.459 546.712 755.611 546.712C756.731 546.712 757.699 546.992 758.515 547.552C759.331 548.096 759.963 548.864 760.411 549.856C760.859 550.848 761.083 552.016 761.083 553.36H751.171L751.651 552.952C751.651 553.912 751.819 554.736 752.155 555.424C752.507 556.112 752.995 556.64 753.619 557.008C754.243 557.36 754.955 557.536 755.755 557.536C756.603 557.536 757.315 557.336 757.891 556.936C758.483 556.536 758.939 556.008 759.259 555.352L760.915 556.192C760.611 556.816 760.203 557.36 759.691 557.824C759.195 558.288 758.603 558.648 757.915 558.904C757.243 559.16 756.491 559.288 755.659 559.288ZM751.771 552.136L751.267 551.752H759.547L759.043 552.16C759.043 551.392 758.891 550.728 758.587 550.168C758.283 549.608 757.875 549.176 757.363 548.872C756.851 548.568 756.259 548.416 755.587 548.416C754.931 548.416 754.307 548.568 753.715 548.872C753.139 549.176 752.667 549.608 752.299 550.168C751.947 550.712 751.771 551.368 751.771 552.136ZM754.003 545.296L756.811 542.2H759.283L756.187 545.296H754.003ZM768.784 559.288C767.616 559.288 766.584 559.024 765.688 558.496C764.792 557.952 764.088 557.208 763.576 556.264C763.08 555.32 762.832 554.232 762.832 553C762.832 551.768 763.08 550.68 763.576 549.736C764.088 548.792 764.784 548.056 765.664 547.528C766.56 546.984 767.584 546.712 768.736 546.712C769.856 546.712 770.824 546.992 771.64 547.552C772.456 548.096 773.088 548.864 773.536 549.856C773.984 550.848 774.208 552.016 774.208 553.36H764.296L764.776 552.952C764.776 553.912 764.944 554.736 765.28 555.424C765.632 556.112 766.12 556.64 766.744 557.008C767.368 557.36 768.08 557.536 768.88 557.536C769.728 557.536 770.44 557.336 771.016 556.936C771.608 556.536 772.064 556.008 772.384 555.352L774.04 556.192C773.736 556.816 773.328 557.36 772.816 557.824C772.32 558.288 771.728 558.648 771.04 558.904C770.368 559.16 769.616 559.288 768.784 559.288ZM764.896 552.136L764.392 551.752H772.672L772.168 552.16C772.168 551.392 772.016 550.728 771.712 550.168C771.408 549.608 771 549.176 770.488 548.872C769.976 548.568 769.384 548.416 768.712 548.416C768.056 548.416 767.432 548.568 766.84 548.872C766.264 549.176 765.792 549.608 765.424 550.168C765.072 550.712 764.896 551.368 764.896 552.136ZM791.439 559L791.343 556.768V542.2H793.263V559H791.439ZM787.287 559.288C786.215 559.288 785.271 559.024 784.455 558.496C783.639 557.968 782.999 557.232 782.535 556.288C782.087 555.328 781.863 554.232 781.863 553C781.863 551.752 782.087 550.656 782.535 549.712C782.999 548.768 783.639 548.032 784.455 547.504C785.271 546.976 786.215 546.712 787.287 546.712C788.295 546.712 789.175 546.976 789.927 547.504C790.695 548.032 791.287 548.768 791.703 549.712C792.119 550.656 792.327 551.752 792.327 553C792.327 554.232 792.119 555.328 791.703 556.288C791.287 557.232 790.695 557.968 789.927 558.496C789.175 559.024 788.295 559.288 787.287 559.288ZM787.719 557.536C788.423 557.536 789.047 557.344 789.591 556.96C790.135 556.576 790.559 556.04 790.863 555.352C791.183 554.664 791.343 553.88 791.343 553C791.343 552.12 791.183 551.336 790.863 550.648C790.559 549.96 790.135 549.424 789.591 549.04C789.047 548.656 788.415 548.464 787.695 548.464C786.943 548.464 786.271 548.656 785.679 549.04C785.103 549.424 784.647 549.96 784.311 550.648C783.975 551.336 783.807 552.12 783.807 553C783.807 553.88 783.975 554.664 784.311 555.352C784.647 556.04 785.111 556.576 785.703 556.96C786.295 557.344 786.967 557.536 787.719 557.536ZM801.877 559.288C800.709 559.288 799.677 559.024 798.781 558.496C797.885 557.952 797.181 557.208 796.669 556.264C796.173 555.32 795.925 554.232 795.925 553C795.925 551.768 796.173 550.68 796.669 549.736C797.181 548.792 797.877 548.056 798.757 547.528C799.653 546.984 800.677 546.712 801.829 546.712C802.949 546.712 803.917 546.992 804.733 547.552C805.549 548.096 806.181 548.864 806.629 549.856C807.077 550.848 807.301 552.016 807.301 553.36H797.389L797.869 552.952C797.869 553.912 798.037 554.736 798.373 555.424C798.725 556.112 799.213 556.64 799.837 557.008C800.461 557.36 801.173 557.536 801.973 557.536C802.821 557.536 803.533 557.336 804.109 556.936C804.701 556.536 805.157 556.008 805.477 555.352L807.133 556.192C806.829 556.816 806.421 557.36 805.909 557.824C805.413 558.288 804.821 558.648 804.133 558.904C803.461 559.16 802.709 559.288 801.877 559.288ZM797.989 552.136L797.485 551.752H805.765L805.261 552.16C805.261 551.392 805.109 550.728 804.805 550.168C804.501 549.608 804.093 549.176 803.581 548.872C803.069 548.568 802.477 548.416 801.805 548.416C801.149 548.416 800.525 548.568 799.933 548.872C799.357 549.176 798.885 549.608 798.517 550.168C798.165 550.712 797.989 551.368 797.989 552.136ZM813.09 559L817.986 547H820.002L814.986 559H813.09ZM812.97 559L807.954 547H809.946L814.842 559H812.97ZM822.007 559V547H823.927V559H822.007ZM822.991 544.216C822.671 544.216 822.391 544.096 822.151 543.856C821.911 543.616 821.791 543.336 821.791 543.016C821.791 542.68 821.911 542.4 822.151 542.176C822.391 541.936 822.671 541.816 822.991 541.816C823.327 541.816 823.607 541.936 823.831 542.176C824.071 542.4 824.191 542.68 824.191 543.016C824.191 543.336 824.071 543.616 823.831 543.856C823.607 544.096 823.327 544.216 822.991 544.216ZM832.721 559.288C831.553 559.288 830.521 559.024 829.625 558.496C828.729 557.952 828.025 557.208 827.513 556.264C827.017 555.32 826.769 554.232 826.769 553C826.769 551.768 827.017 550.68 827.513 549.736C828.025 548.792 828.721 548.056 829.601 547.528C830.497 546.984 831.521 546.712 832.673 546.712C833.793 546.712 834.761 546.992 835.577 547.552C836.393 548.096 837.025 548.864 837.473 549.856C837.921 550.848 838.145 552.016 838.145 553.36H828.233L828.713 552.952C828.713 553.912 828.881 554.736 829.217 555.424C829.569 556.112 830.057 556.64 830.681 557.008C831.305 557.36 832.017 557.536 832.817 557.536C833.665 557.536 834.377 557.336 834.953 556.936C835.545 556.536 836.001 556.008 836.321 555.352L837.977 556.192C837.673 556.816 837.265 557.36 836.753 557.824C836.257 558.288 835.665 558.648 834.977 558.904C834.305 559.16 833.553 559.288 832.721 559.288ZM828.833 552.136L828.329 551.752H836.609L836.105 552.16C836.105 551.392 835.953 550.728 835.649 550.168C835.345 549.608 834.937 549.176 834.425 548.872C833.913 548.568 833.321 548.416 832.649 548.416C831.993 548.416 831.369 548.568 830.777 548.872C830.201 549.176 829.729 549.608 829.361 550.168C829.009 550.712 828.833 551.368 828.833 552.136ZM840.567 559V547H842.367L842.487 549.208V559H840.567ZM848.991 559V552.856H850.911V559H848.991ZM848.991 552.856C848.991 551.672 848.855 550.768 848.583 550.144C848.311 549.52 847.935 549.096 847.455 548.872C846.975 548.632 846.431 548.512 845.823 548.512C844.767 548.512 843.943 548.888 843.351 549.64C842.775 550.376 842.487 551.424 842.487 552.784H841.551C841.551 551.52 841.735 550.432 842.103 549.52C842.471 548.608 843.007 547.912 843.711 547.432C844.415 546.952 845.263 546.712 846.255 546.712C847.199 546.712 848.015 546.904 848.703 547.288C849.407 547.656 849.951 548.248 850.335 549.064C850.735 549.88 850.927 550.952 850.911 552.28V552.856H848.991ZM858.462 559.288C857.294 559.288 856.39 558.984 855.75 558.376C855.11 557.768 854.79 556.912 854.79 555.808V543.256H856.71V555.616C856.71 556.224 856.87 556.696 857.19 557.032C857.526 557.352 857.99 557.512 858.582 557.512C858.774 557.512 858.958 557.488 859.134 557.44C859.326 557.376 859.574 557.232 859.878 557.008L860.622 558.568C860.206 558.84 859.83 559.024 859.494 559.12C859.158 559.232 858.814 559.288 858.462 559.288ZM852.702 548.704V547H860.31V548.704H852.702ZM877.182 559L877.062 556.792V547H878.982V559H877.182ZM868.638 553.144V547H870.558V553.144H868.638ZM870.558 553.144C870.558 554.328 870.694 555.232 870.966 555.856C871.238 556.48 871.614 556.912 872.094 557.152C872.59 557.376 873.142 557.488 873.75 557.488C874.79 557.488 875.598 557.112 876.174 556.36C876.766 555.608 877.062 554.56 877.062 553.216H877.998C877.998 554.48 877.814 555.568 877.446 556.48C877.078 557.392 876.542 558.088 875.838 558.568C875.15 559.048 874.302 559.288 873.294 559.288C872.366 559.288 871.55 559.104 870.846 558.736C870.142 558.352 869.598 557.752 869.214 556.936C868.83 556.104 868.638 555.032 868.638 553.72V553.144H870.558ZM882.332 559V547H884.132L884.252 549.208V559H882.332ZM890.756 559V552.856H892.676V559H890.756ZM890.756 552.856C890.756 551.672 890.62 550.768 890.348 550.144C890.076 549.52 889.7 549.096 889.22 548.872C888.74 548.632 888.196 548.512 887.588 548.512C886.532 548.512 885.708 548.888 885.116 549.64C884.54 550.376 884.252 551.424 884.252 552.784H883.316C883.316 551.52 883.5 550.432 883.868 549.52C884.236 548.608 884.772 547.912 885.476 547.432C886.18 546.952 887.028 546.712 888.02 546.712C888.964 546.712 889.78 546.904 890.468 547.288C891.172 547.656 891.716 548.248 892.1 549.064C892.5 549.88 892.692 550.952 892.676 552.28V552.856H890.756ZM900.971 559.288C899.803 559.288 898.771 559.024 897.875 558.496C896.979 557.952 896.275 557.208 895.763 556.264C895.267 555.32 895.019 554.232 895.019 553C895.019 551.768 895.267 550.68 895.763 549.736C896.275 548.792 896.971 548.056 897.851 547.528C898.747 546.984 899.771 546.712 900.923 546.712C902.043 546.712 903.011 546.992 903.827 547.552C904.643 548.096 905.275 548.864 905.723 549.856C906.171 550.848 906.395 552.016 906.395 553.36H896.483L896.963 552.952C896.963 553.912 897.131 554.736 897.467 555.424C897.819 556.112 898.307 556.64 898.931 557.008C899.555 557.36 900.267 557.536 901.067 557.536C901.915 557.536 902.627 557.336 903.203 556.936C903.795 556.536 904.251 556.008 904.571 555.352L906.227 556.192C905.923 556.816 905.515 557.36 905.003 557.824C904.507 558.288 903.915 558.648 903.227 558.904C902.555 559.16 901.803 559.288 900.971 559.288ZM897.083 552.136L896.579 551.752H904.859L904.355 552.16C904.355 551.392 904.203 550.728 903.899 550.168C903.595 549.608 903.187 549.176 902.675 548.872C902.163 548.568 901.571 548.416 900.899 548.416C900.243 548.416 899.619 548.568 899.027 548.872C898.451 549.176 897.979 549.608 897.611 550.168C897.259 550.712 897.083 551.368 897.083 552.136ZM922.138 559L922.042 557.032V552.664C922.042 551.72 921.938 550.944 921.73 550.336C921.522 549.712 921.194 549.24 920.746 548.92C920.298 548.6 919.714 548.44 918.994 548.44C918.338 548.44 917.77 548.576 917.29 548.848C916.826 549.104 916.442 549.52 916.138 550.096L914.41 549.424C914.714 548.864 915.082 548.384 915.514 547.984C915.946 547.568 916.45 547.256 917.026 547.048C917.602 546.824 918.258 546.712 918.994 546.712C920.114 546.712 921.034 546.936 921.754 547.384C922.49 547.816 923.042 548.464 923.41 549.328C923.778 550.176 923.954 551.232 923.938 552.496L923.914 559H922.138ZM918.538 559.288C917.13 559.288 916.026 558.968 915.226 558.328C914.442 557.672 914.05 556.768 914.05 555.616C914.05 554.4 914.45 553.472 915.25 552.832C916.066 552.176 917.202 551.848 918.658 551.848H922.09V553.456H919.09C917.97 553.456 917.17 553.64 916.69 554.008C916.226 554.376 915.994 554.904 915.994 555.592C915.994 556.216 916.226 556.712 916.69 557.08C917.154 557.432 917.802 557.608 918.634 557.608C919.322 557.608 919.922 557.464 920.434 557.176C920.946 556.872 921.338 556.448 921.61 555.904C921.898 555.344 922.042 554.688 922.042 553.936H922.858C922.858 555.568 922.49 556.872 921.754 557.848C921.018 558.808 919.946 559.288 918.538 559.288ZM930.465 559L935.361 547H937.377L932.361 559H930.465ZM930.345 559L925.329 547H927.321L932.217 559H930.345ZM944.237 559.288C943.069 559.288 942.037 559.024 941.141 558.496C940.245 557.952 939.541 557.208 939.029 556.264C938.533 555.32 938.285 554.232 938.285 553C938.285 551.768 938.533 550.68 939.029 549.736C939.541 548.792 940.237 548.056 941.117 547.528C942.013 546.984 943.037 546.712 944.189 546.712C945.309 546.712 946.277 546.992 947.093 547.552C947.909 548.096 948.541 548.864 948.989 549.856C949.437 550.848 949.661 552.016 949.661 553.36H939.749L940.229 552.952C940.229 553.912 940.397 554.736 940.733 555.424C941.085 556.112 941.573 556.64 942.197 557.008C942.821 557.36 943.533 557.536 944.333 557.536C945.181 557.536 945.893 557.336 946.469 556.936C947.061 556.536 947.517 556.008 947.837 555.352L949.493 556.192C949.189 556.816 948.781 557.36 948.269 557.824C947.773 558.288 947.181 558.648 946.493 558.904C945.821 559.16 945.069 559.288 944.237 559.288ZM940.349 552.136L939.845 551.752H948.125L947.621 552.16C947.621 551.392 947.469 550.728 947.165 550.168C946.861 549.608 946.453 549.176 945.941 548.872C945.429 548.568 944.837 548.416 944.165 548.416C943.509 548.416 942.885 548.568 942.293 548.872C941.717 549.176 941.245 549.608 940.877 550.168C940.525 550.712 940.349 551.368 940.349 552.136ZM952.082 559V547H953.882L954.002 549.208V559H952.082ZM960.506 559V552.856H962.426V559H960.506ZM960.506 552.856C960.506 551.672 960.37 550.768 960.098 550.144C959.826 549.52 959.45 549.096 958.97 548.872C958.49 548.632 957.946 548.512 957.338 548.512C956.282 548.512 955.458 548.888 954.866 549.64C954.29 550.376 954.002 551.424 954.002 552.784H953.066C953.066 551.52 953.25 550.432 953.618 549.52C953.986 548.608 954.522 547.912 955.226 547.432C955.93 546.952 956.778 546.712 957.77 546.712C958.714 546.712 959.53 546.904 960.218 547.288C960.922 547.656 961.466 548.248 961.85 549.064C962.25 549.88 962.442 550.952 962.426 552.28V552.856H960.506ZM969.977 559.288C968.809 559.288 967.905 558.984 967.265 558.376C966.625 557.768 966.305 556.912 966.305 555.808V543.256H968.225V555.616C968.225 556.224 968.385 556.696 968.705 557.032C969.041 557.352 969.505 557.512 970.097 557.512C970.289 557.512 970.473 557.488 970.649 557.44C970.841 557.376 971.089 557.232 971.393 557.008L972.137 558.568C971.721 558.84 971.345 559.024 971.009 559.12C970.673 559.232 970.329 559.288 969.977 559.288ZM964.217 548.704V547H971.825V548.704H964.217ZM982.767 559L982.647 556.792V547H984.567V559H982.767ZM974.223 553.144V547H976.143V553.144H974.223ZM976.143 553.144C976.143 554.328 976.279 555.232 976.551 555.856C976.823 556.48 977.199 556.912 977.679 557.152C978.175 557.376 978.727 557.488 979.335 557.488C980.375 557.488 981.183 557.112 981.759 556.36C982.351 555.608 982.647 554.56 982.647 553.216H983.583C983.583 554.48 983.399 555.568 983.031 556.48C982.663 557.392 982.127 558.088 981.423 558.568C980.735 559.048 979.887 559.288 978.879 559.288C977.951 559.288 977.135 559.104 976.431 558.736C975.727 558.352 975.183 557.752 974.799 556.936C974.415 556.104 974.223 555.032 974.223 553.72V553.144H976.143ZM988.974 552.496C988.974 551.2 989.222 550.152 989.718 549.352C990.214 548.536 990.846 547.936 991.614 547.552C992.398 547.152 993.222 546.952 994.086 546.952V548.752C993.382 548.752 992.702 548.872 992.046 549.112C991.406 549.336 990.878 549.712 990.462 550.24C990.046 550.768 989.838 551.488 989.838 552.4L988.974 552.496ZM987.918 559V547H989.838V559H987.918ZM1001.28 559.288C1000.12 559.288 999.084 559.024 998.188 558.496C997.292 557.952 996.588 557.208 996.076 556.264C995.58 555.32 995.332 554.232 995.332 553C995.332 551.768 995.58 550.68 996.076 549.736C996.588 548.792 997.284 548.056 998.164 547.528C999.06 546.984 1000.08 546.712 1001.24 546.712C1002.36 546.712 1003.32 546.992 1004.14 547.552C1004.96 548.096 1005.59 548.864 1006.04 549.856C1006.48 550.848 1006.71 552.016 1006.71 553.36H996.796L997.276 552.952C997.276 553.912 997.444 554.736 997.78 555.424C998.132 556.112 998.62 556.64 999.244 557.008C999.868 557.36 1000.58 557.536 1001.38 557.536C1002.23 557.536 1002.94 557.336 1003.52 556.936C1004.11 556.536 1004.56 556.008 1004.88 555.352L1006.54 556.192C1006.24 556.816 1005.83 557.36 1005.32 557.824C1004.82 558.288 1004.23 558.648 1003.54 558.904C1002.87 559.16 1002.12 559.288 1001.28 559.288ZM997.396 552.136L996.892 551.752H1005.17L1004.67 552.16C1004.67 551.392 1004.52 550.728 1004.21 550.168C1003.91 549.608 1003.5 549.176 1002.99 548.872C1002.48 548.568 1001.88 548.416 1001.21 548.416C1000.56 548.416 999.932 548.568 999.34 548.872C998.764 549.176 998.292 549.608 997.924 550.168C997.572 550.712 997.396 551.368 997.396 552.136ZM1009.95 559.336C1009.58 559.336 1009.26 559.208 1008.99 558.952C1008.73 558.68 1008.6 558.368 1008.6 558.016C1008.6 557.648 1008.73 557.336 1008.99 557.08C1009.26 556.808 1009.58 556.672 1009.95 556.672C1010.31 556.672 1010.63 556.808 1010.88 557.08C1011.14 557.336 1011.27 557.648 1011.27 558.016C1011.27 558.368 1011.14 558.68 1010.88 558.952C1010.63 559.208 1010.31 559.336 1009.95 559.336ZM1014.07 547.432L1013.88 541.816H1015.8L1015.61 547.432H1014.07ZM1016.95 547.432L1016.76 541.816H1018.68L1018.49 547.432H1016.95Z" fill="#545454"/>
<g filter="url(#filter8_d_1_5)">
<g clip-path="url(#clip1_1_5)">
<mask id="mask0_1_5" style="mask-type:luminance" maskUnits="userSpaceOnUse" x="553" y="713" width="208" height="208">
<path d="M553 713H761V921H553V713Z" fill="white"/>
</mask>
<g mask="url(#mask0_1_5)">
<path d="M553 713H761V921H553V713Z" fill="white"/>
</g>
<mask id="mask1_1_5" style="mask-type:luminance" maskUnits="userSpaceOnUse" x="553" y="713" width="208" height="208">
<path d="M553 713H761V921H553V713Z" fill="white"/>
</mask>
<g mask="url(#mask1_1_5)">
<path d="M553 713H761V921H553V713Z" fill="white"/>
</g>
<mask id="mask2_1_5" style="mask-type:luminance" maskUnits="userSpaceOnUse" x="566" y="773" width="182" height="88">
<path d="M566.744 773.41H747.255V860.77H566.744V773.41Z" fill="white"/>
</mask>
<g mask="url(#mask2_1_5)">
<path fill-rule="evenodd" clip-rule="evenodd" d="M715.866 850.821C666.126 861.929 630.881 796.4 586.646 813.727C602.136 810.33 622.519 819.162 647.791 840.223C674.831 859.789 697.522 863.322 715.866 850.821Z" fill="#7ED957"/>
<path fill-rule="evenodd" clip-rule="evenodd" d="M582.544 822.221C608.985 802.155 633.771 851.637 659.982 857.798C633.711 873.729 613.25 815.949 582.544 822.221Z" fill="#7ED957"/>
<path fill-rule="evenodd" clip-rule="evenodd" d="M566.785 817.258C616.013 751.117 694.068 844.226 716.225 813.851C734.318 789.046 688.872 774.771 674.616 798.692C698.915 745.369 770.827 786.567 739.4 828.862C719.704 855.369 686.279 841.437 658.737 823.778C631.509 806.322 598.804 791.276 566.785 817.257L566.785 817.258Z" fill="#004B23"/>
</g>
</g>
</g>
</g>
<defs>
<filter id="filter0_d_1_5" x="-4" y="0" width="1448" height="1104" filterUnits="userSpaceOnUse" color-interpolation-filters="sRGB">
<feFlood flood-opacity="0" result="BackgroundImageFix"/>
<feColorMatrix in="SourceAlpha" type="matrix" values="0 0 0 0 0 0 0 0 0 0 0 0 0 0 0 0 0 0 127 0" result="hardAlpha"/>
<feOffset dy="4"/>
<feGaussianBlur stdDeviation="2"/>
<feComposite in2="hardAlpha" operator="out"/>
<feColorMatrix type="matrix" values="0 0 0 0 0 0 0 0 0 0 0 0 0 0 0 0 0 0 0.25 0"/>
<feBlend mode="normal" in2="BackgroundImageFix" result="effect1_dropShadow_1_5"/>
<feBlend mode="normal" in="SourceGraphic" in2="effect1_dropShadow_1_5" result="shape"/>
</filter>
<filter id="filter1_d_1_5" x="48" y="250" width="304" height="884" filterUnits="userSpaceOnUse" color-interpolation-filters="sRGB">
<feFlood flood-opacity="0" result="BackgroundImageFix"/>
<feColorMatrix in="SourceAlpha" type="matrix" values="0 0 0 0 0 0 0 0 0 0 0 0 0 0 0 0 0 0 127 0" result="hardAlpha"/>
<feOffset dy="4"/>
<feGaussianBlur stdDeviation="2"/>
<feComposite in2="hardAlpha" operator="out"/>
<feColorMatrix type="matrix" values="0 0 0 0 0 0 0 0 0 0 0 0 0 0 0 0 0 0 0.25 0"/>
<feBlend mode="normal" in2="BackgroundImageFix" result="effect1_dropShadow_1_5"/>
<feBlend mode="normal" in="SourceGraphic" in2="effect1_dropShadow_1_5" result="shape"/>
</filter>
<filter id="filter2_d_1_5" x="464" y="651" width="385" height="593" filterUnits="userSpaceOnUse" color-interpolation-filters="sRGB">
<feFlood flood-opacity="0" result="BackgroundImageFix"/>
<feColorMatrix in="SourceAlpha" type="matrix" values="0 0 0 0 0 0 0 0 0 0 0 0 0 0 0 0 0 0 127 0" result="hardAlpha"/>
<feOffset dy="4"/>
<feGaussianBlur stdDeviation="2"/>
<feComposite in2="hardAlpha" operator="out"/>
<feColorMatrix type="matrix" values="0 0 0 0 0 0 0 0 0 0 0 0 0 0 0 0 0 0 0.25 0"/>
<feBlend mode="normal" in2="BackgroundImageFix" result="effect1_dropShadow_1_5"/>
<feBlend mode="normal" in="SourceGraphic" in2="effect1_dropShadow_1_5" result="shape"/>
</filter>
<filter id="filter3_d_1_5" x="943" y="783" width="385" height="504" filterUnits="userSpaceOnUse" color-interpolation-filters="sRGB">
<feFlood flood-opacity="0" result="BackgroundImageFix"/>
<feColorMatrix in="SourceAlpha" type="matrix" values="0 0 0 0 0 0 0 0 0 0 0 0 0 0 0 0 0 0 127 0" result="hardAlpha"/>
<feOffset dy="4"/>
<feGaussianBlur stdDeviation="2"/>
<feComposite in2="hardAlpha" operator="out"/>
<feColorMatrix type="matrix" values="0 0 0 0 0 0 0 0 0 0 0 0 0 0 0 0 0 0 0.25 0"/>
<feBlend mode="normal" in2="BackgroundImageFix" result="effect1_dropShadow_1_5"/>
<feBlend mode="normal" in="SourceGraphic" in2="effect1_dropShadow_1_5" result="shape"/>
</filter>
<filter id="filter4_d_1_5" x="1040.61" y="48.6096" width="683.775" height="387.363" filterUnits="userSpaceOnUse" color-interpolation-filters="sRGB">
<feFlood flood-opacity="0" result="BackgroundImageFix"/>
<feColorMatrix in="SourceAlpha" type="matrix" values="0 0 0 0 0 0 0 0 0 0 0 0 0 0 0 0 0 0 127 0" result="hardAlpha"/>
<feOffset dy="4"/>
<feGaussianBlur stdDeviation="2"/>
<feComposite in2="hardAlpha" operator="out"/>
<feColorMatrix type="matrix" values="0 0 0 0 0 0 0 0 0 0 0 0 0 0 0 0 0 0 0.25 0"/>
<feBlend mode="normal" in2="BackgroundImageFix" result="effect1_dropShadow_1_5"/>
<feBlend mode="normal" in="SourceGraphic" in2="effect1_dropShadow_1_5" result="shape"/>
</filter>
<filter id="filter5_d_1_5" x="49.2824" y="-481.718" width="301.103" height="683.151" filterUnits="userSpaceOnUse" color-interpolation-filters="sRGB">
<feFlood flood-opacity="0" result="BackgroundImageFix"/>
<feColorMatrix in="SourceAlpha" type="matrix" values="0 0 0 0 0 0 0 0 0 0 0 0 0 0 0 0 0 0 127 0" result="hardAlpha"/>
<feOffset dy="4"/>
<feGaussianBlur stdDeviation="2"/>
<feComposite in2="hardAlpha" operator="out"/>
<feColorMatrix type="matrix" values="0 0 0 0 0 0 0 0 0 0 0 0 0 0 0 0 0 0 0.25 0"/>
<feBlend mode="normal" in2="BackgroundImageFix" result="effect1_dropShadow_1_5"/>
<feBlend mode="normal" in="SourceGraphic" in2="effect1_dropShadow_1_5" result="shape"/>
</filter>
<filter id="filter6_d_1_5" x="392.282" y="-354.718" width="301.103" height="683.151" filterUnits="userSpaceOnUse" color-interpolation-filters="sRGB">
<feFlood flood-opacity="0" result="BackgroundImageFix"/>
<feColorMatrix in="SourceAlpha" type="matrix" values="0 0 0 0 0 0 0 0 0 0 0 0 0 0 0 0 0 0 127 0" result="hardAlpha"/>
<feOffset dy="4"/>
<feGaussianBlur stdDeviation="2"/>
<feComposite in2="hardAlpha" operator="out"/>
<feColorMatrix type="matrix" values="0 0 0 0 0 0 0 0 0 0 0 0 0 0 0 0 0 0 0.25 0"/>
<feBlend mode="normal" in2="BackgroundImageFix" result="effect1_dropShadow_1_5"/>
<feBlend mode="normal" in="SourceGraphic" in2="effect1_dropShadow_1_5" result="shape"/>
</filter>
<filter id="filter7_d_1_5" x="725.282" y="-466.718" width="301.103" height="683.151" filterUnits="userSpaceOnUse" color-interpolation-filters="sRGB">
<feFlood flood-opacity="0" result="BackgroundImageFix"/>
<feColorMatrix in="SourceAlpha" type="matrix" values="0 0 0 0 0 0 0 0 0 0 0 0 0 0 0 0 0 0 127 0" result="hardAlpha"/>
<feOffset dy="4"/>
<feGaussianBlur stdDeviation="2"/>
<feComposite in2="hardAlpha" operator="out"/>
<feColorMatrix type="matrix" values="0 0 0 0 0 0 0 0 0 0 0 0 0 0 0 0 0 0 0.25 0"/>
<feBlend mode="normal" in2="BackgroundImageFix" result="effect1_dropShadow_1_5"/>
<feBlend mode="normal" in="SourceGraphic" in2="effect1_dropShadow_1_5" result="shape"/>
</filter>
<filter id="filter8_d_1_5" x="549" y="713" width="216" height="216" filterUnits="userSpaceOnUse" color-interpolation-filters="sRGB">
<feFlood flood-opacity="0" result="BackgroundImageFix"/>
<feColorMatrix in="SourceAlpha" type="matrix" values="0 0 0 0 0 0 0 0 0 0 0 0 0 0 0 0 0 0 127 0" result="hardAlpha"/>
<feOffset dy="4"/>
<feGaussianBlur stdDeviation="2"/>
<feComposite in2="hardAlpha" operator="out"/>
<feColorMatrix type="matrix" values="0 0 0 0 0 0 0 0 0 0 0 0 0 0 0 0 0 0 0.25 0"/>
<feBlend mode="normal" in2="BackgroundImageFix" result="effect1_dropShadow_1_5"/>
<feBlend mode="normal" in="SourceGraphic" in2="effect1_dropShadow_1_5" result="shape"/>
</filter>
<clipPath id="clip0_1_5">
<rect width="1440" height="1024" fill="white"/>
</clipPath>
<clipPath id="clip1_1_5">
<rect x="553" y="713" width="208" height="208" rx="30" fill="white"/>
</clipPath>
</defs>
</svg>
